<svg width="20" height="20" viewBox="0 0 20 20" fill="none" xmlns="http://www.w3.org/2000/svg">
<g id="mailbox 1">
<path id="Vector" d="M18.3334 14.1665C18.3334 14.6085 18.1578 15.0325 17.8453 15.345C17.5327 15.6576 17.1088 15.8332 16.6667 15.8332H3.33341C2.89139 15.8332 2.46746 15.6576 2.1549 15.345C1.84234 15.0325 1.66675 14.6085 1.66675 14.1665V7.9165C1.66675 5.83317 3.33341 4.1665 5.41675 4.1665H15.0001C16.8334 4.1665 18.3334 5.6665 18.3334 7.49984V14.1665Z" stroke="#2F2F2F" stroke-width="2" stroke-linecap="round" stroke-linejoin="round"/>
<path id="Vector_2" d="M12.5 7.5H15V9.16667" stroke="#2F2F2F" stroke-width="2" stroke-linecap="round" stroke-linejoin="round"/>
<path id="Vector_3" d="M5.41675 4.1665C7.50008 4.1665 9.16675 5.83317 9.16675 7.9165V14.1665C9.16675 14.6085 8.99115 15.0325 8.67859 15.345C8.36603 15.6576 7.94211 15.8332 7.50008 15.8332" stroke="#2F2F2F" stroke-width="2" stroke-linecap="round" stroke-linejoin="round"/>
<path id="Vector_4" d="M5 8.3335H5.83333" stroke="#2F2F2F" stroke-width="2" stroke-linecap="round" stroke-linejoin="round"/>
</g>
</svg>
