<svg width="43" height="44" viewBox="0 0 43 44" fill="none" xmlns="http://www.w3.org/2000/svg">
<path fill-rule="evenodd" clip-rule="evenodd" d="M42.9971 22.3568C42.999 22.2381 43 22.1191 43 22C43 10.1259 33.3741 0.5 21.5 0.5C12.9805 0.5 5.61836 5.45524 2.1385 12.6408C2.68607 12.8342 3.3356 13.018 4.11849 13.2398L4.12207 13.2407L4.12804 13.2424L4.13114 13.2432L4.40783 13.3216C6.66029 13.9602 9.46144 14.8668 12.2186 17.5819C13.1573 18.5063 13.9352 19.5972 14.5771 20.7855C14.9385 20.4703 15.3639 20.2006 15.8602 20.0443C16.7659 19.7591 17.6753 19.9242 18.4611 20.426C19.1855 20.8884 19.7805 21.6149 20.2906 22.465C22.0264 25.358 24.1598 26.2348 25.4091 26.2348C25.7508 26.2348 26.1014 26.2063 26.5343 26.171L26.7865 26.1506C27.3026 26.1096 27.9201 26.0677 28.5537 26.1085C29.9071 26.1958 31.3592 26.6674 32.5446 28.1492C32.6086 28.2292 32.671 28.3116 32.7319 28.396C33.5646 27.3977 34.5278 26.5146 35.6216 25.8309C38.0511 24.3124 40.2297 23.4568 41.7975 22.8412C42.008 22.7585 42.2075 22.6801 42.3951 22.6051C42.6223 22.5143 42.8218 22.432 42.9971 22.3568ZM18.2307 12.503C18.048 14.6542 16.4466 16.2746 14.654 16.1224C12.8613 15.9701 11.5562 14.1028 11.7389 11.9516C11.9216 9.80039 13.523 8.17996 15.3156 8.33222C17.1082 8.48448 18.4134 10.3518 18.2307 12.503ZM31.9044 24.5939C33.5416 24.7784 35.0493 23.3252 35.2722 21.3481C35.4949 19.371 34.3485 17.6187 32.7114 17.4341C31.0742 17.2496 29.5665 18.7029 29.3436 20.6799C29.1208 22.6571 30.2673 24.4094 31.9044 24.5939ZM8.81072 10.6887C8.89717 7.01117 10.049 5.36302 11.813 5.77356C13.5769 6.1841 13.1637 7.9589 13.1637 7.9589C12.5101 7.48502 11.1719 7.93516 10.5743 11.0989C10.0332 13.9643 7.6724 12.9188 6.63437 12.0537C6.55094 11.9841 6.51515 11.9546 6.51515 11.9546C6.51515 11.9546 6.51778 11.9557 6.52231 11.9586L6.53893 11.9693C6.77872 12.1247 8.74702 13.4006 8.81072 10.6887ZM35.2421 15.0542C36.4553 14.3536 37.6784 15.3143 38.5697 18.0165C39.2269 20.0095 40.3969 18.6219 40.5391 18.4533C40.5481 18.4426 40.5533 18.437 40.5533 18.437C40.5533 18.437 40.5477 18.4463 40.5346 18.4659C40.5238 18.4821 40.5082 18.5055 40.4874 18.5372C39.9137 19.411 38.4018 20.7157 37.3567 18.7169C36.2028 16.5098 35.1111 16.4776 34.7341 16.9754C34.7341 16.9754 34.0289 15.7548 35.2421 15.0542ZM26.0897 18.0165C26.9809 15.3143 28.2041 14.3536 29.4173 15.0542C30.6304 15.7548 29.9253 16.9754 29.9253 16.9754C29.5483 16.4776 28.4565 16.5098 27.3027 18.7169C26.2576 20.7157 24.7456 19.411 24.172 18.5372C24.1463 18.498 24.1285 18.4716 24.1179 18.4558C24.1096 18.4432 24.1061 18.437 24.1061 18.437C24.1061 18.437 24.1113 18.4426 24.1203 18.4533C24.2625 18.6219 25.4325 20.0095 26.0897 18.0165Z" fill="url(#paint0_linear_1212_2475)"/>
<path d="M42.6254 26.0167C41.1296 26.608 39.3477 27.3436 37.3481 28.5933C36.1456 29.3449 35.099 30.4981 34.255 31.8338C34.2904 31.9622 34.3242 32.0908 34.3565 32.2194C34.7394 33.7399 34.9548 35.4082 35.0117 36.9503C35.034 37.5531 35.0326 38.1532 35.0045 38.7305C38.8908 35.5896 41.6605 31.1222 42.6254 26.0167Z" fill="url(#paint1_linear_1212_2475)"/>
<path d="M29.3089 42.0379C26.8884 42.9819 24.2546 43.5 21.5 43.5C19.508 43.5 17.5792 43.2291 15.7486 42.7221L15.7761 42.6825L15.7912 42.6602C16.0315 42.3043 16.2209 41.8945 16.3743 41.4822C16.9744 39.8693 17.3389 37.3381 17.3879 34.5705C17.4377 31.7686 17.167 28.5644 16.3953 25.5644C16.2786 25.1104 16.1494 24.6577 16.0069 24.209C16.1707 23.9164 16.3284 23.6802 16.4756 23.4985C16.6004 23.3445 16.6961 23.2563 16.7584 23.2071C16.9011 23.316 17.1592 23.5776 17.4973 24.141C19.6706 27.7632 22.7493 29.4924 25.4091 29.4924C25.8957 29.4924 26.3992 29.451 26.8273 29.4155H26.8287L26.8529 29.4136L27.0445 29.3979C27.5506 29.3577 27.9644 29.3349 28.3441 29.3593C29.0172 29.4027 29.5196 29.5826 30.0009 30.1842C30.2449 30.4891 30.4865 30.9275 30.7096 31.4825C30.0215 32.8232 29.5126 34.2121 29.1818 35.5126C28.7382 37.2569 28.5691 39.0124 28.8038 40.4483C28.8859 40.9505 29.0419 41.5152 29.3089 42.0379Z" fill="url(#paint2_linear_1212_2475)"/>
<path d="M10.757 40.6277C4.32679 36.9112 0 29.9609 0 22C0 19.8003 0.330291 17.6777 0.944108 15.6793C1.63587 15.9356 2.33112 16.1271 2.98383 16.3068C3.16596 16.3569 3.34474 16.4061 3.51923 16.4556C5.61033 17.0485 7.76792 17.771 9.9329 19.903C10.989 20.943 11.8369 22.3589 12.4875 24.0208C11.2261 27.0236 10.3851 31.3574 10.1036 34.9013C9.92829 37.1084 10.166 38.7613 10.5443 40.0053C10.6118 40.2274 10.6836 40.4348 10.757 40.6277Z" fill="url(#paint3_linear_1212_2475)"/>
<defs>
<linearGradient id="paint0_linear_1212_2475" x1="21.5" y1="0.5" x2="21.5" y2="43.5" gradientUnits="userSpaceOnUse">
<stop stop-color="#D9764E"/>
<stop offset="1" stop-color="#DD6D5C"/>
</linearGradient>
<linearGradient id="paint1_linear_1212_2475" x1="21.5" y1="0.5" x2="21.5" y2="43.5" gradientUnits="userSpaceOnUse">
<stop stop-color="#D9764E"/>
<stop offset="1" stop-color="#DD6D5C"/>
</linearGradient>
<linearGradient id="paint2_linear_1212_2475" x1="21.5" y1="0.5" x2="21.5" y2="43.5" gradientUnits="userSpaceOnUse">
<stop stop-color="#D9764E"/>
<stop offset="1" stop-color="#DD6D5C"/>
</linearGradient>
<linearGradient id="paint3_linear_1212_2475" x1="21.5" y1="0.5" x2="21.5" y2="43.5" gradientUnits="userSpaceOnUse">
<stop stop-color="#D9764E"/>
<stop offset="1" stop-color="#DD6D5C"/>
</linearGradient>
</defs>
</svg>
