<svg width="26" height="26" viewBox="0 0 26 26" fill="none" xmlns="http://www.w3.org/2000/svg">
<g id="check_box">
<mask id="mask0_1027_658" style="mask-type:alpha" maskUnits="userSpaceOnUse" x="0" y="0" width="26" height="26">
<rect id="Bounding box" width="26" height="26" fill="#D9D9D9"/>
</mask>
<g mask="url(#mask0_1027_658)">
<path id="check_box_outline_blank" d="M5.41667 22.75C4.82083 22.75 4.31076 22.5378 3.88646 22.1135C3.46215 21.6892 3.25 21.1792 3.25 20.5833V5.41667C3.25 4.82083 3.46215 4.31076 3.88646 3.88646C4.31076 3.46215 4.82083 3.25 5.41667 3.25H20.5833C21.1792 3.25 21.6892 3.46215 22.1135 3.88646C22.5378 4.31076 22.75 4.82083 22.75 5.41667V20.5833C22.75 21.1792 22.5378 21.6892 22.1135 22.1135C21.6892 22.5378 21.1792 22.75 20.5833 22.75H5.41667ZM5.41667 19.5833C5.41667 20.1356 5.86438 20.5833 6.41667 20.5833H19.5833C20.1356 20.5833 20.5833 20.1356 20.5833 19.5833V6.41667C20.5833 5.86438 20.1356 5.41667 19.5833 5.41667H6.41667C5.86438 5.41667 5.41667 5.86438 5.41667 6.41667V19.5833Z" fill="#2F2F2F" fill-opacity="0.5"/>
</g>
</g>
</svg>
