<svg width="26" height="26" viewBox="0 0 26 26" fill="none" xmlns="http://www.w3.org/2000/svg">
<g id="checked=yes">
<mask id="mask0_483_2391" style="mask-type:alpha" maskUnits="userSpaceOnUse" x="0" y="0" width="26" height="26">
<rect id="Bounding box" width="26" height="26" fill="#D9D9D9"/>
</mask>
<g mask="url(#mask0_483_2391)">
<path id="check_box" d="M10.716 16.7826C11.1398 17.2064 11.8269 17.2064 12.2507 16.7826L18.3625 10.6708C18.7813 10.252 18.7813 9.57298 18.3625 9.15417C17.9437 8.73535 17.2646 8.73535 16.8458 9.15417L11.4833 14.5167L9.15417 12.1875C8.73535 11.7687 8.05632 11.7687 7.6375 12.1875C7.21868 12.6063 7.21868 13.2854 7.6375 13.7042L10.716 16.7826ZM5.41667 22.75C4.82083 22.75 4.31076 22.5378 3.88646 22.1135C3.46215 21.6892 3.25 21.1792 3.25 20.5833V5.41667C3.25 4.82083 3.46215 4.31076 3.88646 3.88646C4.31076 3.46215 4.82083 3.25 5.41667 3.25H20.5833C21.1792 3.25 21.6892 3.46215 22.1135 3.88646C22.5378 4.31076 22.75 4.82083 22.75 5.41667V20.5833C22.75 21.1792 22.5378 21.6892 22.1135 22.1135C21.6892 22.5378 21.1792 22.75 20.5833 22.75H5.41667Z" fill="#DD6D5C"/>
</g>
</g>
</svg>
