<svg width="20" height="20" viewBox="0 0 20 20" fill="none" xmlns="http://www.w3.org/2000/svg">
<g id="checked=yes">
<mask id="mask0_483_2391" style="mask-type:alpha" maskUnits="userSpaceOnUse" x="0" y="0" width="20" height="20">
<rect id="Bounding box" width="20" height="20" fill="#D9D9D9"/>
</mask>
<g mask="url(#mask0_483_2391)">
<path id="check_box" d="M8.24305 12.9097C8.56906 13.2357 9.09761 13.2357 9.42361 12.9097L14.125 8.20833C14.4472 7.88617 14.4472 7.36383 14.125 7.04167V7.04167C13.8028 6.7195 13.2805 6.7195 12.9583 7.04167L8.83333 11.1667L7.04167 9.375C6.7195 9.05283 6.19717 9.05283 5.875 9.375V9.375C5.55283 9.69717 5.55283 10.2195 5.875 10.5417L8.24305 12.9097ZM4.16667 17.5C3.70833 17.5 3.31597 17.3368 2.98958 17.0104C2.66319 16.684 2.5 16.2917 2.5 15.8333V4.16667C2.5 3.70833 2.66319 3.31597 2.98958 2.98958C3.31597 2.66319 3.70833 2.5 4.16667 2.5H15.8333C16.2917 2.5 16.684 2.66319 17.0104 2.98958C17.3368 3.31597 17.5 3.70833 17.5 4.16667V15.8333C17.5 16.2917 17.3368 16.684 17.0104 17.0104C16.684 17.3368 16.2917 17.5 15.8333 17.5H4.16667Z" fill="#DD6D5C"/>
</g>
</g>
</svg>
