<svg width="30" height="30" viewBox="0 0 30 30" fill="none" xmlns="http://www.w3.org/2000/svg">
<g id="Frame 427318981">
<g id="close">
<path id="close_2" d="M8.875 22.875C8.39175 23.3582 7.60825 23.3582 7.125 22.875C6.64175 22.3918 6.64175 21.6082 7.125 21.125L13.25 15L7.125 8.875C6.64175 8.39175 6.64175 7.60825 7.125 7.125C7.60825 6.64175 8.39175 6.64175 8.875 7.125L15 13.25L21.125 7.125C21.6082 6.64175 22.3918 6.64175 22.875 7.125C23.3582 7.60825 23.3582 8.39175 22.875 8.875L16.75 15L22.875 21.125C23.3582 21.6082 23.3582 22.3918 22.875 22.875C22.3918 23.3582 21.6082 23.3582 21.125 22.875L15 16.75L8.875 22.875Z" fill="#B1574A"/>
</g>
</g>
</svg>
