<svg width="21" height="35" viewBox="0 0 21 35" fill="none" xmlns="http://www.w3.org/2000/svg">
<path id="Facebook" d="M15.668 1C17.1261 1 17.8369 1.18199 18.5332 1.38965L18.6904 1.44336C19.4575 1.7414 20 2.48387 20 3.34375V6.56836C20 7.76048 18.9932 8.61577 17.8848 8.55859L17.6621 8.53516C17.3104 8.47809 16.9742 8.44531 16.3633 8.44531C15.7601 8.44532 15.374 8.53448 15.0928 8.66309C14.8857 8.75779 14.6959 8.89257 14.4971 9.09277L14.2939 9.31543C13.8477 9.84651 13.502 10.9488 13.502 12.9141V13.7715H17.6152C18.9363 13.7715 19.8821 15.0241 19.5498 16.2793L19.5137 16.4004L18.4336 19.6621C18.1625 20.4805 17.3973 21.033 16.5352 21.0332H13.502V32C13.502 33.1046 12.6065 34 11.502 34H7.76562C6.66111 33.9999 5.76562 33.1045 5.76562 32V21.0225H3C1.89552 21.0225 1.00015 20.1269 1 19.0225V15.7598C1.00012 14.6553 1.8955 13.7598 3 13.7598H5.76562V12.8457C5.76562 9.18418 6.49768 6.20605 8.17188 4.12988C9.87939 2.01248 12.4284 1.00009 15.668 1Z" stroke="#2F2F2F" stroke-width="2"/>
</svg>
