<svg width="18" height="33" viewBox="0 0 18 33" fill="none" xmlns="http://www.w3.org/2000/svg">
<path id="Facebook" d="M11.1201 19.1849V32C11.1201 32.5523 10.6723 33 10.1201 33H6.04607C5.49379 33 5.04607 32.5523 5.04607 32V20.1849C5.04607 19.6326 4.59836 19.1849 4.04607 19.1849H0.999999C0.447714 19.1849 0 18.7372 0 18.1849V14.5832C0 14.0309 0.447715 13.5832 1 13.5832H4.04608C4.59836 13.5832 5.04607 13.1355 5.04607 12.5832V11.5451C5.04607 3.97855 8.07138 0 14.4724 0C15.928 0 16.5738 0.181301 17.2489 0.384517C17.6884 0.516803 18 0.919974 18 1.3789V4.93956C18 5.56377 17.4368 6.02182 16.8214 5.91731C16.3586 5.83871 15.9393 5.79697 15.2083 5.79697C13.7249 5.79697 12.9306 6.23632 12.2064 7.10281C11.4822 7.9693 11.1201 9.47041 11.1201 11.6183V12.5954C11.1201 13.1477 11.5678 13.5954 12.1201 13.5954H16.6177C17.2988 13.5954 17.7806 14.2614 17.5674 14.9083L16.3808 18.51C16.2457 18.9201 15.8627 19.1971 15.431 19.1971H11.1323C11.1255 19.1971 11.1201 19.1917 11.1201 19.1849Z" fill="#2F2F2F"/>
</svg>
