<svg width="13" height="14" viewBox="0 0 13 14" fill="none" xmlns="http://www.w3.org/2000/svg">
<g id="help">
<path id="help_2" d="M6.21875 10.75C6.4375 10.75 6.6224 10.6745 6.77344 10.5234C6.92448 10.3724 7 10.1875 7 9.96875C7 9.75 6.92448 9.5651 6.77344 9.41406C6.6224 9.26302 6.4375 9.1875 6.21875 9.1875C6 9.1875 5.8151 9.26302 5.66406 9.41406C5.51302 9.5651 5.4375 9.75 5.4375 9.96875C5.4375 10.1875 5.51302 10.3724 5.66406 10.5234C5.8151 10.6745 6 10.75 6.21875 10.75ZM5.65625 8.34375H6.8125C6.8125 8 6.85156 7.72917 6.92969 7.53125C7.00781 7.33333 7.22917 7.0625 7.59375 6.71875C7.86458 6.44792 8.07812 6.1901 8.23438 5.94531C8.39062 5.70052 8.46875 5.40625 8.46875 5.0625C8.46875 4.47917 8.25521 4.03125 7.82813 3.71875C7.40104 3.40625 6.89583 3.25 6.3125 3.25C5.71875 3.25 5.23698 3.40625 4.86719 3.71875C4.4974 4.03125 4.23958 4.40625 4.09375 4.84375L5.125 5.25C5.17708 5.0625 5.29427 4.85938 5.47656 4.64062C5.65885 4.42188 5.9375 4.3125 6.3125 4.3125C6.64583 4.3125 6.89583 4.40365 7.0625 4.58594C7.22917 4.76823 7.3125 4.96875 7.3125 5.1875C7.3125 5.39583 7.25 5.59115 7.125 5.77344C7 5.95573 6.84375 6.125 6.65625 6.28125C6.19792 6.6875 5.91667 6.99479 5.8125 7.20312C5.70833 7.41146 5.65625 7.79167 5.65625 8.34375ZM6.25 13.25C5.38542 13.25 4.57292 13.0859 3.8125 12.7578C3.05208 12.4297 2.39062 11.9844 1.82812 11.4219C1.26562 10.8594 0.820313 10.1979 0.492188 9.4375C0.164062 8.67708 0 7.86458 0 7C0 6.13542 0.164062 5.32292 0.492188 4.5625C0.820313 3.80208 1.26562 3.14062 1.82812 2.57812C2.39062 2.01562 3.05208 1.57031 3.8125 1.24219C4.57292 0.914062 5.38542 0.75 6.25 0.75C7.11458 0.75 7.92708 0.914062 8.6875 1.24219C9.44792 1.57031 10.1094 2.01562 10.6719 2.57812C11.2344 3.14062 11.6797 3.80208 12.0078 4.5625C12.3359 5.32292 12.5 6.13542 12.5 7C12.5 7.86458 12.3359 8.67708 12.0078 9.4375C11.6797 10.1979 11.2344 10.8594 10.6719 11.4219C10.1094 11.9844 9.44792 12.4297 8.6875 12.7578C7.92708 13.0859 7.11458 13.25 6.25 13.25ZM6.25 12C7.64583 12 8.82812 11.5156 9.79688 10.5469C10.7656 9.57812 11.25 8.39583 11.25 7C11.25 5.60417 10.7656 4.42188 9.79688 3.45313C8.82812 2.48438 7.64583 2 6.25 2C4.85417 2 3.67188 2.48438 2.70313 3.45313C1.73438 4.42188 1.25 5.60417 1.25 7C1.25 8.39583 1.73438 9.57812 2.70313 10.5469C3.67188 11.5156 4.85417 12 6.25 12Z" fill="#6B6461"/>
</g>
</svg>
