<svg width="60" height="60" viewBox="0 0 60 60" fill="none" xmlns="http://www.w3.org/2000/svg">
<g id="improvement">
<path id="Vector" d="M41 32.5V19.3333C41 18.597 40.5523 18 40 18H38C37.4477 18 37 18.597 37 19.3333V29.5" stroke="#2F2F2F" stroke-width="2" stroke-linecap="round" stroke-linejoin="round"/>
<path id="Vector_2" d="M49 26V16.25C49 15.5596 48.5523 15 48 15H46C45.4477 15 45 15.5596 45 16.25V29" stroke="#2F2F2F" stroke-width="2" stroke-linecap="round" stroke-linejoin="round"/>
<path id="Vector_3" d="M33 28.5V22C33 21.4477 32.5523 21 32 21H30C29.4477 21 29 21.4477 29 22V28.5" stroke="#2F2F2F" stroke-width="2" stroke-linecap="round" stroke-linejoin="round"/>
<path id="Vector_4" d="M25.5 36L31 35C33.5 34.5 34 34.5 36.5 34C41 32.5 39 29.5 35.5 29.5C27 29.5 29.5 28 22 28C20.3112 28 19 29.5 17 31L5.5 41" stroke="#2F2F2F" stroke-width="2" stroke-linecap="round" stroke-linejoin="round"/>
<path id="Vector_5" d="M15.5 50.9997L19.5 47.4997C20.25 46.4997 21.5 45.9997 23 45.9997H33C35.75 45.9997 38.25 44.9997 40 42.9997L51.5 31.9997C52.4647 31.0881 51 32.5 54.5 29C58 25.5 53.5 22.5 50 25.4997C46.5 28.4995 47.0619 28.2034 46 28.9998C38 35 37.5 34.5 25.5 36" stroke="#2F2F2F" stroke-width="2" stroke-linecap="round" stroke-linejoin="round"/>
<path id="Vector_6" d="M3 38.5L18 53.5" stroke="#2F2F2F" stroke-width="2" stroke-linecap="round" stroke-linejoin="round"/>
<path id="Vector_7" d="M41 8L29.5 15.5L26.5 12L18 17.5" stroke="#2F2F2F" stroke-width="2" stroke-linecap="round" stroke-linejoin="round"/>
<path id="Vector_8" d="M36 7H42V13" stroke="#2F2F2F" stroke-width="2" stroke-linecap="round" stroke-linejoin="round"/>
</g>
</svg>
