<svg width="35" height="35" viewBox="0 0 35 35" fill="none" xmlns="http://www.w3.org/2000/svg">
<g id="LinkedIn">
<path id="Vector" d="M7.39648 12.7671C8.50088 12.7673 9.39648 13.6626 9.39648 14.7671V31.6372C9.39648 32.7416 8.50088 33.637 7.39648 33.6372H3.47852C2.37395 33.6372 1.47852 32.7418 1.47852 31.6372V14.7671C1.47852 13.6625 2.37395 12.7671 3.47852 12.7671H7.39648Z" stroke="#2F2F2F" stroke-width="2"/>
<path id="Vector_2" d="M25.502 12.3046H25.5107L25.5195 12.3055C25.7395 12.3185 25.9979 12.3345 26.249 12.3651L26.25 12.3641C26.2536 12.3645 26.2571 12.3657 26.2607 12.3661C26.2625 12.3663 26.2648 12.3659 26.2666 12.3661L26.2656 12.3671C28.3477 12.5957 30.0795 13.4093 31.2822 14.8397C32.481 16.2656 33.0596 18.1905 33.0596 20.4618V31.7743C33.0594 32.8787 32.164 33.7743 31.0596 33.7743H27.1426C26.0381 33.7743 25.1427 32.8787 25.1426 31.7743V21.7704C25.1425 21.6894 25.1267 21.0862 24.8232 20.535C24.6797 20.2743 24.4783 20.0378 24.1875 19.8622C23.8982 19.6875 23.4642 19.539 22.8018 19.5389C22.0062 19.5389 21.3881 19.8784 21.0439 20.4979C20.5603 21.3885 20.625 22.4236 20.625 23.83V32.4335C20.6248 33.1286 20.0605 33.6923 19.3652 33.6923H14.707C13.6025 33.6923 12.7071 32.7968 12.707 31.6923V14.8212C12.7073 13.7168 13.6026 12.8212 14.707 12.8212H18.8184C19.5145 12.8212 20.1026 13.2816 20.2969 13.9139C21.4389 13.0391 23.1553 12.208 25.502 12.3046Z" stroke="#2F2F2F" stroke-width="2"/>
<path id="Vector_3" d="M5.43555 1C7.88533 1 9.87184 2.98581 9.87207 5.43555C9.87207 7.88548 7.88547 9.87207 5.43555 9.87207C2.98583 9.87182 1 7.88532 1 5.43555C1.00023 2.98597 2.98597 1.00025 5.43555 1Z" stroke="#2F2F2F" stroke-width="2"/>
</g>
</svg>
