<svg width="32" height="32" viewBox="0 0 32 32" fill="none" xmlns="http://www.w3.org/2000/svg">
<g id="LinkedIn">
<path id="Vector" d="M6.22777 10.5229H1.54102C0.988731 10.5229 0.541016 10.9707 0.541016 11.5229V30.8463C0.541016 31.3986 0.988731 31.8463 1.54102 31.8463H6.22777C6.78005 31.8463 7.22777 31.3986 7.22777 30.8463V11.5229C7.22777 10.9707 6.78005 10.5229 6.22777 10.5229Z" fill="#2F2F2F"/>
<path id="Vector_2" d="M25.3151 10.0607C25.0686 10.0299 24.8066 10.0145 24.5447 9.99909C20.8008 9.84502 18.69 12.0636 17.9504 13.0189C17.8636 13.1324 17.6577 13.069 17.6577 12.926V11.2028C17.6577 10.8614 17.3809 10.5846 17.0394 10.5846H12.2637C11.7114 10.5846 11.2637 11.0323 11.2637 11.5846V30.9079C11.2637 31.4602 11.7114 31.9079 12.2637 31.9079H17.6577C17.8194 31.9079 17.9504 31.7768 17.9504 31.6151C17.9504 29.5416 17.9504 27.4809 17.9504 25.4061C17.9504 24.2352 17.9504 23.0643 17.9504 21.8933C17.9504 20.4451 17.8426 18.9044 18.5667 17.5794C19.183 16.47 20.2923 15.9154 21.5403 15.9154C25.238 15.9154 25.3151 19.2587 25.3151 19.5669C25.3151 19.5823 25.3151 19.5977 25.3151 19.5977V31.0003C25.3151 31.5526 25.7628 32.0003 26.3151 32.0003H31.0018C31.5541 32.0003 32.0018 31.5526 32.0018 31.0003V18.0878C32.0018 13.327 29.5829 10.5229 25.3151 10.0607Z" fill="#2F2F2F"/>
<path id="Vector_3" d="M3.88262 7.76515C6.02694 7.76515 7.76526 6.02686 7.76526 3.88257C7.76526 1.73829 6.02694 0 3.88262 0C1.7383 0 0 1.73829 0 3.88257C0 6.02686 1.7383 7.76515 3.88262 7.76515Z" fill="#2F2F2F"/>
</g>
</svg>
