<svg width="137" height="43" viewBox="0 0 137 43" fill="none" xmlns="http://www.w3.org/2000/svg">
<path fill-rule="evenodd" clip-rule="evenodd" d="M42.9971 21.8568C42.999 21.7381 43 21.6191 43 21.5C43 9.62587 33.3741 0 21.5 0C12.9805 0 5.61836 4.95524 2.1385 12.1408C2.68607 12.3342 3.3356 12.518 4.11849 12.7398L4.12207 12.7407L4.12804 12.7424L4.13114 12.7432L4.40783 12.8216C6.66029 13.4602 9.46144 14.3668 12.2186 17.0819C13.1573 18.0063 13.9352 19.0972 14.5771 20.2855C14.9385 19.9703 15.3639 19.7006 15.8602 19.5443C16.7659 19.2591 17.6753 19.4242 18.4611 19.926C19.1855 20.3884 19.7805 21.1149 20.2906 21.965C22.0264 24.858 24.1598 25.7348 25.4091 25.7348C25.7508 25.7348 26.1014 25.7063 26.5343 25.671L26.7865 25.6506C27.3026 25.6096 27.9201 25.5677 28.5537 25.6085C29.9071 25.6958 31.3592 26.1674 32.5446 27.6492C32.6086 27.7292 32.671 27.8116 32.7319 27.896C33.5646 26.8977 34.5278 26.0146 35.6216 25.3309C38.0511 23.8124 40.2297 22.9568 41.7975 22.3412C42.008 22.2585 42.2075 22.1801 42.3951 22.1051C42.6223 22.0143 42.8218 21.932 42.9971 21.8568ZM18.2307 12.003C18.048 14.1542 16.4466 15.7746 14.654 15.6224C12.8613 15.4701 11.5562 13.6028 11.7389 11.4516C11.9216 9.30039 13.523 7.67996 15.3156 7.83222C17.1082 7.98448 18.4134 9.85178 18.2307 12.003ZM31.9044 24.0939C33.5416 24.2784 35.0493 22.8252 35.2722 20.8481C35.4949 18.871 34.3485 17.1187 32.7114 16.9341C31.0742 16.7496 29.5665 18.2029 29.3436 20.1799C29.1208 22.1571 30.2673 23.9094 31.9044 24.0939ZM8.81072 10.1887C8.89717 6.51118 10.049 4.86302 11.813 5.27356C13.5769 5.6841 13.1637 7.4589 13.1637 7.4589C12.5101 6.98502 11.1719 7.43516 10.5743 10.5989C10.0332 13.4643 7.6724 12.4188 6.63437 11.5537C6.55094 11.4841 6.51515 11.4546 6.51515 11.4546C6.51515 11.4546 6.51778 11.4557 6.52231 11.4586L6.53893 11.4693C6.77872 11.6247 8.74702 12.9006 8.81072 10.1887ZM35.2421 14.5542C36.4553 13.8536 37.6784 14.8143 38.5697 17.5165C39.2269 19.5095 40.3969 18.1219 40.5391 17.9533C40.5481 17.9426 40.5533 17.937 40.5533 17.937C40.5533 17.937 40.5477 17.9463 40.5346 17.9659C40.5238 17.9821 40.5082 18.0055 40.4874 18.0372C39.9137 18.911 38.4018 20.2157 37.3567 18.2169C36.2028 16.0098 35.1111 15.9776 34.7341 16.4754C34.7341 16.4754 34.0289 15.2548 35.2421 14.5542ZM26.0897 17.5165C26.9809 14.8143 28.2041 13.8536 29.4173 14.5542C30.6304 15.2548 29.9253 16.4754 29.9253 16.4754C29.5483 15.9776 28.4565 16.0098 27.3027 18.2169C26.2576 20.2157 24.7456 18.911 24.172 18.0372C24.1463 17.998 24.1285 17.9716 24.1179 17.9558C24.1096 17.9432 24.1061 17.937 24.1061 17.937C24.1061 17.937 24.1113 17.9426 24.1203 17.9533C24.2625 18.1219 25.4325 19.5095 26.0897 17.5165Z" fill="url(#paint0_linear_706_2082)"/>
<path d="M42.6254 25.5167C41.1296 26.108 39.3477 26.8436 37.3481 28.0933C36.1456 28.8449 35.099 29.9981 34.255 31.3338C34.2904 31.4622 34.3242 31.5908 34.3565 31.7194C34.7394 33.2399 34.9548 34.9082 35.0117 36.4503C35.034 37.0531 35.0326 37.6532 35.0045 38.2305C38.8908 35.0896 41.6605 30.6222 42.6254 25.5167Z" fill="url(#paint1_linear_706_2082)"/>
<path d="M29.3089 41.5379C26.8884 42.4819 24.2546 43 21.5 43C19.508 43 17.5792 42.7291 15.7486 42.2221L15.7761 42.1825L15.7912 42.1602C16.0315 41.8043 16.2209 41.3945 16.3743 40.9822C16.9744 39.3693 17.3389 36.8381 17.3879 34.0705C17.4377 31.2686 17.167 28.0644 16.3953 25.0644C16.2786 24.6104 16.1494 24.1577 16.0069 23.709C16.1707 23.4164 16.3284 23.1802 16.4756 22.9985C16.6004 22.8445 16.6961 22.7563 16.7584 22.7071C16.9011 22.816 17.1592 23.0776 17.4973 23.641C19.6706 27.2632 22.7493 28.9924 25.4091 28.9924C25.8957 28.9924 26.3992 28.951 26.8273 28.9155H26.8287L26.8529 28.9136L27.0445 28.8979C27.5506 28.8577 27.9644 28.8349 28.3441 28.8593C29.0172 28.9027 29.5196 29.0826 30.0009 29.6842C30.2449 29.9891 30.4865 30.4275 30.7096 30.9825C30.0215 32.3232 29.5126 33.7121 29.1818 35.0126C28.7382 36.7569 28.5691 38.5124 28.8038 39.9483C28.8859 40.4505 29.0419 41.0152 29.3089 41.5379Z" fill="url(#paint2_linear_706_2082)"/>
<path d="M10.757 40.1277C4.32679 36.4112 0 29.4609 0 21.5C0 19.3003 0.330291 17.1777 0.944108 15.1793C1.63587 15.4356 2.33112 15.6271 2.98383 15.8068C3.16596 15.8569 3.34474 15.9061 3.51923 15.9556C5.61033 16.5485 7.76792 17.271 9.9329 19.403C10.989 20.443 11.8369 21.8589 12.4875 23.5208C11.2261 26.5236 10.3851 30.8574 10.1036 34.4013C9.92829 36.6084 10.166 38.2613 10.5443 39.5053C10.6118 39.7274 10.6836 39.9348 10.757 40.1277Z" fill="url(#paint3_linear_706_2082)"/>
<path d="M56.354 12.14C55.598 12.14 54.8653 12.0327 54.156 11.818C53.456 11.6033 52.9007 11.3187 52.49 10.964L53.12 9.55C53.5213 9.86733 54.0113 10.1287 54.59 10.334C55.178 10.53 55.766 10.628 56.354 10.628C57.082 10.628 57.6233 10.5113 57.978 10.278C58.342 10.0447 58.524 9.73667 58.524 9.354C58.524 9.074 58.4213 8.84533 58.216 8.668C58.02 8.48133 57.768 8.33667 57.46 8.234C57.152 8.13133 56.732 8.01467 56.2 7.884C55.4533 7.70667 54.8467 7.52933 54.38 7.352C53.9227 7.17467 53.526 6.89933 53.19 6.526C52.8633 6.14333 52.7 5.63 52.7 4.986C52.7 4.44467 52.8447 3.95467 53.134 3.516C53.4327 3.068 53.876 2.71333 54.464 2.452C55.0613 2.19067 55.7893 2.06 56.648 2.06C57.2453 2.06 57.8333 2.13467 58.412 2.284C58.9907 2.43333 59.49 2.648 59.91 2.928L59.336 4.342C58.9067 4.09 58.4587 3.89867 57.992 3.768C57.5253 3.63733 57.0727 3.572 56.634 3.572C55.9153 3.572 55.3787 3.69333 55.024 3.936C54.6787 4.17867 54.506 4.50067 54.506 4.902C54.506 5.182 54.604 5.41067 54.8 5.588C55.0053 5.76533 55.262 5.90533 55.57 6.008C55.878 6.11067 56.298 6.22733 56.83 6.358C57.558 6.526 58.1553 6.70333 58.622 6.89C59.0887 7.06733 59.4853 7.34267 59.812 7.716C60.148 8.08933 60.316 8.59333 60.316 9.228C60.316 9.76933 60.1667 10.2593 59.868 10.698C59.5787 11.1367 59.1353 11.4867 58.538 11.748C57.9407 12.0093 57.2127 12.14 56.354 12.14ZM70.8287 2.2V12H69.0087V7.8H63.9407V12H62.1207V2.2H63.9407V6.246H69.0087V2.2H70.8287ZM79.8107 9.732H74.9107L73.9447 12H72.0687L76.4787 2.2H78.2707L82.6947 12H80.7907L79.8107 9.732ZM79.2087 8.304L77.3607 4.02L75.5267 8.304H79.2087ZM87.973 2.2C88.8223 2.2 89.5597 2.34 90.185 2.62C90.8197 2.9 91.305 3.30133 91.641 3.824C91.977 4.34667 92.145 4.96733 92.145 5.686C92.145 6.39533 91.977 7.016 91.641 7.548C91.305 8.07067 90.8197 8.472 90.185 8.752C89.5597 9.032 88.8223 9.172 87.973 9.172H85.761V12H83.941V2.2H87.973ZM87.889 7.632C88.6823 7.632 89.2843 7.464 89.695 7.128C90.1057 6.792 90.311 6.31133 90.311 5.686C90.311 5.06067 90.1057 4.58 89.695 4.244C89.2843 3.908 88.6823 3.74 87.889 3.74H85.761V7.632H87.889ZM93.9625 2.2H95.7825V12H93.9625V2.2ZM107.141 2.2V12H105.643L100.239 5.364V12H98.4332V2.2H99.9312L105.335 8.836V2.2H107.141ZM116.459 6.988H118.181V10.894C117.677 11.2953 117.089 11.6033 116.417 11.818C115.745 12.0327 115.055 12.14 114.345 12.14C113.347 12.14 112.446 11.9253 111.643 11.496C110.841 11.0573 110.211 10.4553 109.753 9.69C109.296 8.92467 109.067 8.06133 109.067 7.1C109.067 6.13867 109.296 5.27533 109.753 4.51C110.211 3.74467 110.841 3.14733 111.643 2.718C112.455 2.27933 113.365 2.06 114.373 2.06C115.195 2.06 115.941 2.19533 116.613 2.466C117.285 2.73667 117.85 3.13333 118.307 3.656L117.159 4.776C116.413 4.02933 115.512 3.656 114.457 3.656C113.767 3.656 113.151 3.80067 112.609 4.09C112.077 4.37933 111.657 4.78533 111.349 5.308C111.051 5.83067 110.901 6.428 110.901 7.1C110.901 7.75333 111.051 8.34133 111.349 8.864C111.657 9.38667 112.077 9.79733 112.609 10.096C113.151 10.3947 113.762 10.544 114.443 10.544C115.209 10.544 115.881 10.376 116.459 10.04V6.988ZM67.638 16.2L64.39 26H62.458L60.036 18.748L57.572 26H55.626L52.378 16.2H54.268L56.704 23.648L59.238 16.2H60.918L63.396 23.69L65.902 16.2H67.638ZM76.4707 24.474V26H69.1207V16.2H76.2747V17.726H70.9407V20.274H75.6727V21.772H70.9407V24.474H76.4707ZM78.4996 16.2H80.3196V24.46H85.4436V26H78.4996V16.2ZM86.8805 16.2H88.7005V24.46H93.8245V26H86.8805V16.2ZM103.969 16.2V26H102.471L97.0673 19.364V26H95.2613V16.2H96.7593L102.163 22.836V16.2H103.969ZM113.945 24.474V26H106.595V16.2H113.749V17.726H108.415V20.274H113.147V21.772H108.415V24.474H113.945ZM119.012 26.14C118.256 26.14 117.524 26.0327 116.814 25.818C116.114 25.6033 115.559 25.3187 115.148 24.964L115.778 23.55C116.18 23.8673 116.67 24.1287 117.248 24.334C117.836 24.53 118.424 24.628 119.012 24.628C119.74 24.628 120.282 24.5113 120.636 24.278C121 24.0447 121.182 23.7367 121.182 23.354C121.182 23.074 121.08 22.8453 120.874 22.668C120.678 22.4813 120.426 22.3367 120.118 22.234C119.81 22.1313 119.39 22.0147 118.858 21.884C118.112 21.7067 117.505 21.5293 117.038 21.352C116.581 21.1747 116.184 20.8993 115.848 20.526C115.522 20.1433 115.358 19.63 115.358 18.986C115.358 18.4447 115.503 17.9547 115.792 17.516C116.091 17.068 116.534 16.7133 117.122 16.452C117.72 16.1907 118.448 16.06 119.306 16.06C119.904 16.06 120.492 16.1347 121.07 16.284C121.649 16.4333 122.148 16.648 122.568 16.928L121.994 18.342C121.565 18.09 121.117 17.8987 120.65 17.768C120.184 17.6373 119.731 17.572 119.292 17.572C118.574 17.572 118.037 17.6933 117.682 17.936C117.337 18.1787 117.164 18.5007 117.164 18.902C117.164 19.182 117.262 19.4107 117.458 19.588C117.664 19.7653 117.92 19.9053 118.228 20.008C118.536 20.1107 118.956 20.2273 119.488 20.358C120.216 20.526 120.814 20.7033 121.28 20.89C121.747 21.0673 122.144 21.3427 122.47 21.716C122.806 22.0893 122.974 22.5933 122.974 23.228C122.974 23.7693 122.825 24.2593 122.526 24.698C122.237 25.1367 121.794 25.4867 121.196 25.748C120.599 26.0093 119.871 26.14 119.012 26.14ZM127.817 26.14C127.061 26.14 126.328 26.0327 125.619 25.818C124.919 25.6033 124.364 25.3187 123.953 24.964L124.583 23.55C124.984 23.8673 125.474 24.1287 126.053 24.334C126.641 24.53 127.229 24.628 127.817 24.628C128.545 24.628 129.086 24.5113 129.441 24.278C129.805 24.0447 129.987 23.7367 129.987 23.354C129.987 23.074 129.884 22.8453 129.679 22.668C129.483 22.4813 129.231 22.3367 128.923 22.234C128.615 22.1313 128.195 22.0147 127.663 21.884C126.916 21.7067 126.31 21.5293 125.843 21.352C125.386 21.1747 124.989 20.8993 124.653 20.526C124.326 20.1433 124.163 19.63 124.163 18.986C124.163 18.4447 124.308 17.9547 124.597 17.516C124.896 17.068 125.339 16.7133 125.927 16.452C126.524 16.1907 127.252 16.06 128.111 16.06C128.708 16.06 129.296 16.1347 129.875 16.284C130.454 16.4333 130.953 16.648 131.373 16.928L130.799 18.342C130.37 18.09 129.922 17.8987 129.455 17.768C128.988 17.6373 128.536 17.572 128.097 17.572C127.378 17.572 126.842 17.6933 126.487 17.936C126.142 18.1787 125.969 18.5007 125.969 18.902C125.969 19.182 126.067 19.4107 126.263 19.588C126.468 19.7653 126.725 19.9053 127.033 20.008C127.341 20.1107 127.761 20.2273 128.293 20.358C129.021 20.526 129.618 20.7033 130.085 20.89C130.552 21.0673 130.948 21.3427 131.275 21.716C131.611 22.0893 131.779 22.5933 131.779 23.228C131.779 23.7693 131.63 24.2593 131.331 24.698C131.042 25.1367 130.598 25.4867 130.001 25.748C129.404 26.0093 128.676 26.14 127.817 26.14Z" fill="url(#paint4_linear_706_2082)"/>
<path d="M54.076 32.152V35.74H58.552V36.292H54.076V40H53.464V31.6H59.08V32.152H54.076ZM64.4928 40.06C63.6688 40.06 62.9248 39.876 62.2608 39.508C61.5968 39.132 61.0728 38.62 60.6888 37.972C60.3128 37.324 60.1248 36.6 60.1248 35.8C60.1248 35 60.3128 34.276 60.6888 33.628C61.0728 32.98 61.5968 32.472 62.2608 32.104C62.9248 31.728 63.6688 31.54 64.4928 31.54C65.3168 31.54 66.0608 31.724 66.7248 32.092C67.3888 32.46 67.9088 32.968 68.2848 33.616C68.6688 34.264 68.8608 34.992 68.8608 35.8C68.8608 36.608 68.6688 37.336 68.2848 37.984C67.9088 38.632 67.3888 39.14 66.7248 39.508C66.0608 39.876 65.3168 40.06 64.4928 40.06ZM64.4928 39.496C65.1968 39.496 65.8328 39.336 66.4008 39.016C66.9688 38.696 67.4168 38.256 67.7448 37.696C68.0728 37.128 68.2368 36.496 68.2368 35.8C68.2368 35.104 68.0728 34.476 67.7448 33.916C67.4168 33.348 66.9688 32.904 66.4008 32.584C65.8328 32.264 65.1968 32.104 64.4928 32.104C63.7888 32.104 63.1488 32.264 62.5728 32.584C62.0048 32.904 61.5568 33.348 61.2288 33.916C60.9008 34.476 60.7368 35.104 60.7368 35.8C60.7368 36.496 60.9008 37.128 61.2288 37.696C61.5568 38.256 62.0048 38.696 62.5728 39.016C63.1488 39.336 63.7888 39.496 64.4928 39.496ZM74.2715 40.06C73.2075 40.06 72.3795 39.752 71.7875 39.136C71.2035 38.52 70.9115 37.62 70.9115 36.436V31.6H71.5235V36.412C71.5235 37.444 71.7595 38.216 72.2315 38.728C72.7035 39.24 73.3875 39.496 74.2835 39.496C75.1715 39.496 75.8515 39.24 76.3235 38.728C76.7955 38.216 77.0315 37.444 77.0315 36.412V31.6H77.6435V36.436C77.6435 37.62 77.3475 38.52 76.7555 39.136C76.1635 39.752 75.3355 40.06 74.2715 40.06ZM87.3392 31.6V40H86.8352L81.1112 32.704V40H80.4992V31.6H81.0152L86.7272 38.896V31.6H87.3392ZM90.2726 31.6H93.5966C94.4686 31.6 95.2406 31.78 95.9126 32.14C96.5926 32.5 97.1206 33 97.4966 33.64C97.8726 34.272 98.0606 34.992 98.0606 35.8C98.0606 36.608 97.8726 37.332 97.4966 37.972C97.1206 38.604 96.5926 39.1 95.9126 39.46C95.2406 39.82 94.4686 40 93.5966 40H90.2726V31.6ZM93.5486 39.448C94.3246 39.448 95.0086 39.296 95.6006 38.992C96.1926 38.68 96.6486 38.248 96.9686 37.696C97.2886 37.144 97.4486 36.512 97.4486 35.8C97.4486 35.088 97.2886 34.456 96.9686 33.904C96.6486 33.352 96.1926 32.924 95.6006 32.62C95.0086 32.308 94.3246 32.152 93.5486 32.152H90.8846V39.448H93.5486ZM105.265 37.636H100.393L99.3255 40H98.6655L102.529 31.6H103.141L107.005 40H106.345L105.265 37.636ZM105.037 37.12L102.829 32.272L100.633 37.12H105.037ZM109.717 32.152H106.693V31.6H113.353V32.152H110.329V40H109.717V32.152ZM114.87 31.6H115.482V40H114.87V31.6ZM121.973 40.06C121.149 40.06 120.405 39.876 119.741 39.508C119.077 39.132 118.553 38.62 118.169 37.972C117.793 37.324 117.605 36.6 117.605 35.8C117.605 35 117.793 34.276 118.169 33.628C118.553 32.98 119.077 32.472 119.741 32.104C120.405 31.728 121.149 31.54 121.973 31.54C122.797 31.54 123.541 31.724 124.205 32.092C124.869 32.46 125.389 32.968 125.765 33.616C126.149 34.264 126.341 34.992 126.341 35.8C126.341 36.608 126.149 37.336 125.765 37.984C125.389 38.632 124.869 39.14 124.205 39.508C123.541 39.876 122.797 40.06 121.973 40.06ZM121.973 39.496C122.677 39.496 123.313 39.336 123.881 39.016C124.449 38.696 124.897 38.256 125.225 37.696C125.553 37.128 125.717 36.496 125.717 35.8C125.717 35.104 125.553 34.476 125.225 33.916C124.897 33.348 124.449 32.904 123.881 32.584C123.313 32.264 122.677 32.104 121.973 32.104C121.269 32.104 120.629 32.264 120.053 32.584C119.485 32.904 119.037 33.348 118.709 33.916C118.381 34.476 118.217 35.104 118.217 35.8C118.217 36.496 118.381 37.128 118.709 37.696C119.037 38.256 119.485 38.696 120.053 39.016C120.629 39.336 121.269 39.496 121.973 39.496ZM135.304 31.6V40H134.8L129.076 32.704V40H128.464V31.6H128.98L134.692 38.896V31.6H135.304Z" fill="#464646"/>
<defs>
<linearGradient id="paint0_linear_706_2082" x1="21.5" y1="0" x2="21.5" y2="43" gradientUnits="userSpaceOnUse">
<stop stop-color="#D9764E"/>
<stop offset="1" stop-color="#DD6D5C"/>
</linearGradient>
<linearGradient id="paint1_linear_706_2082" x1="21.5" y1="0" x2="21.5" y2="43" gradientUnits="userSpaceOnUse">
<stop stop-color="#D9764E"/>
<stop offset="1" stop-color="#DD6D5C"/>
</linearGradient>
<linearGradient id="paint2_linear_706_2082" x1="21.5" y1="0" x2="21.5" y2="43" gradientUnits="userSpaceOnUse">
<stop stop-color="#D9764E"/>
<stop offset="1" stop-color="#DD6D5C"/>
</linearGradient>
<linearGradient id="paint3_linear_706_2082" x1="21.5" y1="0" x2="21.5" y2="43" gradientUnits="userSpaceOnUse">
<stop stop-color="#D9764E"/>
<stop offset="1" stop-color="#DD6D5C"/>
</linearGradient>
<linearGradient id="paint4_linear_706_2082" x1="52" y1="21.5" x2="137" y2="21.5" gradientUnits="userSpaceOnUse">
<stop stop-color="#D9764E"/>
<stop offset="1" stop-color="#DD6D5C"/>
</linearGradient>
</defs>
</svg>
