<svg width="40" height="40" viewBox="0 0 40 40" fill="none" xmlns="http://www.w3.org/2000/svg">
<mask id="mask0_1211_2463" style="mask-type:alpha" maskUnits="userSpaceOnUse" x="0" y="0" width="40" height="40">
<rect width="40" height="40" rx="10" fill="#D9D9D9"/>
</mask>
<g mask="url(#mask0_1211_2463)">
<path d="M6.66667 30C5.74619 30 5 29.2538 5 28.3333C5 27.4129 5.74619 26.6667 6.66667 26.6667H33.3333C34.2538 26.6667 35 27.4129 35 28.3333C35 29.2538 34.2538 30 33.3333 30H6.66667ZM6.66667 21.6667C5.74619 21.6667 5 20.9205 5 20C5 19.0795 5.74619 18.3333 6.66667 18.3333H33.3333C34.2538 18.3333 35 19.0795 35 20C35 20.9205 34.2538 21.6667 33.3333 21.6667H6.66667ZM6.66667 13.3333C5.74619 13.3333 5 12.5871 5 11.6667C5 10.7462 5.74619 10 6.66667 10H33.3333C34.2538 10 35 10.7462 35 11.6667C35 12.5871 34.2538 13.3333 33.3333 13.3333H6.66667Z" fill="url(#paint0_linear_1211_2463)"/>
</g>
<defs>
<linearGradient id="paint0_linear_1211_2463" x1="20" y1="10" x2="20" y2="30" gradientUnits="userSpaceOnUse">
<stop stop-color="#D9764E"/>
<stop offset="1" stop-color="#DD6D5C"/>
</linearGradient>
</defs>
</svg>
