<svg width="15" height="64" viewBox="0 0 15 64" fill="none" xmlns="http://www.w3.org/2000/svg">
<g id="Frame 427318940">
<g id="help">
<mask id="mask0_1027_664" style="mask-type:alpha" maskUnits="userSpaceOnUse" x="0" y="14" width="15" height="15">
<rect id="Bounding box" y="14" width="15" height="15" fill="#D9D9D9"/>
</mask>
<g mask="url(#mask0_1027_664)">
<path id="help_2" d="M7.46875 25.25C7.6875 25.25 7.8724 25.1745 8.02344 25.0234C8.17448 24.8724 8.25 24.6875 8.25 24.4688C8.25 24.25 8.17448 24.0651 8.02344 23.9141C7.8724 23.763 7.6875 23.6875 7.46875 23.6875C7.25 23.6875 7.0651 23.763 6.91406 23.9141C6.76302 24.0651 6.6875 24.25 6.6875 24.4688C6.6875 24.6875 6.76302 24.8724 6.91406 25.0234C7.0651 25.1745 7.25 25.25 7.46875 25.25ZM6.90625 22.8438H8.0625C8.0625 22.5 8.10156 22.2292 8.17969 22.0312C8.25781 21.8333 8.47917 21.5625 8.84375 21.2188C9.11458 20.9479 9.32812 20.6901 9.48438 20.4453C9.64062 20.2005 9.71875 19.9062 9.71875 19.5625C9.71875 18.9792 9.50521 18.5312 9.07813 18.2188C8.65104 17.9062 8.14583 17.75 7.5625 17.75C6.96875 17.75 6.48698 17.9062 6.11719 18.2188C5.7474 18.5312 5.48958 18.9063 5.34375 19.3438L6.375 19.75C6.42708 19.5625 6.54427 19.3594 6.72656 19.1406C6.90885 18.9219 7.1875 18.8125 7.5625 18.8125C7.89583 18.8125 8.14583 18.9036 8.3125 19.0859C8.47917 19.2682 8.5625 19.4688 8.5625 19.6875C8.5625 19.8958 8.5 20.0911 8.375 20.2734C8.25 20.4557 8.09375 20.625 7.90625 20.7812C7.44792 21.1875 7.16667 21.4948 7.0625 21.7031C6.95833 21.9115 6.90625 22.2917 6.90625 22.8438ZM7.5 27.75C6.63542 27.75 5.82292 27.5859 5.0625 27.2578C4.30208 26.9297 3.64062 26.4844 3.07812 25.9219C2.51562 25.3594 2.07031 24.6979 1.74219 23.9375C1.41406 23.1771 1.25 22.3646 1.25 21.5C1.25 20.6354 1.41406 19.8229 1.74219 19.0625C2.07031 18.3021 2.51562 17.6406 3.07812 17.0781C3.64062 16.5156 4.30208 16.0703 5.0625 15.7422C5.82292 15.4141 6.63542 15.25 7.5 15.25C8.36458 15.25 9.17708 15.4141 9.9375 15.7422C10.6979 16.0703 11.3594 16.5156 11.9219 17.0781C12.4844 17.6406 12.9297 18.3021 13.2578 19.0625C13.5859 19.8229 13.75 20.6354 13.75 21.5C13.75 22.3646 13.5859 23.1771 13.2578 23.9375C12.9297 24.6979 12.4844 25.3594 11.9219 25.9219C11.3594 26.4844 10.6979 26.9297 9.9375 27.2578C9.17708 27.5859 8.36458 27.75 7.5 27.75ZM7.5 26.5C8.89583 26.5 10.0781 26.0156 11.0469 25.0469C12.0156 24.0781 12.5 22.8958 12.5 21.5C12.5 20.1042 12.0156 18.9219 11.0469 17.9531C10.0781 16.9844 8.89583 16.5 7.5 16.5C6.10417 16.5 4.92188 16.9844 3.95313 17.9531C2.98438 18.9219 2.5 20.1042 2.5 21.5C2.5 22.8958 2.98438 24.0781 3.95313 25.0469C4.92188 26.0156 6.10417 26.5 7.5 26.5Z" fill="#6B6461"/>
</g>
</g>
</g>
</svg>
