<svg width="171" height="75" viewBox="0 0 171 75" fill="none" xmlns="http://www.w3.org/2000/svg">
<rect width="171" height="75" fill="white"/>
<path fill-rule="evenodd" clip-rule="evenodd" d="M59.9971 37.8568C59.999 37.7381 60 37.6191 60 37.5C60 25.6259 50.3741 16 38.5 16C29.9805 16 22.6184 20.9552 19.1385 28.1408C19.6861 28.3342 20.3356 28.518 21.1185 28.7398L21.1221 28.7407L21.128 28.7424L21.1311 28.7432L21.4078 28.8216C23.6603 29.4602 26.4614 30.3668 29.2186 33.0819C30.1573 34.0063 30.9352 35.0972 31.5771 36.2855C31.9385 35.9703 32.3639 35.7006 32.8602 35.5443C33.7659 35.2591 34.6753 35.4242 35.4611 35.926C36.1855 36.3884 36.7805 37.1149 37.2906 37.965C39.0264 40.858 41.1598 41.7348 42.4091 41.7348C42.7508 41.7348 43.1014 41.7063 43.5343 41.671L43.7865 41.6506C44.3026 41.6096 44.9201 41.5677 45.5537 41.6085C46.9071 41.6958 48.3592 42.1674 49.5446 43.6492C49.6086 43.7292 49.671 43.8116 49.7319 43.896C50.5646 42.8977 51.5278 42.0146 52.6216 41.3309C55.0511 39.8124 57.2297 38.9568 58.7975 38.3412C59.008 38.2585 59.2075 38.1801 59.3951 38.1051C59.6223 38.0143 59.8218 37.932 59.9971 37.8568ZM35.2307 28.003C35.048 30.1542 33.4466 31.7746 31.654 31.6224C29.8613 31.4701 28.5562 29.6028 28.7389 27.4516C28.9216 25.3004 30.523 23.68 32.3156 23.8322C34.1082 23.9845 35.4134 25.8518 35.2307 28.003ZM48.9044 40.0939C50.5416 40.2784 52.0493 38.8252 52.2722 36.8481C52.4949 34.871 51.3485 33.1187 49.7114 32.9341C48.0742 32.7496 46.5665 34.2029 46.3436 36.1799C46.1208 38.1571 47.2673 39.9094 48.9044 40.0939ZM25.8107 26.1887C25.8972 22.5112 27.049 20.863 28.813 21.2736C30.5769 21.6841 30.1637 23.4589 30.1637 23.4589C29.5101 22.985 28.1719 23.4352 27.5743 26.5989C27.0332 29.4643 24.6724 28.4188 23.6344 27.5537C23.5509 27.4841 23.5152 27.4546 23.5152 27.4546C23.5152 27.4546 23.5178 27.4557 23.5223 27.4586L23.5389 27.4693C23.7787 27.6247 25.747 28.9006 25.8107 26.1887ZM52.2421 30.5542C53.4553 29.8536 54.6784 30.8143 55.5697 33.5165C56.2269 35.5095 57.3969 34.1219 57.5391 33.9533C57.5481 33.9426 57.5533 33.937 57.5533 33.937C57.5533 33.937 57.5477 33.9463 57.5346 33.9659C57.5238 33.9821 57.5082 34.0055 57.4874 34.0372C56.9137 34.911 55.4018 36.2157 54.3567 34.2169C53.2028 32.0098 52.1111 31.9776 51.7341 32.4754C51.7341 32.4754 51.0289 31.2548 52.2421 30.5542ZM43.0897 33.5165C43.9809 30.8143 45.2041 29.8536 46.4173 30.5542C47.6304 31.2548 46.9253 32.4754 46.9253 32.4754C46.5483 31.9776 45.4565 32.0098 44.3027 34.2169C43.2576 36.2157 41.7456 34.911 41.172 34.0372C41.1463 33.998 41.1285 33.9716 41.1179 33.9558C41.1096 33.9432 41.1061 33.937 41.1061 33.937C41.1061 33.937 41.1113 33.9426 41.1203 33.9533C41.2625 34.1219 42.4325 35.5095 43.0897 33.5165Z" fill="#D9764E"/>
<path d="M59.6254 41.5167C58.1296 42.108 56.3477 42.8436 54.3481 44.0933C53.1456 44.8449 52.099 45.9981 51.255 47.3338C51.2904 47.4622 51.3242 47.5908 51.3565 47.7194C51.7394 49.2399 51.9548 50.9082 52.0117 52.4503C52.034 53.0531 52.0326 53.6532 52.0045 54.2305C55.8908 51.0896 58.6605 46.6222 59.6254 41.5167Z" fill="#D9764E"/>
<path d="M46.3089 57.5379C43.8884 58.4819 41.2546 59 38.5 59C36.508 59 34.5792 58.7291 32.7486 58.2221L32.7761 58.1825L32.7912 58.1602C33.0315 57.8043 33.2209 57.3945 33.3743 56.9822C33.9744 55.3693 34.3389 52.8381 34.3879 50.0705C34.4377 47.2686 34.167 44.0644 33.3953 41.0644C33.2786 40.6104 33.1494 40.1577 33.0069 39.709C33.1707 39.4164 33.3284 39.1802 33.4756 38.9985C33.6004 38.8445 33.6961 38.7563 33.7584 38.7071C33.9011 38.816 34.1592 39.0776 34.4973 39.641C36.6706 43.2632 39.7493 44.9924 42.4091 44.9924C42.8957 44.9924 43.3992 44.951 43.8273 44.9155H43.8287L43.8529 44.9136L44.0445 44.8979C44.5506 44.8577 44.9644 44.8349 45.3441 44.8593C46.0172 44.9027 46.5196 45.0826 47.0009 45.6842C47.2449 45.9891 47.4865 46.4275 47.7096 46.9825C47.0215 48.3232 46.5126 49.7121 46.1818 51.0126C45.7382 52.7569 45.5691 54.5124 45.8038 55.9483C45.8859 56.4505 46.0419 57.0152 46.3089 57.5379Z" fill="#D9764E"/>
<path d="M27.757 56.1277C21.3268 52.4112 17 45.4609 17 37.5C17 35.3003 17.3303 33.1777 17.9441 31.1793C18.6359 31.4356 19.3311 31.6271 19.9838 31.8068C20.166 31.8569 20.3447 31.9061 20.5192 31.9556C22.6103 32.5485 24.7679 33.271 26.9329 35.403C27.989 36.443 28.8369 37.8589 29.4875 39.5208C28.2261 42.5236 27.3851 46.8574 27.1036 50.4013C26.9283 52.6084 27.166 54.2613 27.5443 55.5053C27.6118 55.7274 27.6836 55.9348 27.757 56.1277Z" fill="#D9764E"/>
<path d="M73.354 28.14C72.598 28.14 71.8653 28.0327 71.156 27.818C70.456 27.6033 69.9007 27.3187 69.49 26.964L70.12 25.55C70.5213 25.8673 71.0113 26.1287 71.59 26.334C72.178 26.53 72.766 26.628 73.354 26.628C74.082 26.628 74.6233 26.5113 74.978 26.278C75.342 26.0447 75.524 25.7367 75.524 25.354C75.524 25.074 75.4213 24.8453 75.216 24.668C75.02 24.4813 74.768 24.3367 74.46 24.234C74.152 24.1313 73.732 24.0147 73.2 23.884C72.4533 23.7067 71.8467 23.5293 71.38 23.352C70.9227 23.1747 70.526 22.8993 70.19 22.526C69.8633 22.1433 69.7 21.63 69.7 20.986C69.7 20.4447 69.8447 19.9547 70.134 19.516C70.4327 19.068 70.876 18.7133 71.464 18.452C72.0613 18.1907 72.7893 18.06 73.648 18.06C74.2453 18.06 74.8333 18.1347 75.412 18.284C75.9907 18.4333 76.49 18.648 76.91 18.928L76.336 20.342C75.9067 20.09 75.4587 19.8987 74.992 19.768C74.5253 19.6373 74.0727 19.572 73.634 19.572C72.9153 19.572 72.3787 19.6933 72.024 19.936C71.6787 20.1787 71.506 20.5007 71.506 20.902C71.506 21.182 71.604 21.4107 71.8 21.588C72.0053 21.7653 72.262 21.9053 72.57 22.008C72.878 22.1107 73.298 22.2273 73.83 22.358C74.558 22.526 75.1553 22.7033 75.622 22.89C76.0887 23.0673 76.4853 23.3427 76.812 23.716C77.148 24.0893 77.316 24.5933 77.316 25.228C77.316 25.7693 77.1667 26.2593 76.868 26.698C76.5787 27.1367 76.1353 27.4867 75.538 27.748C74.9407 28.0093 74.2127 28.14 73.354 28.14ZM87.8287 18.2V28H86.0087V23.8H80.9407V28H79.1207V18.2H80.9407V22.246H86.0087V18.2H87.8287ZM96.8107 25.732H91.9107L90.9447 28H89.0687L93.4787 18.2H95.2707L99.6947 28H97.7907L96.8107 25.732ZM96.2087 24.304L94.3607 20.02L92.5267 24.304H96.2087ZM104.973 18.2C105.822 18.2 106.56 18.34 107.185 18.62C107.82 18.9 108.305 19.3013 108.641 19.824C108.977 20.3467 109.145 20.9673 109.145 21.686C109.145 22.3953 108.977 23.016 108.641 23.548C108.305 24.0707 107.82 24.472 107.185 24.752C106.56 25.032 105.822 25.172 104.973 25.172H102.761V28H100.941V18.2H104.973ZM104.889 23.632C105.682 23.632 106.284 23.464 106.695 23.128C107.106 22.792 107.311 22.3113 107.311 21.686C107.311 21.0607 107.106 20.58 106.695 20.244C106.284 19.908 105.682 19.74 104.889 19.74H102.761V23.632H104.889ZM110.962 18.2H112.782V28H110.962V18.2ZM124.141 18.2V28H122.643L117.239 21.364V28H115.433V18.2H116.931L122.335 24.836V18.2H124.141ZM133.459 22.988H135.181V26.894C134.677 27.2953 134.089 27.6033 133.417 27.818C132.745 28.0327 132.055 28.14 131.345 28.14C130.347 28.14 129.446 27.9253 128.643 27.496C127.841 27.0573 127.211 26.4553 126.753 25.69C126.296 24.9247 126.067 24.0613 126.067 23.1C126.067 22.1387 126.296 21.2753 126.753 20.51C127.211 19.7447 127.841 19.1473 128.643 18.718C129.455 18.2793 130.365 18.06 131.373 18.06C132.195 18.06 132.941 18.1953 133.613 18.466C134.285 18.7367 134.85 19.1333 135.307 19.656L134.159 20.776C133.413 20.0293 132.512 19.656 131.457 19.656C130.767 19.656 130.151 19.8007 129.609 20.09C129.077 20.3793 128.657 20.7853 128.349 21.308C128.051 21.8307 127.901 22.428 127.901 23.1C127.901 23.7533 128.051 24.3413 128.349 24.864C128.657 25.3867 129.077 25.7973 129.609 26.096C130.151 26.3947 130.762 26.544 131.443 26.544C132.209 26.544 132.881 26.376 133.459 26.04V22.988ZM84.638 32.2L81.39 42H79.458L77.036 34.748L74.572 42H72.626L69.378 32.2H71.268L73.704 39.648L76.238 32.2H77.918L80.396 39.69L82.902 32.2H84.638ZM93.4707 40.474V42H86.1207V32.2H93.2747V33.726H87.9407V36.274H92.6727V37.772H87.9407V40.474H93.4707ZM95.4996 32.2H97.3196V40.46H102.444V42H95.4996V32.2ZM103.88 32.2H105.7V40.46H110.824V42H103.88V32.2ZM120.969 32.2V42H119.471L114.067 35.364V42H112.261V32.2H113.759L119.163 38.836V32.2H120.969ZM130.945 40.474V42H123.595V32.2H130.749V33.726H125.415V36.274H130.147V37.772H125.415V40.474H130.945ZM136.012 42.14C135.256 42.14 134.524 42.0327 133.814 41.818C133.114 41.6033 132.559 41.3187 132.148 40.964L132.778 39.55C133.18 39.8673 133.67 40.1287 134.248 40.334C134.836 40.53 135.424 40.628 136.012 40.628C136.74 40.628 137.282 40.5113 137.636 40.278C138 40.0447 138.182 39.7367 138.182 39.354C138.182 39.074 138.08 38.8453 137.874 38.668C137.678 38.4813 137.426 38.3367 137.118 38.234C136.81 38.1313 136.39 38.0147 135.858 37.884C135.112 37.7067 134.505 37.5293 134.038 37.352C133.581 37.1747 133.184 36.8993 132.848 36.526C132.522 36.1433 132.358 35.63 132.358 34.986C132.358 34.4447 132.503 33.9547 132.792 33.516C133.091 33.068 133.534 32.7133 134.122 32.452C134.72 32.1907 135.448 32.06 136.306 32.06C136.904 32.06 137.492 32.1347 138.07 32.284C138.649 32.4333 139.148 32.648 139.568 32.928L138.994 34.342C138.565 34.09 138.117 33.8987 137.65 33.768C137.184 33.6373 136.731 33.572 136.292 33.572C135.574 33.572 135.037 33.6933 134.682 33.936C134.337 34.1787 134.164 34.5007 134.164 34.902C134.164 35.182 134.262 35.4107 134.458 35.588C134.664 35.7653 134.92 35.9053 135.228 36.008C135.536 36.1107 135.956 36.2273 136.488 36.358C137.216 36.526 137.814 36.7033 138.28 36.89C138.747 37.0673 139.144 37.3427 139.47 37.716C139.806 38.0893 139.974 38.5933 139.974 39.228C139.974 39.7693 139.825 40.2593 139.526 40.698C139.237 41.1367 138.794 41.4867 138.196 41.748C137.599 42.0093 136.871 42.14 136.012 42.14ZM144.817 42.14C144.061 42.14 143.328 42.0327 142.619 41.818C141.919 41.6033 141.364 41.3187 140.953 40.964L141.583 39.55C141.984 39.8673 142.474 40.1287 143.053 40.334C143.641 40.53 144.229 40.628 144.817 40.628C145.545 40.628 146.086 40.5113 146.441 40.278C146.805 40.0447 146.987 39.7367 146.987 39.354C146.987 39.074 146.884 38.8453 146.679 38.668C146.483 38.4813 146.231 38.3367 145.923 38.234C145.615 38.1313 145.195 38.0147 144.663 37.884C143.916 37.7067 143.31 37.5293 142.843 37.352C142.386 37.1747 141.989 36.8993 141.653 36.526C141.326 36.1433 141.163 35.63 141.163 34.986C141.163 34.4447 141.308 33.9547 141.597 33.516C141.896 33.068 142.339 32.7133 142.927 32.452C143.524 32.1907 144.252 32.06 145.111 32.06C145.708 32.06 146.296 32.1347 146.875 32.284C147.454 32.4333 147.953 32.648 148.373 32.928L147.799 34.342C147.37 34.09 146.922 33.8987 146.455 33.768C145.988 33.6373 145.536 33.572 145.097 33.572C144.378 33.572 143.842 33.6933 143.487 33.936C143.142 34.1787 142.969 34.5007 142.969 34.902C142.969 35.182 143.067 35.4107 143.263 35.588C143.468 35.7653 143.725 35.9053 144.033 36.008C144.341 36.1107 144.761 36.2273 145.293 36.358C146.021 36.526 146.618 36.7033 147.085 36.89C147.552 37.0673 147.948 37.3427 148.275 37.716C148.611 38.0893 148.779 38.5933 148.779 39.228C148.779 39.7693 148.63 40.2593 148.331 40.698C148.042 41.1367 147.598 41.4867 147.001 41.748C146.404 42.0093 145.676 42.14 144.817 42.14Z" fill="#D9764E"/>
<path d="M71.076 48.152V51.74H75.552V52.292H71.076V56H70.464V47.6H76.08V48.152H71.076ZM81.4928 56.06C80.6688 56.06 79.9248 55.876 79.2608 55.508C78.5968 55.132 78.0728 54.62 77.6888 53.972C77.3128 53.324 77.1248 52.6 77.1248 51.8C77.1248 51 77.3128 50.276 77.6888 49.628C78.0728 48.98 78.5968 48.472 79.2608 48.104C79.9248 47.728 80.6688 47.54 81.4928 47.54C82.3168 47.54 83.0608 47.724 83.7248 48.092C84.3888 48.46 84.9088 48.968 85.2848 49.616C85.6688 50.264 85.8608 50.992 85.8608 51.8C85.8608 52.608 85.6688 53.336 85.2848 53.984C84.9088 54.632 84.3888 55.14 83.7248 55.508C83.0608 55.876 82.3168 56.06 81.4928 56.06ZM81.4928 55.496C82.1968 55.496 82.8328 55.336 83.4008 55.016C83.9688 54.696 84.4168 54.256 84.7448 53.696C85.0728 53.128 85.2368 52.496 85.2368 51.8C85.2368 51.104 85.0728 50.476 84.7448 49.916C84.4168 49.348 83.9688 48.904 83.4008 48.584C82.8328 48.264 82.1968 48.104 81.4928 48.104C80.7888 48.104 80.1488 48.264 79.5728 48.584C79.0048 48.904 78.5568 49.348 78.2288 49.916C77.9008 50.476 77.7368 51.104 77.7368 51.8C77.7368 52.496 77.9008 53.128 78.2288 53.696C78.5568 54.256 79.0048 54.696 79.5728 55.016C80.1488 55.336 80.7888 55.496 81.4928 55.496ZM91.2715 56.06C90.2075 56.06 89.3795 55.752 88.7875 55.136C88.2035 54.52 87.9115 53.62 87.9115 52.436V47.6H88.5235V52.412C88.5235 53.444 88.7595 54.216 89.2315 54.728C89.7035 55.24 90.3875 55.496 91.2835 55.496C92.1715 55.496 92.8515 55.24 93.3235 54.728C93.7955 54.216 94.0315 53.444 94.0315 52.412V47.6H94.6435V52.436C94.6435 53.62 94.3475 54.52 93.7555 55.136C93.1635 55.752 92.3355 56.06 91.2715 56.06ZM104.339 47.6V56H103.835L98.1112 48.704V56H97.4992V47.6H98.0152L103.727 54.896V47.6H104.339ZM107.273 47.6H110.597C111.469 47.6 112.241 47.78 112.913 48.14C113.593 48.5 114.121 49 114.497 49.64C114.873 50.272 115.061 50.992 115.061 51.8C115.061 52.608 114.873 53.332 114.497 53.972C114.121 54.604 113.593 55.1 112.913 55.46C112.241 55.82 111.469 56 110.597 56H107.273V47.6ZM110.549 55.448C111.325 55.448 112.009 55.296 112.601 54.992C113.193 54.68 113.649 54.248 113.969 53.696C114.289 53.144 114.449 52.512 114.449 51.8C114.449 51.088 114.289 50.456 113.969 49.904C113.649 49.352 113.193 48.924 112.601 48.62C112.009 48.308 111.325 48.152 110.549 48.152H107.885V55.448H110.549ZM122.265 53.636H117.393L116.325 56H115.665L119.529 47.6H120.141L124.005 56H123.345L122.265 53.636ZM122.037 53.12L119.829 48.272L117.633 53.12H122.037ZM126.717 48.152H123.693V47.6H130.353V48.152H127.329V56H126.717V48.152ZM131.87 47.6H132.482V56H131.87V47.6ZM138.973 56.06C138.149 56.06 137.405 55.876 136.741 55.508C136.077 55.132 135.553 54.62 135.169 53.972C134.793 53.324 134.605 52.6 134.605 51.8C134.605 51 134.793 50.276 135.169 49.628C135.553 48.98 136.077 48.472 136.741 48.104C137.405 47.728 138.149 47.54 138.973 47.54C139.797 47.54 140.541 47.724 141.205 48.092C141.869 48.46 142.389 48.968 142.765 49.616C143.149 50.264 143.341 50.992 143.341 51.8C143.341 52.608 143.149 53.336 142.765 53.984C142.389 54.632 141.869 55.14 141.205 55.508C140.541 55.876 139.797 56.06 138.973 56.06ZM138.973 55.496C139.677 55.496 140.313 55.336 140.881 55.016C141.449 54.696 141.897 54.256 142.225 53.696C142.553 53.128 142.717 52.496 142.717 51.8C142.717 51.104 142.553 50.476 142.225 49.916C141.897 49.348 141.449 48.904 140.881 48.584C140.313 48.264 139.677 48.104 138.973 48.104C138.269 48.104 137.629 48.264 137.053 48.584C136.485 48.904 136.037 49.348 135.709 49.916C135.381 50.476 135.217 51.104 135.217 51.8C135.217 52.496 135.381 53.128 135.709 53.696C136.037 54.256 136.485 54.696 137.053 55.016C137.629 55.336 138.269 55.496 138.973 55.496ZM152.304 47.6V56H151.8L146.076 48.704V56H145.464V47.6H145.98L151.692 54.896V47.6H152.304Z" fill="#464646"/>
</svg>
