<svg width="50" height="50" viewBox="0 0 50 50" fill="none" xmlns="http://www.w3.org/2000/svg">
<g id="calendar-heart 1">
<path id="Vector" d="M6.25 20.8333H43.75V12.4999C43.75 11.3948 43.311 10.335 42.5296 9.55364C41.7482 8.77224 40.6884 8.33325 39.5833 8.33325H10.4167C9.3116 8.33325 8.25179 8.77224 7.47039 9.55364C6.68899 10.335 6.25 11.3948 6.25 12.4999V41.6666C6.25 42.7717 6.68899 43.8315 7.47039 44.6129C8.25179 45.3943 9.3116 45.8333 10.4167 45.8333H25" stroke="#2F2F2F" stroke-width="2" stroke-linecap="round" stroke-linejoin="round"/>
<path id="Vector_2" d="M16.666 4.1665V12.4998" stroke="#2F2F2F" stroke-width="2" stroke-linecap="round" stroke-linejoin="round"/>
<path id="Vector_3" d="M33.334 4.1665V12.4998" stroke="#2F2F2F" stroke-width="2" stroke-linecap="round" stroke-linejoin="round"/>
<path id="Vector_4" d="M44.3549 30.6248C43.645 29.9184 42.7416 29.4385 41.7588 29.2456C40.7761 29.0528 39.7583 29.1557 38.8341 29.5415C38.2091 29.7915 37.6466 30.1665 37.1674 30.6457L36.4591 31.354L35.7299 30.6457C35.0223 29.9358 34.12 29.4519 33.1371 29.2553C32.1543 29.0587 31.1353 29.1583 30.2091 29.5415C29.5841 29.7915 29.0424 30.1665 28.5632 30.6457C26.5841 32.604 26.4799 35.9165 28.9799 38.4373L36.4591 45.8332L43.9591 38.4373C46.4591 35.9165 46.3341 32.604 44.3549 30.6457V30.6248Z" stroke="#2F2F2F" stroke-width="2" stroke-linecap="round" stroke-linejoin="round"/>
</g>
</svg>
