<svg width="12" height="13" viewBox="0 0 12 13" fill="none" xmlns="http://www.w3.org/2000/svg">
<path d="M6 9C6.27614 9 6.5 8.77614 6.5 8.5C6.5 8.22386 6.27614 8 6 8C5.72386 8 5.5 8.22386 5.5 8.5C5.5 8.77614 5.72386 9 6 9Z" stroke="#6B6461" stroke-width="2" stroke-linecap="round" stroke-linejoin="round"/>
<path d="M9.11111 7H2.88889C2.39797 7 2 7.29848 2 7.66667V10.3333C2 10.7015 2.39797 11 2.88889 11H9.11111C9.60203 11 10 10.7015 10 10.3333V7.66667C10 7.29848 9.60203 7 9.11111 7Z" fill="#6B6461" stroke="#6B6461" stroke-width="2" stroke-linecap="round" stroke-linejoin="round"/>
<path d="M4 6V4.5C4 3.83696 4.21071 3.20107 4.58579 2.73223C4.96086 2.26339 5.46957 2 6 2C6.53043 2 7.03914 2.26339 7.41421 2.73223C7.78929 3.20107 8 3.83696 8 4.5V6" stroke="#6B6461" stroke-width="2" stroke-linecap="round" stroke-linejoin="round"/>
</svg>
