<svg width="50" height="50" viewBox="0 0 50 50" fill="none" xmlns="http://www.w3.org/2000/svg">
<g id="mailbox 1">
<path id="Vector" d="M45.8327 35.4165C45.8327 36.5216 45.3937 37.5814 44.6123 38.3628C43.8309 39.1442 42.7711 39.5832 41.666 39.5832H8.33268C7.22761 39.5832 6.16781 39.1442 5.3864 38.3628C4.605 37.5814 4.16602 36.5216 4.16602 35.4165V19.7915C4.16602 14.5832 8.33268 10.4165 13.541 10.4165H37.4994C42.0827 10.4165 45.8327 14.1665 45.8327 18.7498V35.4165Z" stroke="#2F2F2F" stroke-width="2" stroke-linecap="round" stroke-linejoin="round"/>
<path id="Vector_2" d="M31.25 18.75H37.5V22.9167" stroke="#2F2F2F" stroke-width="2" stroke-linecap="round" stroke-linejoin="round"/>
<path id="Vector_3" d="M13.541 10.4165C18.7493 10.4165 22.916 14.5832 22.916 19.7915V35.4165C22.916 36.5216 22.477 37.5814 21.6956 38.3628C20.9142 39.1442 19.8544 39.5832 18.7493 39.5832" stroke="#2F2F2F" stroke-width="2" stroke-linecap="round" stroke-linejoin="round"/>
<path id="Vector_4" d="M12.5 20.8333H14.5833" stroke="#2F2F2F" stroke-width="2" stroke-linecap="round" stroke-linejoin="round"/>
</g>
</svg>
