<svg width="50" height="51" viewBox="0 0 50 51" fill="none" xmlns="http://www.w3.org/2000/svg">
<g id="phone-call 1">
<path id="Vector" d="M45.834 35.75V42C45.8363 42.5802 45.7175 43.1546 45.485 43.6862C45.2526 44.2178 44.9117 44.695 44.4841 45.0873C44.0566 45.4795 43.5518 45.7781 43.0022 45.964C42.4526 46.1499 41.8702 46.2189 41.2923 46.1667C34.8815 45.4701 28.7235 43.2795 23.3131 39.7709C18.2794 36.5723 14.0118 32.3046 10.8131 27.2709C7.29225 21.8359 5.10114 15.6479 4.4173 9.20837C4.36524 8.63226 4.43371 8.05162 4.61834 7.50342C4.80298 6.95522 5.09974 6.45148 5.48973 6.02425C5.87972 5.59702 6.35439 5.25568 6.88353 5.02196C7.41267 4.78824 7.98468 4.66725 8.56313 4.66671H14.8131C15.8242 4.65675 16.8044 5.01479 17.571 5.67407C18.3376 6.33334 18.8383 7.24889 18.9798 8.25004C19.2436 10.2502 19.7328 12.2141 20.4381 14.1042C20.7184 14.8499 20.7791 15.6603 20.6129 16.4394C20.4468 17.2185 20.0608 17.9336 19.5006 18.5L16.8548 21.1459C19.8205 26.3616 24.1391 30.6801 29.3548 33.6459L32.0006 31C32.5671 30.4399 33.2822 30.0539 34.0613 29.8877C34.8404 29.7216 35.6508 29.7822 36.3965 30.0625C38.2866 30.7679 40.2505 31.2571 42.2506 31.5209C43.2626 31.6636 44.1869 32.1734 44.8476 32.9532C45.5083 33.7329 45.8593 34.7283 45.834 35.75Z" stroke="#2F2F2F" stroke-width="2" stroke-linecap="round" stroke-linejoin="round"/>
<path id="Vector_2" d="M29.2715 4.6665C33.5179 5.11394 37.4843 6.99733 40.5149 10.0052C43.5456 13.0131 45.4588 16.9653 45.9381 21.2082" stroke="#2F2F2F" stroke-width="2" stroke-linecap="round" stroke-linejoin="round"/>
<path id="Vector_3" d="M29.2715 13C31.3205 13.404 33.2007 14.4146 34.6681 15.9006C36.1355 17.3866 37.1224 19.2794 37.5007 21.3333" stroke="#2F2F2F" stroke-width="2" stroke-linecap="round" stroke-linejoin="round"/>
</g>
</svg>
