<svg width="60" height="60" viewBox="0 0 60 60" fill="none" xmlns="http://www.w3.org/2000/svg">
<g id="hand-heart 1">
<path id="Vector" d="M27.5 35L33 34C35.5 33.5 36 33.5 38.5 33C43 31.5 41 28.5 37.5 28.5C29 28.5 31.5 27 24 27C22.3112 27 21 28.5 19 30L7.5 40" stroke="#2F2F2F" stroke-width="2" stroke-linecap="round" stroke-linejoin="round"/>
<path id="Vector_2" d="M17.5 49.9997L21.5 46.4997C22.25 45.4997 23.5 44.9997 25 44.9997H35C37.75 44.9997 40.25 43.9997 42 41.9997L53.5 30.9997C54.4647 30.0881 53 31.5 56.5 28C60 24.5 55.5 21.5 52 24.4997C48.5 27.4995 49.0619 27.2034 48 27.9998C40 34 39.5 33.5 27.5 35" stroke="#2F2F2F" stroke-width="2" stroke-linecap="round" stroke-linejoin="round"/>
<path id="Vector_3" d="M5 37.5L20 52.5" stroke="#2F2F2F" stroke-width="2" stroke-linecap="round" stroke-linejoin="round"/>
<path id="Vector_4" d="M46.2738 14.9395C47.5312 13.7275 48.9682 12.1691 48.9682 10.2643C49.0938 9.20623 48.845 8.13826 48.2622 7.23349C47.6794 6.32872 46.7967 5.64017 45.7572 5.27943C44.7177 4.9187 43.5823 4.9069 42.535 5.24597C41.4876 5.58503 40.5898 6.25508 39.9869 7.14754C39.3457 6.32433 38.4476 5.72095 37.4244 5.426C36.4013 5.13104 35.307 5.16004 34.3022 5.50873C33.2974 5.85742 32.435 6.50744 31.8417 7.36337C31.2484 8.21929 30.9553 9.23604 31.0055 10.2643C31.0055 12.3422 32.4425 13.7275 33.6999 15.1127L39.9869 21L46.2738 14.9395Z" stroke="#2F2F2F" stroke-width="2" stroke-linecap="round" stroke-linejoin="round"/>
</g>
</svg>
