<svg width="60" height="47" viewBox="0 0 60 47" fill="none" xmlns="http://www.w3.org/2000/svg">
<g id="Frame 427319018">
<path id="Vector 2" d="M47.8012 32.3464L48.3827 33.16L47.8012 32.3464ZM27.8522 13.7162L28.5593 14.4234L28.5158 14.4669L28.4673 14.5047L27.8522 13.7162ZM39.3961 8.19176L39.8698 7.31108L39.3961 8.19176ZM32.1712 9.89198L32.8457 10.6303L32.1712 9.89198ZM42.8201 34.7599L42.3748 33.8645L42.4279 33.8381L42.4837 33.8182L42.8201 34.7599ZM23.1785 17.3623L22.5483 16.586L22.5558 16.5798L22.5634 16.5739L23.1785 17.3623ZM34.017 15.5564C34.4094 15.1677 35.0425 15.1707 35.4312 15.5631C35.8199 15.9554 35.8169 16.5886 35.4246 16.9773L34.017 15.5564ZM39.3961 8.19176L39.8698 7.31108C42.0673 8.49313 43.5518 9.38756 44.6136 9.9912C45.7087 10.6138 46.2958 10.8895 46.8305 10.9932C47.3323 11.0904 47.8763 11.0512 48.9112 10.8009C49.9795 10.5424 51.3461 10.1215 53.5668 9.52643L53.8256 10.4924L54.0844 11.4583C51.975 12.0235 50.4652 12.4826 49.3815 12.7448C48.2643 13.0151 47.3807 13.137 46.4499 12.9566C45.5521 12.7826 44.7017 12.3419 43.6252 11.7299C42.5153 11.0989 41.0941 10.2406 38.9223 9.07244L39.3961 8.19176ZM53.8256 10.4924L53.5668 9.52643C56.5612 8.72408 55.7074 9.04345 57.1838 8.55132L57.5 9.5L57.8162 10.4487C56.2926 10.9566 56.8383 10.7204 54.0844 11.4583L53.8256 10.4924ZM27.8522 13.7162L27.1451 13.0091C28.2295 11.9248 28.692 11.5322 29.2158 11.1105C29.7029 10.7182 30.2323 10.3087 31.4967 9.15367L32.1712 9.89198L32.8457 10.6303C31.535 11.8276 30.9675 12.2677 30.4702 12.6682C30.0095 13.0392 29.6 13.3826 28.5593 14.4234L27.8522 13.7162ZM32.1712 9.89198L31.4967 9.15367C32.6814 8.07148 34.3345 7.40523 35.8289 7.09656C36.5855 6.94027 37.3363 6.86811 38.0103 6.89006C38.6626 6.91132 39.3349 7.02338 39.8698 7.31108L39.3961 8.19176L38.9223 9.07244C38.7775 8.99456 38.4593 8.90575 37.9451 8.889C37.4525 8.87295 36.8607 8.92564 36.2335 9.05521C34.9601 9.31824 33.6805 9.86768 32.8457 10.6303L32.1712 9.89198ZM57.5 28C57.9946 28.8691 57.9942 28.8694 57.9937 28.8696C57.9936 28.8697 57.9931 28.87 57.9928 28.8701C57.9922 28.8705 57.9916 28.8708 57.9909 28.8712C57.9896 28.8719 57.9883 28.8727 57.987 28.8734C57.9843 28.8749 57.9814 28.8765 57.9784 28.8782C57.9724 28.8815 57.9656 28.8851 57.9582 28.889C57.9433 28.8969 57.9253 28.9061 57.9039 28.9168C57.861 28.938 57.8033 28.9652 57.7269 28.9989C57.5743 29.0662 57.3426 29.1613 56.9987 29.2876C56.3117 29.5399 55.1619 29.9223 53.2747 30.4615L53 29.5L52.7253 28.5385C54.582 28.008 55.6822 27.6405 56.3092 27.4102C56.6223 27.2952 56.8137 27.2158 56.9199 27.169C56.9728 27.1456 57.0034 27.1309 57.0165 27.1244C57.023 27.1212 57.025 27.1201 57.023 27.1211C57.022 27.1217 57.02 27.1228 57.017 27.1244C57.0156 27.1252 57.0138 27.1261 57.0119 27.1272C57.0109 27.1278 57.0099 27.1283 57.0088 27.1289C57.0083 27.1293 57.0077 27.1296 57.0071 27.1299C57.0068 27.1301 57.0064 27.1303 57.0063 27.1304C57.0058 27.1306 57.0054 27.1309 57.5 28ZM53 29.5L53.2747 30.4615C51.4661 30.9783 50.592 31.4267 50.0368 31.8099C49.7538 32.0052 49.5332 32.1973 49.2822 32.4202C49.0355 32.6393 48.7478 32.899 48.3827 33.16L47.8012 32.3464L47.2197 31.5329C47.4841 31.3439 47.6931 31.1565 47.9542 30.9247C48.2111 30.6966 48.5095 30.4339 48.9008 30.1639C49.6943 29.6162 50.79 29.0914 52.7253 28.5385L53 29.5ZM47.8012 32.3464L48.3827 33.16C46.9953 34.1517 45.2506 34.9536 43.1565 35.7016L42.8201 34.7599L42.4837 33.8182C44.502 33.0972 46.0495 32.3693 47.2197 31.5329L47.8012 32.3464ZM27.8522 13.7162L28.4673 14.5047L23.7936 18.1508L23.1785 17.3623L22.5634 16.5739L27.2371 12.9278L27.8522 13.7162ZM23.1785 17.3623L23.8088 18.1387C23.1671 18.6596 22.743 19.0984 22.4789 19.4541C22.2109 19.8148 22.1445 20.04 22.1329 20.1425C22.1251 20.2112 22.1369 20.2301 22.1611 20.2598C22.2062 20.3154 22.3261 20.4173 22.5871 20.5175C23.1155 20.7202 23.9463 20.8097 24.892 20.7269C25.8254 20.6452 26.7603 20.4051 27.4747 20.0478L27.922 20.9422L28.3693 21.8366C27.3839 22.3294 26.1938 22.6206 25.0663 22.7193C23.9512 22.8169 22.7854 22.7357 21.8706 22.3848C21.4101 22.2081 20.9469 21.9374 20.6084 21.5205C20.249 21.0778 20.0768 20.5244 20.1457 19.917C20.2107 19.3434 20.4818 18.7886 20.8732 18.2616C21.2684 17.7295 21.8256 17.1726 22.5483 16.586L23.1785 17.3623ZM27.922 20.9422L27.4747 20.0478C30.8058 18.3821 31.9855 17.569 34.017 15.5564L34.7208 16.2669L35.4246 16.9773C33.2061 19.175 31.8376 20.1022 28.3693 21.8366L27.922 20.9422ZM42.8201 34.7599L43.2655 35.6553L36.8662 38.838L36.4209 37.9426L35.9756 37.0472L42.3748 33.8645L42.8201 34.7599Z" fill="#2F2F2F"/>
<path id="Vector 5" d="M14.1233 32.7846L14.712 31.9763L14.1233 32.7846ZM32.5466 35.0317L32.194 35.9675L32.2022 35.9706L32.2104 35.9735L32.5466 35.0317ZM18.4852 10.1828L18.9508 11.0678L18.4852 10.1828ZM25.4928 9.48727L25.843 8.55059L25.4928 9.48727ZM7 29L7.37967 28.0749L7.36548 28.0691L7.35112 28.0637L7 29ZM40.497 24.9603L40.1582 25.9012L40.1649 25.9036L40.1716 25.9059L40.497 24.9603ZM38.4749 30.7047L38.0955 31.6299L38.1086 31.6353L38.1218 31.6403L38.4749 30.7047ZM31.2195 39.9358L31.5319 38.9859L31.5309 38.9855L31.2195 39.9358ZM19.7304 36.0251L19.3075 36.9313L19.3455 36.949L19.3848 36.9635L19.7304 36.0251ZM25.9959 38.2243L25.6777 39.1724L25.6846 39.1746L25.9959 38.2243ZM29.8388 20.0592C29.3192 19.872 28.7463 20.1416 28.5591 20.6612C28.372 21.1808 28.6416 21.7537 29.1612 21.9408L29.8388 20.0592ZM27.3794 25.0747C26.8683 24.8652 26.2843 25.1096 26.0747 25.6206C25.8652 26.1317 26.1096 26.7157 26.6206 26.9253L27.3794 25.0747ZM24.8526 31.0642C24.3358 30.8695 23.7589 31.1306 23.5642 31.6474C23.3695 32.1642 23.6306 32.7411 24.1474 32.9358L24.8526 31.0642ZM41.2307 31.5907L40.9633 32.5542C42.1675 32.8885 43.2516 32.6635 44.0965 32.0617C44.9116 31.481 45.4365 30.6009 45.6914 29.7069C45.946 28.814 45.9589 27.8131 45.6394 26.932C45.3105 26.0251 44.617 25.2344 43.5205 24.9301L43.2531 25.8937L42.9856 26.8572C43.3634 26.9621 43.6149 27.216 43.7592 27.6138C43.9128 28.0375 43.9269 28.6015 43.7681 29.1584C43.6096 29.7142 43.3064 30.1689 42.9361 30.4327C42.5955 30.6753 42.1368 30.8044 41.4981 30.6271L41.2307 31.5907ZM43.308 19.849L43.6674 18.9158C41.9636 18.2595 39.9068 17.5026 38.147 16.88C36.4189 16.2688 34.898 15.7584 34.3178 15.6256L34.0948 16.6004L33.8717 17.5752C34.3124 17.6761 35.7038 18.1373 37.48 18.7656C39.2243 19.3826 41.2637 20.1331 42.9485 20.7822L43.308 19.849ZM18.4852 10.1828L18.0196 9.29782C16.4856 10.1049 15.4793 10.7605 14.7342 11.2264C13.9691 11.7048 13.5713 11.9189 13.1456 12.0122C12.7325 12.1026 12.1955 12.0969 11.1556 11.8846C10.1116 11.6715 8.67963 11.2778 6.50545 10.6744L6.23802 11.638L5.97058 12.6015C8.11591 13.197 9.62729 13.6139 10.7556 13.8442C11.8878 14.0754 12.7518 14.1458 13.5734 13.9659C14.3823 13.7887 15.0528 13.386 15.7947 12.9221C16.5566 12.4457 17.4958 11.8333 18.9508 11.0678L18.4852 10.1828ZM6.23802 11.638L6.50545 10.6744C4.65013 10.1594 3.90693 9.98233 3.49632 9.91831C3.26224 9.8818 3.11814 9.87991 3.03021 9.87551C2.97312 9.87266 2.89337 9.86804 2.68523 9.82881L2.5 10.8115L2.31477 11.7942C2.60664 11.8492 2.77688 11.8653 2.93035 11.873C3.05299 11.8791 3.08001 11.8776 3.18818 11.8944C3.46208 11.9371 4.08788 12.079 5.97058 12.6015L6.23802 11.638ZM25.4928 9.48727L25.843 8.55059C23.8577 7.80838 22.1904 7.82375 20.8462 8.13257C19.5304 8.43486 18.5472 9.02021 18.0196 9.29782L18.4852 10.1828L18.9508 11.0678C19.562 10.7462 20.288 10.3129 21.2941 10.0818C22.2717 9.85719 23.5388 9.82437 25.1426 10.424L25.4928 9.48727ZM2.5 27.5L2.25746 28.4701C3.35973 28.7457 3.3519 28.7131 3.68377 28.8237C4.03584 28.941 4.61586 29.1739 6.64888 29.9363L7 29L7.35112 28.0637C5.38414 27.326 4.71416 27.059 4.31623 26.9263C3.8981 26.7869 3.64027 26.7543 2.74254 26.5299L2.5 27.5ZM7 29L6.62033 29.9251C10.8758 31.6715 12.3444 32.7261 13.5345 33.5929L14.1233 32.7846L14.712 31.9763C13.4002 31.0208 11.7921 29.8857 7.37967 28.0749L7 29ZM43.2531 25.8937L43.5205 24.9301C43.3917 24.8943 43.1802 24.8261 40.8224 24.0147L40.497 24.9603L40.1716 25.9059C42.4801 26.7003 42.7802 26.8002 42.9856 26.8572L43.2531 25.8937ZM40.497 24.9603L40.1716 25.9059C42.766 26.7987 44.8497 25.6219 45.6641 23.8582C46.0589 23.0034 46.1559 22.002 45.8375 21.0771C45.5112 20.1295 44.7753 19.3426 43.6674 18.9158L43.308 19.849L42.9485 20.7822C43.535 21.0081 43.8224 21.368 43.9464 21.7282C44.0782 22.111 44.0523 22.5782 43.8484 23.0197C43.4656 23.8486 42.4495 24.5747 40.8224 24.0147L40.497 24.9603ZM41.2307 31.5907L41.4981 30.6271C41.061 30.5058 40.093 30.1917 38.7922 29.7564L38.4749 30.7047L38.1575 31.653C39.4421 32.0829 40.465 32.416 40.9633 32.5542L41.2307 31.5907ZM36.0735 36.1711L36.3568 35.2121C34.5443 34.6767 33.7852 34.434 33.4332 34.3102C33.2662 34.2515 33.2042 34.2242 33.1675 34.2076C33.1164 34.1846 33.0294 34.1423 32.8828 34.0899L32.5466 35.0317L32.2104 35.9735C32.2633 35.9924 32.2643 35.9943 32.346 36.0311C32.442 36.0744 32.5577 36.1224 32.7697 36.197C33.1759 36.3398 33.9807 36.5956 35.7902 37.1301L36.0735 36.1711ZM38.4749 30.7047L38.1218 31.6403C38.8634 31.9201 39.1778 32.3196 39.3021 32.6648C39.4344 33.0321 39.4058 33.4903 39.1831 33.9549C38.7288 34.9023 37.6239 35.5864 36.3568 35.2121L36.0735 36.1711L35.7902 37.1301C38.145 37.8257 40.1773 36.5074 40.9865 34.8195C41.3955 33.9665 41.5302 32.9488 41.1837 31.987C40.8293 31.003 40.0229 30.22 38.828 29.7691L38.4749 30.7047ZM31.2195 39.9358L30.9071 40.8858C32.2838 41.3386 33.5006 41.3837 34.4958 41.063C35.5053 40.7378 36.2316 40.0489 36.5746 39.18C37.2667 37.4273 36.3009 35.3754 34.1771 34.5572L33.8176 35.4904L33.4581 36.4235C34.7229 36.9107 34.9317 37.895 34.7144 38.4455C34.6028 38.7282 34.3533 39.0077 33.8824 39.1594C33.3972 39.3158 32.6289 39.3467 31.5319 38.9859L31.2195 39.9358ZM14.1233 32.7846L13.5345 33.5929C14.5071 34.3013 14.9591 34.6975 15.611 35.0947C16.2777 35.501 17.2097 35.9523 19.3075 36.9313L19.7304 36.0251L20.1533 35.119C18.0184 34.1226 17.2026 33.7225 16.6517 33.3869C16.0861 33.0422 15.8508 32.8057 14.712 31.9763L14.1233 32.7846ZM19.7304 36.0251L19.3848 36.9635C21.4033 37.7069 23.558 38.4608 25.6777 39.1724L25.9959 38.2243L26.3142 37.2763C24.21 36.57 22.0738 35.8225 20.076 35.0867L19.7304 36.0251ZM31.2195 39.9358L31.5309 38.9855L26.3073 37.274L25.9959 38.2243L25.6846 39.1746L30.9081 40.8861L31.2195 39.9358ZM40.497 24.9603L40.8358 24.0195L29.8388 20.0592L29.5 21L29.1612 21.9408L40.1582 25.9012L40.497 24.9603ZM38.4749 30.7047L38.8542 29.7794L27.3794 25.0747L27 26L26.6206 26.9253L38.0955 31.6299L38.4749 30.7047ZM32.5466 35.0317L32.8992 34.0959L24.8526 31.0642L24.5 32L24.1474 32.9358L32.194 35.9675L32.5466 35.0317ZM31.0059 10.8115L31.0148 9.81155C29.9211 9.80178 27.7333 9.25728 25.843 8.55059L25.4928 9.48727L25.1426 10.424C27.0832 11.1494 29.5407 11.7985 30.9969 11.8115L31.0059 10.8115Z" fill="#2F2F2F"/>
<path id="Vector" d="M2.60742 8.5V30.5" stroke="#2F2F2F" stroke-width="2" stroke-linecap="round" stroke-linejoin="round"/>
<path id="Vector_2" d="M57.6074 7L57.6074 30.5" stroke="#2F2F2F" stroke-width="2" stroke-linecap="round" stroke-linejoin="round"/>
</g>
</svg>
