<svg width="65" height="63" viewBox="0 0 65 63" fill="none" xmlns="http://www.w3.org/2000/svg">
<g id="users 1">
<path id="Vector" d="M44.4184 54.4865V51.0811C44.4184 49.2747 43.7008 47.5424 42.4236 46.2651C41.1463 44.9878 39.4139 44.2703 37.6076 44.2703H27.3914C25.585 44.2703 23.8527 44.9878 22.5754 46.2651C21.2981 47.5424 20.5806 49.2747 20.5806 51.0811V54.4865" stroke="#2F2F2F" stroke-width="2" stroke-linecap="round" stroke-linejoin="round"/>
<path id="Vector_2" d="M26.0297 43.7144C26.0297 42.1231 25.4454 41.4541 24.4053 40.3289C23.3653 39.2037 21.9546 38.5715 20.4838 38.5715H12.1648C10.694 38.5715 9.28333 39.2037 8.24327 40.3289C7.2032 41.4541 6.6189 42.9802 6.6189 44.5715V47.5715" stroke="#2F2F2F" stroke-width="2" stroke-linecap="round" stroke-linejoin="round"/>
<path id="Vector_3" d="M58.3811 47.5715V44.5715C58.3811 42.9802 57.7968 41.4541 56.7568 40.3289C55.7167 39.2037 54.3061 38.5715 52.8352 38.5715H44.5163C43.0454 38.5715 41.6348 39.2037 40.5947 40.3289C39.5546 41.4541 38.9703 42.1231 38.9703 43.7144" stroke="#2F2F2F" stroke-width="2" stroke-linecap="round" stroke-linejoin="round"/>
<path id="Vector_4" d="M32.4994 37.4595C36.2609 37.4595 39.3102 34.4102 39.3102 30.6487C39.3102 26.8872 36.2609 23.8379 32.4994 23.8379C28.7379 23.8379 25.6886 26.8872 25.6886 30.6487C25.6886 34.4102 28.7379 37.4595 32.4994 37.4595Z" stroke="#2F2F2F" stroke-width="2" stroke-linecap="round" stroke-linejoin="round"/>
<path id="Vector_5" d="M16.3243 33.4286C19.5404 33.4286 22.1476 30.8383 22.1476 27.6429C22.1476 24.4475 19.5404 21.8572 16.3243 21.8572C13.1083 21.8572 10.5011 24.4475 10.5011 27.6429C10.5011 30.8383 13.1083 33.4286 16.3243 33.4286Z" stroke="#2F2F2F" stroke-width="2" stroke-linecap="round" stroke-linejoin="round"/>
<path id="Vector_6" d="M48.6757 33.4286C51.8917 33.4286 54.4989 30.8383 54.4989 27.6429C54.4989 24.4475 51.8917 21.8572 48.6757 21.8572C45.4596 21.8572 42.8524 24.4475 42.8524 27.6429C42.8524 30.8383 45.4596 33.4286 48.6757 33.4286Z" stroke="#2F2F2F" stroke-width="2" stroke-linecap="round" stroke-linejoin="round"/>
<path id="Vector_7" d="M36.5313 13.4547C37.4395 12.5456 38.4773 11.3768 38.4773 9.94826C38.568 9.15468 38.3883 8.35369 37.9674 7.67512C37.5465 6.99654 36.909 6.48013 36.1582 6.20958C35.4075 5.93902 34.5874 5.93018 33.831 6.18448C33.0746 6.43877 32.4262 6.94131 31.9908 7.61065C31.5277 6.99324 30.879 6.54071 30.1401 6.3195C29.4012 6.09828 28.6108 6.12003 27.8852 6.38155C27.1595 6.64307 26.5367 7.13058 26.1081 7.77253C25.6796 8.41447 25.468 9.17703 25.5042 9.94826C25.5042 11.5067 26.5421 12.5456 27.4502 13.5845L31.9908 18L36.5313 13.4547Z" stroke="#2F2F2F" stroke-width="2" stroke-linecap="round" stroke-linejoin="round"/>
</g>
</svg>
