<svg width="31" height="31" viewBox="0 0 31 31" fill="none" xmlns="http://www.w3.org/2000/svg">
<g id="facebook 1">
<path id="Facebook" d="M19.7559 1.83333C20.8703 1.83333 21.4747 1.96333 22.0352 2.12825L22.1934 2.18196C22.9691 2.48163 23.5 3.23488 23.5 4.08333V6.46809C23.4999 7.6829 22.4787 8.49121 21.4033 8.46321L21.1875 8.44661C20.9703 8.41809 20.7249 8.40072 20.3291 8.40071C19.8517 8.40071 19.5626 8.4725 19.3623 8.56575C19.2154 8.63416 19.0753 8.73265 18.9229 8.88899L18.7656 9.06575C18.435 9.46651 18.1494 10.3453 18.1494 11.9876V12.5452H21.123C22.4396 12.5452 23.3849 13.7896 23.0605 15.0423L23.0254 15.1634L22.2402 17.5765C21.9723 18.4003 21.2041 18.9583 20.3379 18.9583H18.1494V27.8333C18.1494 28.9377 17.2538 29.8331 16.1494 29.8333H13.4248C12.3202 29.8333 11.4248 28.9379 11.4248 27.8333V18.9486H9.5C8.39543 18.9486 7.5 18.0531 7.5 16.9486V14.5355C7.5 13.4309 8.39543 12.5355 9.5 12.5355H11.4248V11.929C11.4249 8.84405 12.029 6.30604 13.4395 4.52473C14.8853 2.69881 17.0434 1.83343 19.7559 1.83333Z" stroke="#2F2F2F" stroke-width="2"/>
</g>
</svg>
