<svg width="29" height="29" viewBox="0 0 29 29" fill="none" xmlns="http://www.w3.org/2000/svg">
<path d="M28.2755 7.52542C28.083 5.6855 27.3774 4.05953 26.0088 2.75447C24.5761 1.38523 22.8012 0.764795 20.8766 0.657823C17.5835 0.486668 9.77828 0.358302 7.01974 0.807584C3.87628 1.32105 1.82341 3.13957 0.968047 6.24176C0.305141 8.61653 0.433446 19.6132 0.818359 21.9666C1.35296 25.1972 3.25614 27.251 6.44237 28.0854C8.64493 28.6631 19.508 28.5775 21.9458 28.1924C25.1748 27.6789 27.2491 25.7748 28.083 22.5871C28.7246 20.1481 28.4893 9.72904 28.2755 7.52542ZM26.3184 21.9452C25.9334 24.3842 23.7775 25.9143 21.3184 26.1924C19.0516 26.4491 8.914 26.77 6.81836 26.1924C4.80826 25.6361 3.1605 23.721 2.81836 21.7099C2.4976 19.7844 2.41206 10.1141 2.81836 7.52542C3.18189 5.10786 5.38058 3.0326 7.81836 2.75447C10.2989 2.47635 19.2942 2.39077 21.6892 2.75447C24.127 3.13957 26.0618 5.23203 26.3184 7.69238C26.575 9.98158 26.7033 19.4849 26.3184 21.9666V21.9452ZM23.6565 7.05474C23.6565 7.9747 22.9081 8.7449 21.9672 8.7235C21.0477 8.7235 20.2779 7.9747 20.2992 7.03335C20.2992 6.11339 21.0477 5.34319 21.9886 5.36459C22.9081 5.36459 23.6779 6.11339 23.6565 7.05474Z" fill="#2F2F2F"/>
<path d="M19.1182 15.1924C19.1182 12.5414 16.9693 10.3926 14.3184 10.3926C11.6674 10.3926 9.51855 12.5414 9.51855 15.1924C9.51855 17.8434 11.6674 19.9922 14.3184 19.9922V22.1924C10.4524 22.1924 7.31836 19.0584 7.31836 15.1924C7.31836 11.3264 10.4524 8.19238 14.3184 8.19238C18.1844 8.19238 21.3184 11.3264 21.3184 15.1924C21.3184 19.0584 18.1844 22.1924 14.3184 22.1924V19.9922C16.9693 19.9922 19.1182 17.8434 19.1182 15.1924Z" fill="#2F2F2F"/>
</svg>
