<svg width="29" height="30" viewBox="0 0 29 30" fill="none" xmlns="http://www.w3.org/2000/svg">
<g id="LinkedIn">
<path id="Vector" d="M6.36719 12.0195C7.47176 12.0195 8.36719 12.915 8.36719 14.0195V26.3818C8.36719 27.4864 7.47176 28.3818 6.36719 28.3818H3.86328C2.75871 28.3818 1.86328 27.4864 1.86328 26.3818V14.0195C1.86328 12.915 2.75871 12.0195 3.86328 12.0195H6.36719Z" stroke="#2F2F2F" stroke-width="2"/>
<path id="Vector_2" d="M21.3535 11.6674L21.3633 11.6683H21.3721C21.5369 11.678 21.7396 11.6911 21.9385 11.7152L21.9395 11.7142C21.9431 11.7146 21.9466 11.7158 21.9502 11.7162C21.952 11.7164 21.9542 11.716 21.9561 11.7162L21.9551 11.7172C23.5862 11.897 24.9647 12.5378 25.9268 13.682C26.8848 14.8216 27.3359 16.3466 27.3359 18.1146V26.4857C27.3359 27.5902 26.4404 28.4856 25.3359 28.4857H22.832C21.7275 28.4857 20.832 27.5903 20.832 26.4857V19.1107C20.832 19.0614 20.8196 18.6514 20.6182 18.2855C20.5255 18.1174 20.4 17.9709 20.2207 17.8627C20.0428 17.7553 19.7562 17.6517 19.2891 17.6517C18.7603 17.6518 18.3776 17.8703 18.1631 18.2513L18.1641 18.2523C17.8297 18.8642 17.8711 19.5746 17.8711 20.6781V27.2269C17.8709 27.8879 17.3349 28.4242 16.6738 28.4242H13.3672C12.2628 28.4242 11.3674 27.5285 11.3672 26.4242V14.0609C11.3672 12.9564 12.2626 12.0609 13.3672 12.0609H16.2578C16.78 12.061 17.2349 12.3444 17.4805 12.765C18.3286 12.1763 19.5184 11.6578 21.0781 11.6615L21.3535 11.6674Z" stroke="#2F2F2F" stroke-width="2"/>
<path id="Vector_3" d="M5.11523 1.5C7.11184 1.50001 8.73047 3.11862 8.73047 5.11523C8.73044 7.11183 7.11182 8.73046 5.11523 8.73047C3.11863 8.73047 1.50003 7.11183 1.5 5.11523C1.5 3.11862 3.11862 1.5 5.11523 1.5Z" stroke="#2F2F2F" stroke-width="2"/>
</g>
</svg>
