<svg width="50" height="50" viewBox="0 0 50 50" fill="none" xmlns="http://www.w3.org/2000/svg">
<g id="phone 1">
<path id="Vector" d="M45.834 35.25V41.5C45.8363 42.0802 45.7175 42.6546 45.485 43.1862C45.2526 43.7178 44.9117 44.195 44.4841 44.5873C44.0566 44.9795 43.5518 45.2781 43.0022 45.464C42.4526 45.6499 41.8702 45.7189 41.2923 45.6667C34.8815 44.9701 28.7235 42.7795 23.3131 39.2709C18.2794 36.0723 14.0118 31.8046 10.8131 26.7709C7.29225 21.3359 5.10114 15.1479 4.4173 8.70837C4.36524 8.13226 4.43371 7.55162 4.61834 7.00342C4.80298 6.45522 5.09974 5.95148 5.48973 5.52425C5.87972 5.09702 6.35439 4.75568 6.88353 4.52196C7.41267 4.28824 7.98468 4.16725 8.56313 4.16671H14.8131C15.8242 4.15675 16.8044 4.51479 17.571 5.17407C18.3376 5.83334 18.8383 6.74889 18.9798 7.75004C19.2436 9.75018 19.7328 11.7141 20.4381 13.6042C20.7184 14.3499 20.7791 15.1603 20.6129 15.9394C20.4468 16.7185 20.0608 17.4336 19.5006 18L16.8548 20.6459C19.8205 25.8616 24.1391 30.1801 29.3548 33.1459L32.0006 30.5C32.5671 29.9399 33.2822 29.5539 34.0613 29.3877C34.8404 29.2216 35.6508 29.2822 36.3965 29.5625C38.2866 30.2679 40.2505 30.7571 42.2506 31.0209C43.2626 31.1636 44.1869 31.6734 44.8476 32.4532C45.5083 33.2329 45.8593 34.2283 45.834 35.25Z" stroke="#2F2F2F" stroke-width="2" stroke-linecap="round" stroke-linejoin="round"/>
</g>
</svg>
