<svg width="60" height="60" viewBox="0 0 60 60" fill="none" xmlns="http://www.w3.org/2000/svg">
<g id="Frame 427319015">
<path id="Vector 2" d="M49.6245 30.3888L49.735 29.395L49.6245 30.3888ZM35.1235 26.8888L34.6764 27.7833L35.1235 26.8888ZM39.1612 25.8888L40.1607 25.8587L40.1601 25.8391L40.1588 25.8195L39.1612 25.8888ZM29.6254 24.3884L30.0493 23.4827L29.9977 23.4586L29.9437 23.4404L29.6254 24.3884ZM32.0669 21.3888L31.0681 21.3405L31.0675 21.352L31.0672 21.3635L32.0669 21.3888ZM22.0005 37L22.7287 36.3146L22.7287 36.3146L22.0005 37ZM27.6798 30.0563C27.2202 29.75 26.5994 29.8743 26.2931 30.3339C25.9868 30.7935 26.1111 31.4143 26.5707 31.7206L27.6798 30.0563ZM38.1785 43.7037C38.0762 44.2464 38.4333 44.7693 38.976 44.8715C39.5188 44.9738 40.0416 44.6167 40.1439 44.074L38.1785 43.7037ZM20.4603 27.8884L21.3656 28.3132L21.3657 28.313L20.4603 27.8884ZM32.0008 25.5L31.577 26.4057L31.6038 26.4183L31.6312 26.4292L32.0008 25.5ZM51.6258 38.3884L52.5621 38.7396C53.365 36.5986 53.7468 33.9834 53.9359 30.8287C54.1253 27.6691 54.1246 23.8855 54.1246 19.3889H53.1246H52.1246C52.1246 23.9063 52.1245 27.6224 51.9395 30.7091C51.7542 33.8006 51.3866 36.1783 50.6895 38.0373L51.6258 38.3884ZM53.1246 19.3889H54.1246C54.1246 17.8865 53.5905 16.6881 52.7338 15.8414C51.8931 15.0106 50.7962 14.5708 49.7313 14.4567C48.6737 14.3433 47.5642 14.5426 46.6849 15.0974C45.7754 15.6713 45.1249 16.6286 45.1249 17.8884H46.1249H47.1249C47.1249 17.3983 47.3493 17.0431 47.7522 16.7888C48.1854 16.5155 48.8258 16.3711 49.5181 16.4453C50.2031 16.5187 50.8562 16.7978 51.3279 17.264C51.7837 17.7144 52.1246 18.3911 52.1246 19.3889H53.1246ZM46.1249 17.8884H45.1249C45.1249 20.2545 44.8725 23.4343 45.1953 25.9533C45.3595 27.2344 45.6835 28.4916 46.3484 29.4844C47.0452 30.5246 48.0853 31.224 49.5141 31.3827L49.6245 30.3888L49.735 29.395C48.9137 29.3037 48.3914 28.9405 48.0101 28.3713C47.597 27.7546 47.3273 26.8555 47.1791 25.699C46.8771 23.3427 47.1249 20.5224 47.1249 17.8884H46.1249ZM49.6245 30.3888L49.5141 31.3827C50.846 31.5307 51.8586 30.9031 52.5434 29.9693C53.1929 29.0837 53.5856 27.8887 53.8299 26.6735C54.3226 24.2232 54.2918 21.2682 54.1208 19.3023L53.1246 19.3889L52.1283 19.4756C52.2907 21.3429 52.3098 24.088 51.8692 26.2792C51.6469 27.3848 51.327 28.2461 50.9307 28.7865C50.5697 29.2787 50.2031 29.447 49.735 29.395L49.6245 30.3888ZM46.1249 17.8884H47.1249C47.1249 16.3859 46.592 15.2065 45.7191 14.3918C44.8665 13.5959 43.7642 13.2164 42.7146 13.141C41.6706 13.066 40.5898 13.285 39.7358 13.7959C38.8694 14.3143 38.1612 15.1948 38.1612 16.3884H39.1612H40.1612C40.1612 16.0821 40.3234 15.775 40.7627 15.5122C41.2144 15.2419 41.8745 15.0858 42.5714 15.1359C43.2628 15.1855 43.9014 15.4309 44.3544 15.8538C44.7873 16.2579 45.1249 16.8909 45.1249 17.8884H46.1249ZM42.6249 28.8884V29.8884C44.13 29.8884 45.1987 29.176 45.8794 28.1042C46.5173 27.0999 46.8029 25.8072 46.9419 24.5618C47.0829 23.2978 47.0842 21.9572 47.0742 20.7939C47.0637 19.5852 47.0442 18.6328 47.118 18.0052L46.1249 17.8884L45.1317 17.7716C45.0389 18.5607 45.0646 19.6917 45.0742 20.8111C45.0843 21.9759 45.0805 23.2082 44.9542 24.34C44.8258 25.4905 44.582 26.4166 44.1911 27.032C43.8431 27.58 43.3839 27.8884 42.6249 27.8884V28.8884ZM39.1612 16.3884H40.1612C40.1612 14.97 39.5879 13.8627 38.6824 13.1287C37.8052 12.4177 36.6837 12.1084 35.6211 12.1009C34.5596 12.0934 33.4588 12.3857 32.5955 13.0002C31.7098 13.6307 31.0669 14.6154 31.0669 15.8883H32.0669H33.0669C33.0669 15.3613 33.3108 14.946 33.7553 14.6296C34.2222 14.2973 34.8948 14.0958 35.607 14.1009C36.3179 14.1059 36.9701 14.3153 37.423 14.6825C37.8477 15.0266 38.1612 15.5569 38.1612 16.3884H39.1612ZM39.1612 16.3884H38.1612C38.1612 19.0318 38.0491 24.3101 38.1636 25.9582L39.1612 25.8888L40.1588 25.8195C40.0505 24.2616 40.1612 19.167 40.1612 16.3884H39.1612ZM39.1612 25.8888L38.1616 25.919C38.2081 27.459 38.8398 28.5275 39.8115 29.1629C40.717 29.755 41.793 29.8884 42.6249 29.8884V28.8884V27.8884C41.9567 27.8884 41.3385 27.7718 40.906 27.489C40.5398 27.2495 40.1896 26.8183 40.1607 25.8587L39.1612 25.8888ZM35.1235 26.8888L34.6764 27.7833C35.5166 28.2033 36.2359 28.5309 36.8394 28.7335C37.4115 28.9256 38.0419 29.0644 38.6276 28.921C39.335 28.7477 39.7431 28.2349 39.9425 27.6622C40.1199 27.1527 40.1612 26.5302 40.1612 25.8888H39.1612H38.1612C38.1612 26.4973 38.1136 26.8325 38.0537 27.0046C38.0157 27.1136 38.0381 27.0063 38.1519 26.9784C38.161 26.9761 38.1198 26.9879 37.9973 26.9712C37.8759 26.9548 37.7065 26.9149 37.476 26.8375C37.0106 26.6812 36.3936 26.4057 35.5706 25.9944L35.1235 26.8888ZM32.0669 15.8883H33.0669C33.0669 14.6345 32.425 13.6701 31.5674 13.037C30.7296 12.4184 29.6629 12.089 28.6391 12.0159C27.6198 11.9431 26.5273 12.1165 25.6507 12.6385C24.732 13.1854 24.0688 14.1163 24.0688 15.3883H25.0688H26.0688C26.0688 14.9103 26.2803 14.5912 26.6738 14.3569C27.1093 14.0976 27.7664 13.9586 28.4966 14.0108C29.2223 14.0627 29.9051 14.2958 30.3795 14.646C30.834 14.9815 31.0669 15.3921 31.0669 15.8883H32.0669ZM32.0669 15.8883H31.0669C31.0669 16.6876 31.0947 20.791 31.0681 21.3405L32.0669 21.3888L33.0657 21.4372C33.0954 20.8238 33.0669 16.607 33.0669 15.8883H32.0669ZM29.6254 24.3884L29.1578 25.2724C29.8528 25.64 30.4768 25.9364 30.9963 26.04C31.2693 26.0945 31.6201 26.1193 31.9758 25.9859C32.3653 25.8399 32.6209 25.558 32.7735 25.2595C32.9117 24.9891 32.9712 24.6967 33.0034 24.4489C33.0369 24.1917 33.0498 23.9056 33.0555 23.6106C33.0611 23.3138 33.0597 22.9755 33.0591 22.6143C33.0585 22.2485 33.0586 21.848 33.0667 21.4071L32.0669 21.3888L31.067 21.3705C31.0586 21.8324 31.0585 22.2496 31.0591 22.6176C31.0597 22.9902 31.061 23.3019 31.0558 23.5725C31.0506 23.8451 31.0393 24.044 31.0202 24.1906C30.9999 24.3466 30.9785 24.3769 30.9926 24.3494C31.021 24.2938 31.1093 24.1749 31.2734 24.1133C31.4037 24.0645 31.471 24.0953 31.3876 24.0787C31.1942 24.0401 30.8135 23.8856 30.093 23.5045L29.6254 24.3884ZM25.0688 15.3883H24.0688C24.0688 15.394 24.0688 15.3997 24.0688 15.4054C24.0688 15.4111 24.0688 15.4169 24.0688 15.4226C24.0688 15.4283 24.0688 15.4341 24.0688 15.4398C24.0688 15.4455 24.0688 15.4513 24.0688 15.457C24.0688 15.4628 24.0688 15.4685 24.0688 15.4743C24.0688 15.4801 24.0688 15.4858 24.0688 15.4916C24.0688 15.4974 24.0688 15.5031 24.0688 15.5089C24.0688 15.5147 24.0688 15.5205 24.0688 15.5263C24.0688 15.5321 24.0688 15.5379 24.0688 15.5437C24.0688 15.5495 24.0688 15.5553 24.0688 15.5611C24.0688 15.5669 24.0688 15.5727 24.0688 15.5785C24.0688 15.5843 24.0688 15.5901 24.0688 15.5959C24.0688 15.6018 24.0688 15.6076 24.0688 15.6134C24.0688 15.6193 24.0688 15.6251 24.0688 15.6309C24.0688 15.6368 24.0688 15.6426 24.0688 15.6485C24.0688 15.6543 24.0688 15.6602 24.0688 15.666C24.0688 15.6719 24.0688 15.6778 24.0688 15.6836C24.0688 15.6895 24.0688 15.6954 24.0688 15.7012C24.0688 15.7071 24.0688 15.713 24.0688 15.7189C24.0688 15.7248 24.0688 15.7307 24.0688 15.7365C24.0688 15.7424 24.0688 15.7483 24.0688 15.7542C24.0688 15.7601 24.0688 15.766 24.0688 15.772C24.0688 15.7779 24.0688 15.7838 24.0688 15.7897C24.0688 15.7956 24.0688 15.8015 24.0688 15.8075C24.0688 15.8134 24.0688 15.8193 24.0688 15.8252C24.0688 15.8312 24.0688 15.8371 24.0688 15.843C24.0688 15.849 24.0688 15.8549 24.0688 15.8609C24.0688 15.8668 24.0688 15.8728 24.0688 15.8787C24.0688 15.8847 24.0688 15.8907 24.0688 15.8966C24.0688 15.9026 24.0688 15.9086 24.0688 15.9145C24.0688 15.9205 24.0688 15.9265 24.0688 15.9325C24.0688 15.9384 24.0688 15.9444 24.0688 15.9504C24.0688 15.9564 24.0688 15.9624 24.0688 15.9684C24.0688 15.9744 24.0688 15.9804 24.0688 15.9864C24.0688 15.9924 24.0688 15.9984 24.0688 16.0044C24.0688 16.0104 24.0688 16.0164 24.0688 16.0224C24.0688 16.0284 24.0688 16.0345 24.0688 16.0405C24.0688 16.0465 24.0688 16.0525 24.0688 16.0586C24.0688 16.0646 24.0688 16.0706 24.0688 16.0767C24.0688 16.0827 24.0688 16.0888 24.0688 16.0948C24.0688 16.1008 24.0688 16.1069 24.0688 16.1129C24.0688 16.119 24.0688 16.125 24.0688 16.1311C24.0688 16.1372 24.0688 16.1432 24.0688 16.1493C24.0688 16.1554 24.0688 16.1614 24.0688 16.1675C24.0688 16.1736 24.0688 16.1797 24.0688 16.1857C24.0688 16.1918 24.0688 16.1979 24.0688 16.204C24.0688 16.2101 24.0688 16.2162 24.0688 16.2222C24.0688 16.2283 24.0688 16.2344 24.0688 16.2405C24.0688 16.2466 24.0688 16.2527 24.0688 16.2588C24.0688 16.2649 24.0688 16.271 24.0688 16.2772C24.0688 16.2833 24.0688 16.2894 24.0688 16.2955C24.0688 16.3016 24.0688 16.3077 24.0688 16.3139C24.0688 16.32 24.0688 16.3261 24.0688 16.3322C24.0688 16.3384 24.0688 16.3445 24.0688 16.3506C24.0688 16.3568 24.0688 16.3629 24.0688 16.3691C24.0688 16.3752 24.0688 16.3814 24.0688 16.3875C24.0688 16.3936 24.0688 16.3998 24.0688 16.406C24.0688 16.4121 24.0688 16.4183 24.0688 16.4244C24.0688 16.4306 24.0688 16.4367 24.0688 16.4429C24.0688 16.4491 24.0688 16.4552 24.0688 16.4614C24.0688 16.4676 24.0688 16.4738 24.0688 16.4799C24.0688 16.4861 24.0688 16.4923 24.0688 16.4985C24.0688 16.5047 24.0688 16.5108 24.0688 16.517C24.0688 16.5232 24.0688 16.5294 24.0688 16.5356C24.0688 16.5418 24.0688 16.548 24.0688 16.5542C24.0688 16.5604 24.0688 16.5666 24.0688 16.5728C24.0688 16.579 24.0688 16.5852 24.0688 16.5914C24.0688 16.5976 24.0688 16.6038 24.0688 16.6101C24.0688 16.6163 24.0688 16.6225 24.0688 16.6287C24.0688 16.6349 24.0688 16.6411 24.0688 16.6474C24.0688 16.6536 24.0688 16.6598 24.0688 16.666C24.0688 16.6723 24.0688 16.6785 24.0688 16.6847C24.0688 16.691 24.0688 16.6972 24.0688 16.7035C24.0688 16.7097 24.0688 16.7159 24.0688 16.7222C24.0688 16.7284 24.0688 16.7347 24.0688 16.7409C24.0688 16.7472 24.0688 16.7534 24.0688 16.7597C24.0688 16.7659 24.0688 16.7722 24.0688 16.7784C24.0688 16.7847 24.0688 16.791 24.0688 16.7972C24.0688 16.8035 24.0688 16.8097 24.0688 16.816C24.0688 16.8223 24.0688 16.8285 24.0688 16.8348C24.0688 16.8411 24.0688 16.8474 24.0688 16.8536C24.0688 16.8599 24.0688 16.8662 24.0688 16.8725C24.0688 16.8787 24.0688 16.885 24.0688 16.8913C24.0688 16.8976 24.0688 16.9039 24.0688 16.9102C24.0688 16.9165 24.0688 16.9227 24.0688 16.929C24.0688 16.9353 24.0688 16.9416 24.0688 16.9479C24.0688 16.9542 24.0688 16.9605 24.0688 16.9668C24.0688 16.9731 24.0688 16.9794 24.0688 16.9857C24.0688 16.992 24.0688 16.9983 24.0688 17.0046C24.0688 17.0109 24.0688 17.0172 24.0688 17.0236C24.0688 17.0299 24.0688 17.0362 24.0688 17.0425C24.0688 17.0488 24.0688 17.0551 24.0688 17.0614C24.0688 17.0678 24.0688 17.0741 24.0688 17.0804C24.0688 17.0867 24.0688 17.093 24.0688 17.0994C24.0688 17.1057 24.0688 17.112 24.0688 17.1184C24.0688 17.1247 24.0688 17.131 24.0688 17.1373C24.0688 17.1437 24.0688 17.15 24.0688 17.1563C24.0688 17.1627 24.0688 17.169 24.0688 17.1754C24.0688 17.1817 24.0688 17.188 24.0688 17.1944C24.0688 17.2007 24.0688 17.2071 24.0688 17.2134C24.0688 17.2197 24.0688 17.2261 24.0688 17.2324C24.0688 17.2388 24.0688 17.2451 24.0688 17.2515C24.0688 17.2578 24.0688 17.2642 24.0688 17.2705C24.0688 17.2769 24.0688 17.2832 24.0688 17.2896C24.0688 17.296 24.0688 17.3023 24.0688 17.3087C24.0688 17.315 24.0688 17.3214 24.0688 17.3277C24.0688 17.3341 24.0688 17.3405 24.0688 17.3468C24.0688 17.3532 24.0688 17.3596 24.0688 17.3659C24.0688 17.3723 24.0688 17.3787 24.0688 17.385C24.0688 17.3914 24.0688 17.3978 24.0688 17.4041C24.0688 17.4105 24.0688 17.4169 24.0688 17.4233C24.0688 17.4296 24.0688 17.436 24.0688 17.4424C24.0688 17.4488 24.0688 17.4551 24.0688 17.4615C24.0688 17.4679 24.0688 17.4743 24.0688 17.4806C24.0688 17.487 24.0688 17.4934 24.0688 17.4998C24.0688 17.5062 24.0688 17.5125 24.0688 17.5189C24.0688 17.5253 24.0688 17.5317 24.0688 17.5381C24.0688 17.5445 24.0688 17.5509 24.0688 17.5572C24.0688 17.5636 24.0688 17.57 24.0688 17.5764C24.0688 17.5828 24.0688 17.5892 24.0688 17.5956C24.0688 17.602 24.0688 17.6084 24.0688 17.6148C24.0688 17.6211 24.0688 17.6275 24.0688 17.6339C24.0688 17.6403 24.0688 17.6467 24.0688 17.6531C24.0688 17.6595 24.0688 17.6659 24.0688 17.6723C24.0688 17.6787 24.0688 17.6851 24.0688 17.6915C24.0688 17.6979 24.0688 17.7043 24.0688 17.7107C24.0688 17.7171 24.0688 17.7235 24.0688 17.7299C24.0688 17.7363 24.0688 17.7427 24.0688 17.7491C24.0688 17.7555 24.0688 17.7619 24.0688 17.7683C24.0688 17.7747 24.0688 17.7811 24.0688 17.7875C24.0688 17.7939 24.0688 17.8003 24.0688 17.8067C24.0688 17.8131 24.0688 17.8195 24.0688 17.8259C24.0688 17.8324 24.0688 17.8388 24.0688 17.8452C24.0688 17.8516 24.0688 17.858 24.0688 17.8644C24.0688 17.8708 24.0688 17.8772 24.0688 17.8836C24.0688 17.89 24.0688 17.8964 24.0688 17.9028C24.0688 17.9093 24.0688 17.9157 24.0688 17.9221C24.0688 17.9285 24.0688 17.9349 24.0688 17.9413C24.0688 17.9477 24.0688 17.9541 24.0688 17.9605C24.0688 17.9669 24.0688 17.9734 24.0688 17.9798C24.0688 17.9862 24.0688 17.9926 24.0688 17.999C24.0688 18.0054 24.0688 18.0118 24.0688 18.0182C24.0688 18.0246 24.0688 18.0311 24.0688 18.0375C24.0688 18.0439 24.0688 18.0503 24.0688 18.0567C24.0688 18.0631 24.0688 18.0695 24.0688 18.0759C24.0688 18.0823 24.0688 18.0888 24.0688 18.0952C24.0688 18.1016 24.0688 18.108 24.0688 18.1144C24.0688 18.1208 24.0688 18.1272 24.0688 18.1336C24.0688 18.1401 24.0688 18.1465 24.0688 18.1529C24.0688 18.1593 24.0688 18.1657 24.0688 18.1721C24.0688 18.1785 24.0688 18.1849 24.0688 18.1913C24.0688 18.1978 24.0688 18.2042 24.0688 18.2106C24.0688 18.217 24.0688 18.2234 24.0688 18.2298C24.0688 18.2362 24.0688 18.2426 24.0688 18.249C24.0688 18.2554 24.0688 18.2619 24.0688 18.2683C24.0688 18.2747 24.0688 18.2811 24.0688 18.2875C24.0688 18.2939 24.0688 18.3003 24.0688 18.3067C24.0688 18.3131 24.0688 18.3195 24.0688 18.3259C24.0688 18.3323 24.0688 18.3387 24.0688 18.3451C24.0688 18.3516 24.0688 18.358 24.0688 18.3644C24.0688 18.3708 24.0688 18.3772 24.0688 18.3836C24.0688 18.39 24.0688 18.3964 24.0688 18.4028C24.0688 18.4092 24.0688 18.4156 24.0688 18.422C24.0688 18.4284 24.0688 18.4348 24.0688 18.4412C24.0688 18.4476 24.0688 18.454 24.0688 18.4604C24.0688 18.4668 24.0688 18.4732 24.0688 18.4796C24.0688 18.486 24.0688 18.4924 24.0688 18.4988C24.0688 18.5052 24.0688 18.5116 24.0688 18.518C24.0688 18.5244 24.0688 18.5308 24.0688 18.5371C24.0688 18.5435 24.0688 18.5499 24.0688 18.5563C24.0688 18.5627 24.0688 18.5691 24.0688 18.5755C24.0688 18.5819 24.0688 18.5883 24.0688 18.5947C24.0688 18.601 24.0688 18.6074 24.0688 18.6138C24.0688 18.6202 24.0688 18.6266 24.0688 18.633C24.0688 18.6394 24.0688 18.6457 24.0688 18.6521C24.0688 18.6585 24.0688 18.6649 24.0688 18.6713C24.0688 18.6777 24.0688 18.684 24.0688 18.6904C24.0688 18.6968 24.0688 18.7032 24.0688 18.7095C24.0688 18.7159 24.0688 18.7223 24.0688 18.7287C24.0688 18.735 24.0688 18.7414 24.0688 18.7478C24.0688 18.7542 24.0688 18.7605 24.0688 18.7669C24.0688 18.7733 24.0688 18.7796 24.0688 18.786C24.0688 18.7924 24.0688 18.7987 24.0688 18.8051C24.0688 18.8115 24.0688 18.8178 24.0688 18.8242C24.0688 18.8306 24.0688 18.8369 24.0688 18.8433C24.0688 18.8496 24.0688 18.856 24.0688 18.8623C24.0688 18.8687 24.0688 18.8751 24.0688 18.8814C24.0688 18.8878 24.0688 18.8941 24.0688 18.9005C24.0688 18.9068 24.0688 18.9132 24.0688 18.9195C24.0688 18.9259 24.0688 18.9322 24.0688 18.9386C24.0688 18.9449 24.0688 18.9513 24.0688 18.9576C24.0688 18.9639 24.0688 18.9703 24.0688 18.9766C24.0688 18.983 24.0688 18.9893 24.0688 18.9956C24.0688 19.002 24.0688 19.0083 24.0688 19.0146C24.0688 19.021 24.0688 19.0273 24.0688 19.0336C24.0688 19.04 24.0688 19.0463 24.0688 19.0526C24.0688 19.0589 24.0688 19.0653 24.0688 19.0716C24.0688 19.0779 24.0688 19.0842 24.0688 19.0905C24.0688 19.0969 24.0688 19.1032 24.0688 19.1095C24.0688 19.1158 24.0688 19.1221 24.0688 19.1284C24.0688 19.1348 24.0688 19.1411 24.0688 19.1474C24.0688 19.1537 24.0688 19.16 24.0688 19.1663C24.0688 19.1726 24.0688 19.1789 24.0688 19.1852C24.0688 19.1915 24.0688 19.1978 24.0688 19.2041C24.0688 19.2104 24.0688 19.2167 24.0688 19.223C24.0688 19.2293 24.0688 19.2356 24.0688 19.2419C24.0688 19.2482 24.0688 19.2544 24.0688 19.2607C24.0688 19.267 24.0688 19.2733 24.0688 19.2796C24.0688 19.2859 24.0688 19.2921 24.0688 19.2984C24.0688 19.3047 24.0688 19.311 24.0688 19.3172C24.0688 19.3235 24.0688 19.3298 24.0688 19.3361C24.0688 19.3423 24.0688 19.3486 24.0688 19.3548C24.0688 19.3611 24.0688 19.3674 24.0688 19.3736C24.0688 19.3799 24.0688 19.3862 24.0688 19.3924C24.0688 19.3987 24.0688 19.4049 24.0688 19.4112C24.0688 19.4174 24.0688 19.4237 24.0688 19.4299C24.0688 19.4362 24.0688 19.4424 24.0688 19.4486C24.0688 19.4549 24.0688 19.4611 24.0688 19.4674C24.0688 19.4736 24.0688 19.4798 24.0688 19.4861C24.0688 19.4923 24.0688 19.4985 24.0688 19.5047C24.0688 19.511 24.0688 19.5172 24.0688 19.5234C24.0688 19.5296 24.0688 19.5359 24.0688 19.5421C24.0688 19.5483 24.0688 19.5545 24.0688 19.5607C24.0688 19.5669 24.0688 19.5731 24.0688 19.5793C24.0688 19.5855 24.0688 19.5918 24.0688 19.598C24.0688 19.6042 24.0688 19.6104 24.0688 19.6165C24.0688 19.6227 24.0688 19.6289 24.0688 19.6351C24.0688 19.6413 24.0688 19.6475 24.0688 19.6537C24.0688 19.6599 24.0688 19.6661 24.0688 19.6722C24.0688 19.6784 24.0688 19.6846 24.0688 19.6908C24.0688 19.6969 24.0688 19.7031 24.0688 19.7093C24.0688 19.7154 24.0688 19.7216 24.0688 19.7278C24.0688 19.7339 24.0688 19.7401 24.0688 19.7462C24.0688 19.7524 24.0688 19.7586 24.0688 19.7647C24.0688 19.7709 24.0688 19.777 24.0688 19.7832C24.0688 19.7893 24.0688 19.7954 24.0688 19.8016C24.0688 19.8077 24.0688 19.8139 24.0688 19.82C24.0688 19.8261 24.0688 19.8322 24.0688 19.8384C24.0688 19.8445 24.0688 19.8506 24.0688 19.8567C24.0688 19.8629 24.0688 19.869 24.0688 19.8751C24.0688 19.8812 24.0688 19.8873 24.0688 19.8934C24.0688 19.8995 24.0688 19.9056 24.0688 19.9117C24.0688 19.9178 24.0688 19.9239 24.0688 19.93C24.0688 19.9361 24.0688 19.9422 24.0688 19.9483C24.0688 19.9544 24.0688 19.9605 24.0688 19.9666C24.0688 19.9726 24.0688 19.9787 24.0688 19.9848C24.0688 19.9909 24.0688 19.997 24.0688 20.003C24.0688 20.0091 24.0688 20.0152 24.0688 20.0212C24.0688 20.0273 24.0688 20.0333 24.0688 20.0394C24.0688 20.0454 24.0688 20.0515 24.0688 20.0575C24.0688 20.0636 24.0688 20.0696 24.0688 20.0757C24.0688 20.0817 24.0688 20.0878 24.0688 20.0938C24.0688 20.0998 24.0688 20.1059 24.0688 20.1119C24.0688 20.1179 24.0688 20.1239 24.0688 20.1299C24.0688 20.136 24.0688 20.142 24.0688 20.148C24.0688 20.154 24.0688 20.16 24.0688 20.166C24.0688 20.172 24.0688 20.178 24.0688 20.184C24.0688 20.19 24.0688 20.196 24.0688 20.202C24.0688 20.208 24.0688 20.214 24.0688 20.22C24.0688 20.226 24.0688 20.2319 24.0688 20.2379C24.0688 20.2439 24.0688 20.2499 24.0688 20.2558C24.0688 20.2618 24.0688 20.2678 24.0688 20.2737C24.0688 20.2797 24.0688 20.2856 24.0688 20.2916C24.0688 20.2975 24.0688 20.3035 24.0688 20.3094C24.0688 20.3154 24.0688 20.3213 24.0688 20.3272C24.0688 20.3332 24.0688 20.3391 24.0688 20.345C24.0688 20.351 24.0688 20.3569 24.0688 20.3628C24.0688 20.3687 24.0688 20.3747 24.0688 20.3806C24.0688 20.3865 24.0688 20.3924 24.0688 20.3983C24.0688 20.4042 24.0688 20.4101 24.0688 20.416C24.0688 20.4219 24.0688 20.4278 24.0688 20.4337C24.0688 20.4396 24.0688 20.4454 24.0688 20.4513C24.0688 20.4572 24.0688 20.4631 24.0688 20.4689C24.0688 20.4748 24.0688 20.4807 24.0688 20.4865C24.0688 20.4924 24.0688 20.4983 24.0688 20.5041C24.0688 20.51 24.0688 20.5158 24.0688 20.5217C24.0688 20.5275 24.0688 20.5333 24.0688 20.5392C24.0688 20.545 24.0688 20.5508 24.0688 20.5567C24.0688 20.5625 24.0688 20.5683 24.0688 20.5741C24.0688 20.58 24.0688 20.5858 24.0688 20.5916C24.0688 20.5974 24.0688 20.6032 24.0688 20.609C24.0688 20.6148 24.0688 20.6206 24.0688 20.6264C24.0688 20.6322 24.0688 20.638 24.0688 20.6438C24.0688 20.6495 24.0688 20.6553 24.0688 20.6611C24.0688 20.6669 24.0688 20.6726 24.0688 20.6784C24.0688 20.6842 24.0688 20.6899 24.0688 20.6957C24.0688 20.7014 24.0688 20.7072 24.0688 20.7129C24.0688 20.7187 24.0688 20.7244 24.0688 20.7301C24.0688 20.7359 24.0688 20.7416 24.0688 20.7473C24.0688 20.7531 24.0688 20.7588 24.0688 20.7645C24.0688 20.7702 24.0688 20.7759 24.0688 20.7816C24.0688 20.7874 24.0688 20.7931 24.0688 20.7988C24.0688 20.8045 24.0688 20.8101 24.0688 20.8158C24.0688 20.8215 24.0688 20.8272 24.0688 20.8329C24.0688 20.8386 24.0688 20.8442 24.0688 20.8499C24.0688 20.8556 24.0688 20.8612 24.0688 20.8669C24.0688 20.8725 24.0688 20.8782 24.0688 20.8838C24.0688 20.8895 24.0688 20.8951 24.0688 20.9008C24.0688 20.9064 24.0688 20.9121 24.0688 20.9177C24.0688 20.9233 24.0688 20.9289 24.0688 20.9345C24.0688 20.9402 24.0688 20.9458 24.0688 20.9514C24.0688 20.957 24.0688 20.9626 24.0688 20.9682C24.0688 20.9738 24.0688 20.9794 24.0688 20.985C24.0688 20.9906 24.0688 20.9961 24.0688 21.0017C24.0688 21.0073 24.0688 21.0129 24.0688 21.0184C24.0688 21.024 24.0688 21.0296 24.0688 21.0351C24.0688 21.0407 24.0688 21.0462 24.0688 21.0518C24.0688 21.0573 24.0688 21.0628 24.0688 21.0684C24.0688 21.0739 24.0688 21.0794 24.0688 21.085C24.0688 21.0905 24.0688 21.096 24.0688 21.1015C24.0688 21.107 24.0688 21.1125 24.0688 21.118C24.0688 21.1235 24.0688 21.129 24.0688 21.1345C24.0688 21.14 24.0688 21.1455 24.0688 21.151C24.0688 21.1564 24.0688 21.1619 24.0688 21.1674C24.0688 21.1729 24.0688 21.1783 24.0688 21.1838C24.0688 21.1892 24.0688 21.1947 24.0688 21.2001C24.0688 21.2056 24.0688 21.211 24.0688 21.2164C24.0688 21.2219 24.0688 21.2273 24.0688 21.2327C24.0688 21.2382 24.0688 21.2436 24.0688 21.249C24.0688 21.2544 24.0688 21.2598 24.0688 21.2652C24.0688 21.2706 24.0688 21.276 24.0688 21.2814C24.0688 21.2868 24.0688 21.2921 24.0688 21.2975C24.0688 21.3029 24.0688 21.3083 24.0688 21.3136C24.0688 21.319 24.0688 21.3244 24.0688 21.3297C24.0688 21.3351 24.0688 21.3404 24.0688 21.3457C24.0688 21.3511 24.0688 21.3564 24.0688 21.3618C24.0688 21.3671 24.0688 21.3724 24.0688 21.3777C24.0688 21.383 24.0688 21.3883 24.0688 21.3937C24.0688 21.399 24.0688 21.4043 24.0688 21.4095C24.0688 21.4148 24.0688 21.4201 24.0688 21.4254C24.0688 21.4307 24.0688 21.436 24.0688 21.4412C24.0688 21.4465 24.0688 21.4518 24.0688 21.457C24.0688 21.4623 24.0688 21.4675 24.0688 21.4728C24.0688 21.478 24.0688 21.4832 24.0688 21.4885C24.0688 21.4937 24.0688 21.4989 24.0688 21.5041C24.0688 21.5094 24.0688 21.5146 24.0688 21.5198C24.0688 21.525 24.0688 21.5302 24.0688 21.5354C24.0688 21.5406 24.0688 21.5458 24.0688 21.5509C24.0688 21.5561 24.0688 21.5613 24.0688 21.5665C24.0688 21.5716 24.0688 21.5768 24.0688 21.5819C24.0688 21.5871 24.0688 21.5922 24.0688 21.5974C24.0688 21.6025 24.0688 21.6077 24.0688 21.6128C24.0688 21.6179 24.0688 21.623 24.0688 21.6282C24.0688 21.6333 24.0688 21.6384 24.0688 21.6435C24.0688 21.6486 24.0688 21.6537 24.0688 21.6588C24.0688 21.6639 24.0688 21.6689 24.0688 21.674C24.0688 21.6791 24.0688 21.6842 24.0688 21.6892C24.0688 21.6943 24.0688 21.6993 24.0688 21.7044C24.0688 21.7094 24.0688 21.7145 24.0688 21.7195C24.0688 21.7246 24.0688 21.7296 24.0688 21.7346C24.0688 21.7396 24.0688 21.7446 24.0688 21.7496C24.0688 21.7547 24.0688 21.7597 24.0688 21.7647C24.0688 21.7696 24.0688 21.7746 24.0688 21.7796C24.0688 21.7846 24.0688 21.7896 24.0688 21.7945C24.0688 21.7995 24.0688 21.8045 24.0688 21.8094C24.0688 21.8144 24.0688 21.8193 24.0688 21.8243C24.0688 21.8292 24.0688 21.8341 24.0688 21.8391C24.0688 21.844 24.0688 21.8489 24.0688 21.8538C24.0688 21.8587 24.0688 21.8636 24.0688 21.8685C24.0688 21.8734 24.0688 21.8783 24.0688 21.8832C24.0688 21.8881 24.0688 21.893 24.0688 21.8978C24.0688 21.9027 24.0688 21.9075 24.0688 21.9124C24.0688 21.9173 24.0688 21.9221 24.0688 21.9269C24.0688 21.9318 24.0688 21.9366 24.0688 21.9414C24.0688 21.9463 24.0688 21.9511 24.0688 21.9559C24.0688 21.9607 24.0688 21.9655 24.0688 21.9703C24.0688 21.9751 24.0688 21.9799 24.0688 21.9847C24.0688 21.9895 24.0688 21.9942 24.0688 21.999C24.0688 22.0038 24.0688 22.0085 24.0688 22.0133C24.0688 22.018 24.0688 22.0228 24.0688 22.0275C24.0688 22.0322 24.0688 22.037 24.0688 22.0417C24.0688 22.0464 24.0688 22.0511 24.0688 22.0558C24.0688 22.0606 24.0688 22.0653 24.0688 22.0699C24.0688 22.0746 24.0688 22.0793 24.0688 22.084C24.0688 22.0887 24.0688 22.0933 24.0688 22.098C24.0688 22.1027 24.0688 22.1073 24.0688 22.112C24.0688 22.1166 24.0688 22.1213 24.0688 22.1259C24.0688 22.1305 24.0688 22.1351 24.0688 22.1398C24.0688 22.1444 24.0688 22.149 24.0688 22.1536C24.0688 22.1582 24.0688 22.1628 24.0688 22.1674C24.0688 22.1719 24.0688 22.1765 24.0688 22.1811C24.0688 22.1857 24.0688 22.1902 24.0688 22.1948C24.0688 22.1993 24.0688 22.2039 24.0688 22.2084C24.0688 22.2129 24.0688 22.2175 24.0688 22.222C24.0688 22.2265 24.0688 22.231 24.0688 22.2355C24.0688 22.24 24.0688 22.2445 24.0688 22.249C24.0688 22.2535 24.0688 22.258 24.0688 22.2625C24.0688 22.267 24.0688 22.2714 24.0688 22.2759C24.0688 22.2803 24.0688 22.2848 24.0688 22.2892C24.0688 22.2937 24.0688 22.2981 24.0688 22.3025C24.0688 22.307 24.0688 22.3114 24.0688 22.3158C24.0688 22.3202 24.0688 22.3246 24.0688 22.329C24.0688 22.3334 24.0688 22.3378 24.0688 22.3422C24.0688 22.3465 24.0688 22.3509 24.0688 22.3553C24.0688 22.3596 24.0688 22.364 24.0688 22.3683C24.0688 22.3727 24.0688 22.377 24.0688 22.3813C24.0688 22.3856 24.0688 22.39 24.0688 22.3943C24.0688 22.3986 24.0688 22.4029 24.0688 22.4072C24.0688 22.4115 24.0688 22.4158 24.0688 22.42C24.0688 22.4243 24.0688 22.4286 24.0688 22.4328C24.0688 22.4371 24.0688 22.4414 24.0688 22.4456C24.0688 22.4498 24.0688 22.4541 24.0688 22.4583C24.0688 22.4625 24.0688 22.4668 24.0688 22.471C24.0688 22.4752 24.0688 22.4794 24.0688 22.4836C24.0688 22.4878 24.0688 22.4919 24.0688 22.4961C24.0688 22.5003 24.0688 22.5045 24.0688 22.5086C24.0688 22.5128 24.0688 22.5169 24.0688 22.5211C24.0688 22.5252 24.0688 22.5293 24.0688 22.5335C24.0688 22.5376 24.0688 22.5417 24.0688 22.5458C24.0688 22.5499 24.0688 22.554 24.0688 22.5581C24.0688 22.5622 24.0688 22.5663 24.0688 22.5703C24.0688 22.5744 24.0688 22.5785 24.0688 22.5825C24.0688 22.5866 24.0688 22.5906 24.0688 22.5947C24.0688 22.5987 24.0688 22.6027 24.0688 22.6067C24.0688 22.6107 24.0688 22.6148 24.0688 22.6188C24.0688 22.6228 24.0688 22.6267 24.0688 22.6307C24.0688 22.6347 24.0688 22.6387 24.0688 22.6426C24.0688 22.6466 24.0688 22.6506 24.0688 22.6545C24.0688 22.6585 24.0688 22.6624 24.0688 22.6663C24.0688 22.6702 24.0688 22.6742 24.0688 22.6781C24.0688 22.682 24.0688 22.6859 24.0688 22.6898C24.0688 22.6937 24.0688 22.6975 24.0688 22.7014C24.0688 22.7053 24.0688 22.7092 24.0688 22.713C24.0688 22.7169 24.0688 22.7207 24.0688 22.7245C24.0688 22.7284 24.0688 22.7322 24.0688 22.736C24.0688 22.7398 24.0688 22.7437 24.0688 22.7475C24.0688 22.7513 24.0688 22.755 24.0688 22.7588C24.0688 22.7626 24.0688 22.7664 24.0688 22.7701C24.0688 22.7739 24.0688 22.7776 24.0688 22.7814C24.0688 22.7851 24.0688 22.7889 24.0688 22.7926C24.0688 22.7963 24.0688 22.8 24.0688 22.8037C24.0688 22.8074 24.0688 22.8111 24.0688 22.8148C24.0688 22.8185 24.0688 22.8222 24.0688 22.8258C24.0688 22.8295 24.0688 22.8332 24.0688 22.8368C24.0688 22.8405 24.0688 22.8441 24.0688 22.8477C24.0688 22.8514 24.0688 22.855 24.0688 22.8586C24.0688 22.8622 24.0688 22.8658 24.0688 22.8694C24.0688 22.873 24.0688 22.8766 24.0688 22.8801C24.0688 22.8837 24.0688 22.8873 24.0688 22.8908C24.0688 22.8944 24.0688 22.8979 24.0688 22.9014C24.0688 22.905 24.0688 22.9085 24.0688 22.912C24.0688 22.9155 24.0688 22.919 24.0688 22.9225C24.0688 22.926 24.0688 22.9295 24.0688 22.933C24.0688 22.9364 24.0688 22.9399 24.0688 22.9434C24.0688 22.9468 24.0688 22.9502 24.0688 22.9537C24.0688 22.9571 24.0688 22.9605 24.0688 22.964C24.0688 22.9674 24.0688 22.9708 24.0688 22.9742C24.0688 22.9776 24.0688 22.9809 24.0688 22.9843C24.0688 22.9877 24.0688 22.991 24.0688 22.9944C24.0688 22.9978 24.0688 23.0011 24.0688 23.0044C24.0688 23.0078 24.0688 23.0111 24.0688 23.0144C24.0688 23.0177 24.0688 23.021 24.0688 23.0243C24.0688 23.0276 24.0688 23.0309 24.0688 23.0342C24.0688 23.0374 24.0688 23.0407 24.0688 23.0439C24.0688 23.0472 24.0688 23.0504 24.0688 23.0537C24.0688 23.0569 24.0688 23.0601 24.0688 23.0633C24.0688 23.0665 24.0688 23.0697 24.0688 23.0729C24.0688 23.0761 24.0688 23.0793 24.0688 23.0825C24.0688 23.0856 24.0688 23.0888 24.0688 23.0919C24.0688 23.0951 24.0688 23.0982 24.0688 23.1014C24.0688 23.1045 24.0688 23.1076 24.0688 23.1107C24.0688 23.1138 24.0688 23.1169 24.0688 23.12C24.0688 23.1231 24.0688 23.1262 24.0688 23.1292C24.0688 23.1323 24.0688 23.1353 24.0688 23.1384C24.0688 23.1414 24.0688 23.1445 24.0688 23.1475C24.0688 23.1505 24.0688 23.1535 24.0688 23.1565C24.0688 23.1595 24.0688 23.1625 24.0688 23.1655C24.0688 23.1685 24.0688 23.1714 24.0688 23.1744C24.0688 23.1774 24.0688 23.1803 24.0688 23.1833C24.0688 23.1862 24.0688 23.1891 24.0688 23.192C24.0688 23.1949 24.0688 23.1979 24.0688 23.2007C24.0688 23.2036 24.0688 23.2065 24.0688 23.2094C24.0688 23.2123 24.0688 23.2151 24.0688 23.218C24.0688 23.2208 24.0688 23.2237 24.0688 23.2265C24.0688 23.2293 24.0688 23.2321 24.0688 23.235C24.0688 23.2378 24.0688 23.2406 24.0688 23.2433C24.0688 23.2461 24.0688 23.2489 24.0688 23.2517C24.0688 23.2544 24.0688 23.2572 24.0688 23.2599C24.0688 23.2627 24.0688 23.2654 24.0688 23.2681C24.0688 23.2708 24.0688 23.2735 24.0688 23.2762C24.0688 23.2789 24.0688 23.2816 24.0688 23.2843C24.0688 23.287 24.0688 23.2896 24.0688 23.2923C24.0688 23.2949 24.0688 23.2976 24.0688 23.3002C24.0688 23.3028 24.0688 23.3055 24.0688 23.3081C24.0688 23.3107 24.0688 23.3133 24.0688 23.3159C24.0688 23.3184 24.0688 23.321 24.0688 23.3236C24.0688 23.3261 24.0688 23.3287 24.0688 23.3312C24.0688 23.3338 24.0688 23.3363 24.0688 23.3388C24.0688 23.3413 24.0688 23.3439 24.0688 23.3463C24.0688 23.3488 24.0688 23.3513 24.0688 23.3538C24.0688 23.3563 24.0688 23.3587 24.0688 23.3612C24.0688 23.3636 24.0688 23.3661 24.0688 23.3685C24.0688 23.3709 24.0688 23.3733 24.0688 23.3757C24.0688 23.3781 24.0688 23.3805 24.0688 23.3829C24.0688 23.3853 24.0688 23.3877 24.0688 23.39C24.0688 23.3924 24.0688 23.3947 24.0688 23.397C24.0688 23.3994 24.0688 23.4017 24.0688 23.404C24.0688 23.4063 24.0688 23.4086 24.0688 23.4109C24.0688 23.4132 24.0688 23.4155 24.0688 23.4177C24.0688 23.42 24.0688 23.4223 24.0688 23.4245C24.0688 23.4267 24.0688 23.429 24.0688 23.4312C24.0688 23.4334 24.0688 23.4356 24.0688 23.4378C24.0688 23.44 24.0688 23.4422 24.0688 23.4443C24.0688 23.4465 24.0688 23.4487 24.0688 23.4508C24.0688 23.453 24.0688 23.4551 24.0688 23.4572C24.0688 23.4593 24.0688 23.4614 24.0688 23.4635C24.0688 23.4656 24.0688 23.4677 24.0688 23.4698C24.0688 23.4719 24.0688 23.4739 24.0688 23.476C24.0688 23.478 24.0688 23.4801 24.0688 23.4821C24.0688 23.4841 24.0688 23.4861 24.0688 23.4881C24.0688 23.4901 24.0688 23.4921 24.0688 23.4941C24.0688 23.4961 24.0688 23.498 24.0688 23.5H25.0688H26.0688C26.0688 23.498 26.0688 23.4961 26.0688 23.4941C26.0688 23.4921 26.0688 23.4901 26.0688 23.4881C26.0688 23.4861 26.0688 23.4841 26.0688 23.4821C26.0688 23.4801 26.0688 23.478 26.0688 23.476C26.0688 23.4739 26.0688 23.4719 26.0688 23.4698C26.0688 23.4677 26.0688 23.4656 26.0688 23.4635C26.0688 23.4614 26.0688 23.4593 26.0688 23.4572C26.0688 23.4551 26.0688 23.453 26.0688 23.4508C26.0688 23.4487 26.0688 23.4465 26.0688 23.4443C26.0688 23.4422 26.0688 23.44 26.0688 23.4378C26.0688 23.4356 26.0688 23.4334 26.0688 23.4312C26.0688 23.429 26.0688 23.4267 26.0688 23.4245C26.0688 23.4223 26.0688 23.42 26.0688 23.4177C26.0688 23.4155 26.0688 23.4132 26.0688 23.4109C26.0688 23.4086 26.0688 23.4063 26.0688 23.404C26.0688 23.4017 26.0688 23.3994 26.0688 23.397C26.0688 23.3947 26.0688 23.3924 26.0688 23.39C26.0688 23.3877 26.0688 23.3853 26.0688 23.3829C26.0688 23.3805 26.0688 23.3781 26.0688 23.3757C26.0688 23.3733 26.0688 23.3709 26.0688 23.3685C26.0688 23.3661 26.0688 23.3636 26.0688 23.3612C26.0688 23.3587 26.0688 23.3563 26.0688 23.3538C26.0688 23.3513 26.0688 23.3488 26.0688 23.3463C26.0688 23.3439 26.0688 23.3413 26.0688 23.3388C26.0688 23.3363 26.0688 23.3338 26.0688 23.3312C26.0688 23.3287 26.0688 23.3261 26.0688 23.3236C26.0688 23.321 26.0688 23.3184 26.0688 23.3159C26.0688 23.3133 26.0688 23.3107 26.0688 23.3081C26.0688 23.3055 26.0688 23.3028 26.0688 23.3002C26.0688 23.2976 26.0688 23.2949 26.0688 23.2923C26.0688 23.2896 26.0688 23.287 26.0688 23.2843C26.0688 23.2816 26.0688 23.2789 26.0688 23.2762C26.0688 23.2735 26.0688 23.2708 26.0688 23.2681C26.0688 23.2654 26.0688 23.2627 26.0688 23.2599C26.0688 23.2572 26.0688 23.2544 26.0688 23.2517C26.0688 23.2489 26.0688 23.2461 26.0688 23.2433C26.0688 23.2406 26.0688 23.2378 26.0688 23.235C26.0688 23.2321 26.0688 23.2293 26.0688 23.2265C26.0688 23.2237 26.0688 23.2208 26.0688 23.218C26.0688 23.2151 26.0688 23.2123 26.0688 23.2094C26.0688 23.2065 26.0688 23.2036 26.0688 23.2007C26.0688 23.1979 26.0688 23.1949 26.0688 23.192C26.0688 23.1891 26.0688 23.1862 26.0688 23.1833C26.0688 23.1803 26.0688 23.1774 26.0688 23.1744C26.0688 23.1714 26.0688 23.1685 26.0688 23.1655C26.0688 23.1625 26.0688 23.1595 26.0688 23.1565C26.0688 23.1535 26.0688 23.1505 26.0688 23.1475C26.0688 23.1445 26.0688 23.1414 26.0688 23.1384C26.0688 23.1353 26.0688 23.1323 26.0688 23.1292C26.0688 23.1262 26.0688 23.1231 26.0688 23.12C26.0688 23.1169 26.0688 23.1138 26.0688 23.1107C26.0688 23.1076 26.0688 23.1045 26.0688 23.1014C26.0688 23.0982 26.0688 23.0951 26.0688 23.0919C26.0688 23.0888 26.0688 23.0856 26.0688 23.0825C26.0688 23.0793 26.0688 23.0761 26.0688 23.0729C26.0688 23.0697 26.0688 23.0665 26.0688 23.0633C26.0688 23.0601 26.0688 23.0569 26.0688 23.0537C26.0688 23.0504 26.0688 23.0472 26.0688 23.0439C26.0688 23.0407 26.0688 23.0374 26.0688 23.0342C26.0688 23.0309 26.0688 23.0276 26.0688 23.0243C26.0688 23.021 26.0688 23.0177 26.0688 23.0144C26.0688 23.0111 26.0688 23.0078 26.0688 23.0044C26.0688 23.0011 26.0688 22.9978 26.0688 22.9944C26.0688 22.991 26.0688 22.9877 26.0688 22.9843C26.0688 22.9809 26.0688 22.9776 26.0688 22.9742C26.0688 22.9708 26.0688 22.9674 26.0688 22.964C26.0688 22.9605 26.0688 22.9571 26.0688 22.9537C26.0688 22.9502 26.0688 22.9468 26.0688 22.9434C26.0688 22.9399 26.0688 22.9364 26.0688 22.933C26.0688 22.9295 26.0688 22.926 26.0688 22.9225C26.0688 22.919 26.0688 22.9155 26.0688 22.912C26.0688 22.9085 26.0688 22.905 26.0688 22.9014C26.0688 22.8979 26.0688 22.8944 26.0688 22.8908C26.0688 22.8873 26.0688 22.8837 26.0688 22.8801C26.0688 22.8766 26.0688 22.873 26.0688 22.8694C26.0688 22.8658 26.0688 22.8622 26.0688 22.8586C26.0688 22.855 26.0688 22.8514 26.0688 22.8477C26.0688 22.8441 26.0688 22.8405 26.0688 22.8368C26.0688 22.8332 26.0688 22.8295 26.0688 22.8258C26.0688 22.8222 26.0688 22.8185 26.0688 22.8148C26.0688 22.8111 26.0688 22.8074 26.0688 22.8037C26.0688 22.8 26.0688 22.7963 26.0688 22.7926C26.0688 22.7889 26.0688 22.7851 26.0688 22.7814C26.0688 22.7776 26.0688 22.7739 26.0688 22.7701C26.0688 22.7664 26.0688 22.7626 26.0688 22.7588C26.0688 22.755 26.0688 22.7513 26.0688 22.7475C26.0688 22.7437 26.0688 22.7398 26.0688 22.736C26.0688 22.7322 26.0688 22.7284 26.0688 22.7245C26.0688 22.7207 26.0688 22.7169 26.0688 22.713C26.0688 22.7092 26.0688 22.7053 26.0688 22.7014C26.0688 22.6975 26.0688 22.6937 26.0688 22.6898C26.0688 22.6859 26.0688 22.682 26.0688 22.6781C26.0688 22.6742 26.0688 22.6702 26.0688 22.6663C26.0688 22.6624 26.0688 22.6585 26.0688 22.6545C26.0688 22.6506 26.0688 22.6466 26.0688 22.6426C26.0688 22.6387 26.0688 22.6347 26.0688 22.6307C26.0688 22.6267 26.0688 22.6228 26.0688 22.6188C26.0688 22.6148 26.0688 22.6107 26.0688 22.6067C26.0688 22.6027 26.0688 22.5987 26.0688 22.5947C26.0688 22.5906 26.0688 22.5866 26.0688 22.5825C26.0688 22.5785 26.0688 22.5744 26.0688 22.5703C26.0688 22.5663 26.0688 22.5622 26.0688 22.5581C26.0688 22.554 26.0688 22.5499 26.0688 22.5458C26.0688 22.5417 26.0688 22.5376 26.0688 22.5335C26.0688 22.5293 26.0688 22.5252 26.0688 22.5211C26.0688 22.5169 26.0688 22.5128 26.0688 22.5086C26.0688 22.5045 26.0688 22.5003 26.0688 22.4961C26.0688 22.4919 26.0688 22.4878 26.0688 22.4836C26.0688 22.4794 26.0688 22.4752 26.0688 22.471C26.0688 22.4668 26.0688 22.4625 26.0688 22.4583C26.0688 22.4541 26.0688 22.4498 26.0688 22.4456C26.0688 22.4414 26.0688 22.4371 26.0688 22.4328C26.0688 22.4286 26.0688 22.4243 26.0688 22.42C26.0688 22.4158 26.0688 22.4115 26.0688 22.4072C26.0688 22.4029 26.0688 22.3986 26.0688 22.3943C26.0688 22.39 26.0688 22.3856 26.0688 22.3813C26.0688 22.377 26.0688 22.3727 26.0688 22.3683C26.0688 22.364 26.0688 22.3596 26.0688 22.3553C26.0688 22.3509 26.0688 22.3465 26.0688 22.3422C26.0688 22.3378 26.0688 22.3334 26.0688 22.329C26.0688 22.3246 26.0688 22.3202 26.0688 22.3158C26.0688 22.3114 26.0688 22.307 26.0688 22.3025C26.0688 22.2981 26.0688 22.2937 26.0688 22.2892C26.0688 22.2848 26.0688 22.2803 26.0688 22.2759C26.0688 22.2714 26.0688 22.267 26.0688 22.2625C26.0688 22.258 26.0688 22.2535 26.0688 22.249C26.0688 22.2445 26.0688 22.24 26.0688 22.2355C26.0688 22.231 26.0688 22.2265 26.0688 22.222C26.0688 22.2175 26.0688 22.2129 26.0688 22.2084C26.0688 22.2039 26.0688 22.1993 26.0688 22.1948C26.0688 22.1902 26.0688 22.1857 26.0688 22.1811C26.0688 22.1765 26.0688 22.1719 26.0688 22.1674C26.0688 22.1628 26.0688 22.1582 26.0688 22.1536C26.0688 22.149 26.0688 22.1444 26.0688 22.1398C26.0688 22.1351 26.0688 22.1305 26.0688 22.1259C26.0688 22.1213 26.0688 22.1166 26.0688 22.112C26.0688 22.1073 26.0688 22.1027 26.0688 22.098C26.0688 22.0933 26.0688 22.0887 26.0688 22.084C26.0688 22.0793 26.0688 22.0746 26.0688 22.0699C26.0688 22.0653 26.0688 22.0606 26.0688 22.0558C26.0688 22.0511 26.0688 22.0464 26.0688 22.0417C26.0688 22.037 26.0688 22.0322 26.0688 22.0275C26.0688 22.0228 26.0688 22.018 26.0688 22.0133C26.0688 22.0085 26.0688 22.0038 26.0688 21.999C26.0688 21.9942 26.0688 21.9895 26.0688 21.9847C26.0688 21.9799 26.0688 21.9751 26.0688 21.9703C26.0688 21.9655 26.0688 21.9607 26.0688 21.9559C26.0688 21.9511 26.0688 21.9463 26.0688 21.9414C26.0688 21.9366 26.0688 21.9318 26.0688 21.9269C26.0688 21.9221 26.0688 21.9173 26.0688 21.9124C26.0688 21.9075 26.0688 21.9027 26.0688 21.8978C26.0688 21.893 26.0688 21.8881 26.0688 21.8832C26.0688 21.8783 26.0688 21.8734 26.0688 21.8685C26.0688 21.8636 26.0688 21.8587 26.0688 21.8538C26.0688 21.8489 26.0688 21.844 26.0688 21.8391C26.0688 21.8341 26.0688 21.8292 26.0688 21.8243C26.0688 21.8193 26.0688 21.8144 26.0688 21.8094C26.0688 21.8045 26.0688 21.7995 26.0688 21.7945C26.0688 21.7896 26.0688 21.7846 26.0688 21.7796C26.0688 21.7746 26.0688 21.7696 26.0688 21.7647C26.0688 21.7597 26.0688 21.7547 26.0688 21.7496C26.0688 21.7446 26.0688 21.7396 26.0688 21.7346C26.0688 21.7296 26.0688 21.7246 26.0688 21.7195C26.0688 21.7145 26.0688 21.7094 26.0688 21.7044C26.0688 21.6993 26.0688 21.6943 26.0688 21.6892C26.0688 21.6842 26.0688 21.6791 26.0688 21.674C26.0688 21.6689 26.0688 21.6639 26.0688 21.6588C26.0688 21.6537 26.0688 21.6486 26.0688 21.6435C26.0688 21.6384 26.0688 21.6333 26.0688 21.6282C26.0688 21.623 26.0688 21.6179 26.0688 21.6128C26.0688 21.6077 26.0688 21.6025 26.0688 21.5974C26.0688 21.5922 26.0688 21.5871 26.0688 21.5819C26.0688 21.5768 26.0688 21.5716 26.0688 21.5665C26.0688 21.5613 26.0688 21.5561 26.0688 21.5509C26.0688 21.5458 26.0688 21.5406 26.0688 21.5354C26.0688 21.5302 26.0688 21.525 26.0688 21.5198C26.0688 21.5146 26.0688 21.5094 26.0688 21.5041C26.0688 21.4989 26.0688 21.4937 26.0688 21.4885C26.0688 21.4832 26.0688 21.478 26.0688 21.4728C26.0688 21.4675 26.0688 21.4623 26.0688 21.457C26.0688 21.4518 26.0688 21.4465 26.0688 21.4412C26.0688 21.436 26.0688 21.4307 26.0688 21.4254C26.0688 21.4201 26.0688 21.4148 26.0688 21.4095C26.0688 21.4043 26.0688 21.399 26.0688 21.3937C26.0688 21.3883 26.0688 21.383 26.0688 21.3777C26.0688 21.3724 26.0688 21.3671 26.0688 21.3618C26.0688 21.3564 26.0688 21.3511 26.0688 21.3457C26.0688 21.3404 26.0688 21.3351 26.0688 21.3297C26.0688 21.3244 26.0688 21.319 26.0688 21.3136C26.0688 21.3083 26.0688 21.3029 26.0688 21.2975C26.0688 21.2921 26.0688 21.2868 26.0688 21.2814C26.0688 21.276 26.0688 21.2706 26.0688 21.2652C26.0688 21.2598 26.0688 21.2544 26.0688 21.249C26.0688 21.2436 26.0688 21.2382 26.0688 21.2327C26.0688 21.2273 26.0688 21.2219 26.0688 21.2164C26.0688 21.211 26.0688 21.2056 26.0688 21.2001C26.0688 21.1947 26.0688 21.1892 26.0688 21.1838C26.0688 21.1783 26.0688 21.1729 26.0688 21.1674C26.0688 21.1619 26.0688 21.1564 26.0688 21.151C26.0688 21.1455 26.0688 21.14 26.0688 21.1345C26.0688 21.129 26.0688 21.1235 26.0688 21.118C26.0688 21.1125 26.0688 21.107 26.0688 21.1015C26.0688 21.096 26.0688 21.0905 26.0688 21.085C26.0688 21.0794 26.0688 21.0739 26.0688 21.0684C26.0688 21.0628 26.0688 21.0573 26.0688 21.0518C26.0688 21.0462 26.0688 21.0407 26.0688 21.0351C26.0688 21.0296 26.0688 21.024 26.0688 21.0184C26.0688 21.0129 26.0688 21.0073 26.0688 21.0017C26.0688 20.9961 26.0688 20.9906 26.0688 20.985C26.0688 20.9794 26.0688 20.9738 26.0688 20.9682C26.0688 20.9626 26.0688 20.957 26.0688 20.9514C26.0688 20.9458 26.0688 20.9402 26.0688 20.9345C26.0688 20.9289 26.0688 20.9233 26.0688 20.9177C26.0688 20.9121 26.0688 20.9064 26.0688 20.9008C26.0688 20.8951 26.0688 20.8895 26.0688 20.8838C26.0688 20.8782 26.0688 20.8725 26.0688 20.8669C26.0688 20.8612 26.0688 20.8556 26.0688 20.8499C26.0688 20.8442 26.0688 20.8386 26.0688 20.8329C26.0688 20.8272 26.0688 20.8215 26.0688 20.8158C26.0688 20.8101 26.0688 20.8045 26.0688 20.7988C26.0688 20.7931 26.0688 20.7874 26.0688 20.7816C26.0688 20.7759 26.0688 20.7702 26.0688 20.7645C26.0688 20.7588 26.0688 20.7531 26.0688 20.7473C26.0688 20.7416 26.0688 20.7359 26.0688 20.7301C26.0688 20.7244 26.0688 20.7187 26.0688 20.7129C26.0688 20.7072 26.0688 20.7014 26.0688 20.6957C26.0688 20.6899 26.0688 20.6842 26.0688 20.6784C26.0688 20.6726 26.0688 20.6669 26.0688 20.6611C26.0688 20.6553 26.0688 20.6495 26.0688 20.6438C26.0688 20.638 26.0688 20.6322 26.0688 20.6264C26.0688 20.6206 26.0688 20.6148 26.0688 20.609C26.0688 20.6032 26.0688 20.5974 26.0688 20.5916C26.0688 20.5858 26.0688 20.58 26.0688 20.5741C26.0688 20.5683 26.0688 20.5625 26.0688 20.5567C26.0688 20.5508 26.0688 20.545 26.0688 20.5392C26.0688 20.5333 26.0688 20.5275 26.0688 20.5217C26.0688 20.5158 26.0688 20.51 26.0688 20.5041C26.0688 20.4983 26.0688 20.4924 26.0688 20.4865C26.0688 20.4807 26.0688 20.4748 26.0688 20.4689C26.0688 20.4631 26.0688 20.4572 26.0688 20.4513C26.0688 20.4454 26.0688 20.4396 26.0688 20.4337C26.0688 20.4278 26.0688 20.4219 26.0688 20.416C26.0688 20.4101 26.0688 20.4042 26.0688 20.3983C26.0688 20.3924 26.0688 20.3865 26.0688 20.3806C26.0688 20.3747 26.0688 20.3687 26.0688 20.3628C26.0688 20.3569 26.0688 20.351 26.0688 20.345C26.0688 20.3391 26.0688 20.3332 26.0688 20.3272C26.0688 20.3213 26.0688 20.3154 26.0688 20.3094C26.0688 20.3035 26.0688 20.2975 26.0688 20.2916C26.0688 20.2856 26.0688 20.2797 26.0688 20.2737C26.0688 20.2678 26.0688 20.2618 26.0688 20.2558C26.0688 20.2499 26.0688 20.2439 26.0688 20.2379C26.0688 20.2319 26.0688 20.226 26.0688 20.22C26.0688 20.214 26.0688 20.208 26.0688 20.202C26.0688 20.196 26.0688 20.19 26.0688 20.184C26.0688 20.178 26.0688 20.172 26.0688 20.166C26.0688 20.16 26.0688 20.154 26.0688 20.148C26.0688 20.142 26.0688 20.136 26.0688 20.1299C26.0688 20.1239 26.0688 20.1179 26.0688 20.1119C26.0688 20.1059 26.0688 20.0998 26.0688 20.0938C26.0688 20.0878 26.0688 20.0817 26.0688 20.0757C26.0688 20.0696 26.0688 20.0636 26.0688 20.0575C26.0688 20.0515 26.0688 20.0454 26.0688 20.0394C26.0688 20.0333 26.0688 20.0273 26.0688 20.0212C26.0688 20.0152 26.0688 20.0091 26.0688 20.003C26.0688 19.997 26.0688 19.9909 26.0688 19.9848C26.0688 19.9787 26.0688 19.9726 26.0688 19.9666C26.0688 19.9605 26.0688 19.9544 26.0688 19.9483C26.0688 19.9422 26.0688 19.9361 26.0688 19.93C26.0688 19.9239 26.0688 19.9178 26.0688 19.9117C26.0688 19.9056 26.0688 19.8995 26.0688 19.8934C26.0688 19.8873 26.0688 19.8812 26.0688 19.8751C26.0688 19.869 26.0688 19.8629 26.0688 19.8567C26.0688 19.8506 26.0688 19.8445 26.0688 19.8384C26.0688 19.8322 26.0688 19.8261 26.0688 19.82C26.0688 19.8139 26.0688 19.8077 26.0688 19.8016C26.0688 19.7954 26.0688 19.7893 26.0688 19.7832C26.0688 19.777 26.0688 19.7709 26.0688 19.7647C26.0688 19.7586 26.0688 19.7524 26.0688 19.7462C26.0688 19.7401 26.0688 19.7339 26.0688 19.7278C26.0688 19.7216 26.0688 19.7154 26.0688 19.7093C26.0688 19.7031 26.0688 19.6969 26.0688 19.6908C26.0688 19.6846 26.0688 19.6784 26.0688 19.6722C26.0688 19.6661 26.0688 19.6599 26.0688 19.6537C26.0688 19.6475 26.0688 19.6413 26.0688 19.6351C26.0688 19.6289 26.0688 19.6227 26.0688 19.6165C26.0688 19.6104 26.0688 19.6042 26.0688 19.598C26.0688 19.5918 26.0688 19.5855 26.0688 19.5793C26.0688 19.5731 26.0688 19.5669 26.0688 19.5607C26.0688 19.5545 26.0688 19.5483 26.0688 19.5421C26.0688 19.5359 26.0688 19.5296 26.0688 19.5234C26.0688 19.5172 26.0688 19.511 26.0688 19.5047C26.0688 19.4985 26.0688 19.4923 26.0688 19.4861C26.0688 19.4798 26.0688 19.4736 26.0688 19.4674C26.0688 19.4611 26.0688 19.4549 26.0688 19.4486C26.0688 19.4424 26.0688 19.4362 26.0688 19.4299C26.0688 19.4237 26.0688 19.4174 26.0688 19.4112C26.0688 19.4049 26.0688 19.3987 26.0688 19.3924C26.0688 19.3862 26.0688 19.3799 26.0688 19.3736C26.0688 19.3674 26.0688 19.3611 26.0688 19.3548C26.0688 19.3486 26.0688 19.3423 26.0688 19.3361C26.0688 19.3298 26.0688 19.3235 26.0688 19.3172C26.0688 19.311 26.0688 19.3047 26.0688 19.2984C26.0688 19.2921 26.0688 19.2859 26.0688 19.2796C26.0688 19.2733 26.0688 19.267 26.0688 19.2607C26.0688 19.2544 26.0688 19.2482 26.0688 19.2419C26.0688 19.2356 26.0688 19.2293 26.0688 19.223C26.0688 19.2167 26.0688 19.2104 26.0688 19.2041C26.0688 19.1978 26.0688 19.1915 26.0688 19.1852C26.0688 19.1789 26.0688 19.1726 26.0688 19.1663C26.0688 19.16 26.0688 19.1537 26.0688 19.1474C26.0688 19.1411 26.0688 19.1348 26.0688 19.1284C26.0688 19.1221 26.0688 19.1158 26.0688 19.1095C26.0688 19.1032 26.0688 19.0969 26.0688 19.0905C26.0688 19.0842 26.0688 19.0779 26.0688 19.0716C26.0688 19.0653 26.0688 19.0589 26.0688 19.0526C26.0688 19.0463 26.0688 19.04 26.0688 19.0336C26.0688 19.0273 26.0688 19.021 26.0688 19.0146C26.0688 19.0083 26.0688 19.002 26.0688 18.9956C26.0688 18.9893 26.0688 18.983 26.0688 18.9766C26.0688 18.9703 26.0688 18.9639 26.0688 18.9576C26.0688 18.9513 26.0688 18.9449 26.0688 18.9386C26.0688 18.9322 26.0688 18.9259 26.0688 18.9195C26.0688 18.9132 26.0688 18.9068 26.0688 18.9005C26.0688 18.8941 26.0688 18.8878 26.0688 18.8814C26.0688 18.8751 26.0688 18.8687 26.0688 18.8623C26.0688 18.856 26.0688 18.8496 26.0688 18.8433C26.0688 18.8369 26.0688 18.8306 26.0688 18.8242C26.0688 18.8178 26.0688 18.8115 26.0688 18.8051C26.0688 18.7987 26.0688 18.7924 26.0688 18.786C26.0688 18.7796 26.0688 18.7733 26.0688 18.7669C26.0688 18.7605 26.0688 18.7542 26.0688 18.7478C26.0688 18.7414 26.0688 18.735 26.0688 18.7287C26.0688 18.7223 26.0688 18.7159 26.0688 18.7095C26.0688 18.7032 26.0688 18.6968 26.0688 18.6904C26.0688 18.684 26.0688 18.6777 26.0688 18.6713C26.0688 18.6649 26.0688 18.6585 26.0688 18.6521C26.0688 18.6457 26.0688 18.6394 26.0688 18.633C26.0688 18.6266 26.0688 18.6202 26.0688 18.6138C26.0688 18.6074 26.0688 18.601 26.0688 18.5947C26.0688 18.5883 26.0688 18.5819 26.0688 18.5755C26.0688 18.5691 26.0688 18.5627 26.0688 18.5563C26.0688 18.5499 26.0688 18.5435 26.0688 18.5371C26.0688 18.5308 26.0688 18.5244 26.0688 18.518C26.0688 18.5116 26.0688 18.5052 26.0688 18.4988C26.0688 18.4924 26.0688 18.486 26.0688 18.4796C26.0688 18.4732 26.0688 18.4668 26.0688 18.4604C26.0688 18.454 26.0688 18.4476 26.0688 18.4412C26.0688 18.4348 26.0688 18.4284 26.0688 18.422C26.0688 18.4156 26.0688 18.4092 26.0688 18.4028C26.0688 18.3964 26.0688 18.39 26.0688 18.3836C26.0688 18.3772 26.0688 18.3708 26.0688 18.3644C26.0688 18.358 26.0688 18.3516 26.0688 18.3451C26.0688 18.3387 26.0688 18.3323 26.0688 18.3259C26.0688 18.3195 26.0688 18.3131 26.0688 18.3067C26.0688 18.3003 26.0688 18.2939 26.0688 18.2875C26.0688 18.2811 26.0688 18.2747 26.0688 18.2683C26.0688 18.2619 26.0688 18.2554 26.0688 18.249C26.0688 18.2426 26.0688 18.2362 26.0688 18.2298C26.0688 18.2234 26.0688 18.217 26.0688 18.2106C26.0688 18.2042 26.0688 18.1978 26.0688 18.1913C26.0688 18.1849 26.0688 18.1785 26.0688 18.1721C26.0688 18.1657 26.0688 18.1593 26.0688 18.1529C26.0688 18.1465 26.0688 18.1401 26.0688 18.1336C26.0688 18.1272 26.0688 18.1208 26.0688 18.1144C26.0688 18.108 26.0688 18.1016 26.0688 18.0952C26.0688 18.0888 26.0688 18.0823 26.0688 18.0759C26.0688 18.0695 26.0688 18.0631 26.0688 18.0567C26.0688 18.0503 26.0688 18.0439 26.0688 18.0375C26.0688 18.0311 26.0688 18.0246 26.0688 18.0182C26.0688 18.0118 26.0688 18.0054 26.0688 17.999C26.0688 17.9926 26.0688 17.9862 26.0688 17.9798C26.0688 17.9734 26.0688 17.9669 26.0688 17.9605C26.0688 17.9541 26.0688 17.9477 26.0688 17.9413C26.0688 17.9349 26.0688 17.9285 26.0688 17.9221C26.0688 17.9157 26.0688 17.9093 26.0688 17.9028C26.0688 17.8964 26.0688 17.89 26.0688 17.8836C26.0688 17.8772 26.0688 17.8708 26.0688 17.8644C26.0688 17.858 26.0688 17.8516 26.0688 17.8452C26.0688 17.8388 26.0688 17.8324 26.0688 17.8259C26.0688 17.8195 26.0688 17.8131 26.0688 17.8067C26.0688 17.8003 26.0688 17.7939 26.0688 17.7875C26.0688 17.7811 26.0688 17.7747 26.0688 17.7683C26.0688 17.7619 26.0688 17.7555 26.0688 17.7491C26.0688 17.7427 26.0688 17.7363 26.0688 17.7299C26.0688 17.7235 26.0688 17.7171 26.0688 17.7107C26.0688 17.7043 26.0688 17.6979 26.0688 17.6915C26.0688 17.6851 26.0688 17.6787 26.0688 17.6723C26.0688 17.6659 26.0688 17.6595 26.0688 17.6531C26.0688 17.6467 26.0688 17.6403 26.0688 17.6339C26.0688 17.6275 26.0688 17.6211 26.0688 17.6148C26.0688 17.6084 26.0688 17.602 26.0688 17.5956C26.0688 17.5892 26.0688 17.5828 26.0688 17.5764C26.0688 17.57 26.0688 17.5636 26.0688 17.5572C26.0688 17.5509 26.0688 17.5445 26.0688 17.5381C26.0688 17.5317 26.0688 17.5253 26.0688 17.5189C26.0688 17.5125 26.0688 17.5062 26.0688 17.4998C26.0688 17.4934 26.0688 17.487 26.0688 17.4806C26.0688 17.4743 26.0688 17.4679 26.0688 17.4615C26.0688 17.4551 26.0688 17.4488 26.0688 17.4424C26.0688 17.436 26.0688 17.4296 26.0688 17.4233C26.0688 17.4169 26.0688 17.4105 26.0688 17.4041C26.0688 17.3978 26.0688 17.3914 26.0688 17.385C26.0688 17.3787 26.0688 17.3723 26.0688 17.3659C26.0688 17.3596 26.0688 17.3532 26.0688 17.3468C26.0688 17.3405 26.0688 17.3341 26.0688 17.3277C26.0688 17.3214 26.0688 17.315 26.0688 17.3087C26.0688 17.3023 26.0688 17.296 26.0688 17.2896C26.0688 17.2832 26.0688 17.2769 26.0688 17.2705C26.0688 17.2642 26.0688 17.2578 26.0688 17.2515C26.0688 17.2451 26.0688 17.2388 26.0688 17.2324C26.0688 17.2261 26.0688 17.2197 26.0688 17.2134C26.0688 17.2071 26.0688 17.2007 26.0688 17.1944C26.0688 17.188 26.0688 17.1817 26.0688 17.1754C26.0688 17.169 26.0688 17.1627 26.0688 17.1563C26.0688 17.15 26.0688 17.1437 26.0688 17.1373C26.0688 17.131 26.0688 17.1247 26.0688 17.1184C26.0688 17.112 26.0688 17.1057 26.0688 17.0994C26.0688 17.093 26.0688 17.0867 26.0688 17.0804C26.0688 17.0741 26.0688 17.0678 26.0688 17.0614C26.0688 17.0551 26.0688 17.0488 26.0688 17.0425C26.0688 17.0362 26.0688 17.0299 26.0688 17.0236C26.0688 17.0172 26.0688 17.0109 26.0688 17.0046C26.0688 16.9983 26.0688 16.992 26.0688 16.9857C26.0688 16.9794 26.0688 16.9731 26.0688 16.9668C26.0688 16.9605 26.0688 16.9542 26.0688 16.9479C26.0688 16.9416 26.0688 16.9353 26.0688 16.929C26.0688 16.9227 26.0688 16.9165 26.0688 16.9102C26.0688 16.9039 26.0688 16.8976 26.0688 16.8913C26.0688 16.885 26.0688 16.8787 26.0688 16.8725C26.0688 16.8662 26.0688 16.8599 26.0688 16.8536C26.0688 16.8474 26.0688 16.8411 26.0688 16.8348C26.0688 16.8285 26.0688 16.8223 26.0688 16.816C26.0688 16.8097 26.0688 16.8035 26.0688 16.7972C26.0688 16.791 26.0688 16.7847 26.0688 16.7784C26.0688 16.7722 26.0688 16.7659 26.0688 16.7597C26.0688 16.7534 26.0688 16.7472 26.0688 16.7409C26.0688 16.7347 26.0688 16.7284 26.0688 16.7222C26.0688 16.7159 26.0688 16.7097 26.0688 16.7035C26.0688 16.6972 26.0688 16.691 26.0688 16.6847C26.0688 16.6785 26.0688 16.6723 26.0688 16.666C26.0688 16.6598 26.0688 16.6536 26.0688 16.6474C26.0688 16.6411 26.0688 16.6349 26.0688 16.6287C26.0688 16.6225 26.0688 16.6163 26.0688 16.6101C26.0688 16.6038 26.0688 16.5976 26.0688 16.5914C26.0688 16.5852 26.0688 16.579 26.0688 16.5728C26.0688 16.5666 26.0688 16.5604 26.0688 16.5542C26.0688 16.548 26.0688 16.5418 26.0688 16.5356C26.0688 16.5294 26.0688 16.5232 26.0688 16.517C26.0688 16.5108 26.0688 16.5047 26.0688 16.4985C26.0688 16.4923 26.0688 16.4861 26.0688 16.4799C26.0688 16.4738 26.0688 16.4676 26.0688 16.4614C26.0688 16.4552 26.0688 16.4491 26.0688 16.4429C26.0688 16.4367 26.0688 16.4306 26.0688 16.4244C26.0688 16.4183 26.0688 16.4121 26.0688 16.406C26.0688 16.3998 26.0688 16.3936 26.0688 16.3875C26.0688 16.3814 26.0688 16.3752 26.0688 16.3691C26.0688 16.3629 26.0688 16.3568 26.0688 16.3506C26.0688 16.3445 26.0688 16.3384 26.0688 16.3322C26.0688 16.3261 26.0688 16.32 26.0688 16.3139C26.0688 16.3077 26.0688 16.3016 26.0688 16.2955C26.0688 16.2894 26.0688 16.2833 26.0688 16.2772C26.0688 16.271 26.0688 16.2649 26.0688 16.2588C26.0688 16.2527 26.0688 16.2466 26.0688 16.2405C26.0688 16.2344 26.0688 16.2283 26.0688 16.2222C26.0688 16.2162 26.0688 16.2101 26.0688 16.204C26.0688 16.1979 26.0688 16.1918 26.0688 16.1857C26.0688 16.1797 26.0688 16.1736 26.0688 16.1675C26.0688 16.1614 26.0688 16.1554 26.0688 16.1493C26.0688 16.1432 26.0688 16.1372 26.0688 16.1311C26.0688 16.125 26.0688 16.119 26.0688 16.1129C26.0688 16.1069 26.0688 16.1008 26.0688 16.0948C26.0688 16.0888 26.0688 16.0827 26.0688 16.0767C26.0688 16.0706 26.0688 16.0646 26.0688 16.0586C26.0688 16.0525 26.0688 16.0465 26.0688 16.0405C26.0688 16.0345 26.0688 16.0284 26.0688 16.0224C26.0688 16.0164 26.0688 16.0104 26.0688 16.0044C26.0688 15.9984 26.0688 15.9924 26.0688 15.9864C26.0688 15.9804 26.0688 15.9744 26.0688 15.9684C26.0688 15.9624 26.0688 15.9564 26.0688 15.9504C26.0688 15.9444 26.0688 15.9384 26.0688 15.9325C26.0688 15.9265 26.0688 15.9205 26.0688 15.9145C26.0688 15.9086 26.0688 15.9026 26.0688 15.8966C26.0688 15.8907 26.0688 15.8847 26.0688 15.8787C26.0688 15.8728 26.0688 15.8668 26.0688 15.8609C26.0688 15.8549 26.0688 15.849 26.0688 15.843C26.0688 15.8371 26.0688 15.8312 26.0688 15.8252C26.0688 15.8193 26.0688 15.8134 26.0688 15.8075C26.0688 15.8015 26.0688 15.7956 26.0688 15.7897C26.0688 15.7838 26.0688 15.7779 26.0688 15.772C26.0688 15.766 26.0688 15.7601 26.0688 15.7542C26.0688 15.7483 26.0688 15.7424 26.0688 15.7365C26.0688 15.7307 26.0688 15.7248 26.0688 15.7189C26.0688 15.713 26.0688 15.7071 26.0688 15.7012C26.0688 15.6954 26.0688 15.6895 26.0688 15.6836C26.0688 15.6778 26.0688 15.6719 26.0688 15.666C26.0688 15.6602 26.0688 15.6543 26.0688 15.6485C26.0688 15.6426 26.0688 15.6368 26.0688 15.6309C26.0688 15.6251 26.0688 15.6193 26.0688 15.6134C26.0688 15.6076 26.0688 15.6018 26.0688 15.5959C26.0688 15.5901 26.0688 15.5843 26.0688 15.5785C26.0688 15.5727 26.0688 15.5669 26.0688 15.5611C26.0688 15.5553 26.0688 15.5495 26.0688 15.5437C26.0688 15.5379 26.0688 15.5321 26.0688 15.5263C26.0688 15.5205 26.0688 15.5147 26.0688 15.5089C26.0688 15.5031 26.0688 15.4974 26.0688 15.4916C26.0688 15.4858 26.0688 15.4801 26.0688 15.4743C26.0688 15.4685 26.0688 15.4628 26.0688 15.457C26.0688 15.4513 26.0688 15.4455 26.0688 15.4398C26.0688 15.4341 26.0688 15.4283 26.0688 15.4226C26.0688 15.4169 26.0688 15.4111 26.0688 15.4054C26.0688 15.3997 26.0688 15.394 26.0688 15.3883H25.0688ZM22.0005 37L21.2723 37.6854C23.2911 39.8301 24.7243 41.1821 25.7134 42.1454C26.7352 43.1406 27.177 43.6286 27.4155 44.116C27.6348 44.5641 27.72 45.096 27.7162 46.3046C27.7143 46.9038 27.6923 47.6217 27.6701 48.545C27.648 49.4613 27.6264 50.5588 27.6264 51.8884H28.6264H29.6264C29.6264 50.5812 29.6476 49.5014 29.6695 48.5931C29.6912 47.6919 29.7142 46.9378 29.7162 46.3109C29.7201 45.0672 29.649 44.13 29.2119 43.2368C28.794 42.3831 28.0794 41.6579 27.1088 40.7126C26.1055 39.7355 24.7103 38.4199 22.7287 36.3146L22.0005 37ZM28.6264 51.8884H27.6264C27.6264 52.7565 27.6262 53.4319 27.6425 53.9439C27.658 54.4329 27.6894 54.8746 27.7896 55.2258C27.908 55.6407 28.1648 56.0636 28.6851 56.2661C29.0414 56.4049 29.4533 56.3889 29.6254 56.3889V55.3889V54.3889C29.298 54.3889 29.3352 54.373 29.4106 54.4024C29.6499 54.4955 29.7193 54.6996 29.7128 54.6769C29.6882 54.5906 29.6572 54.3759 29.6415 53.8805C29.6265 53.4079 29.6264 52.7706 29.6264 51.8884H28.6264ZM39.1612 55.3889V56.3889H48.1258V55.3889V54.3889H39.1612V55.3889ZM31.0008 33L31.448 32.1056C29.4143 31.0887 29.1138 31.0119 27.6798 30.0563L27.1252 30.8884L26.5707 31.7206C28.1367 32.7641 28.5873 32.9113 30.5536 33.8944L31.0008 33ZM35.1235 26.8888L34.8409 27.8481C36.3397 28.2896 37.0485 28.8701 37.3588 29.3505C37.6493 29.8004 37.6783 30.2982 37.4925 30.8364C37.2988 31.3977 36.8785 31.9597 36.3585 32.382C35.8225 32.8173 35.313 33 35.0008 33V34V35C35.9386 35 36.8821 34.5332 37.6194 33.9345C38.3727 33.3227 39.0459 32.466 39.3831 31.4889C39.7282 30.4887 39.7255 29.3285 39.0388 28.2654C38.372 27.233 37.1582 26.4457 35.4061 25.9296L35.1235 26.8888ZM35.0008 34V33C34.0644 33 33.4294 32.8931 32.9245 32.7419C32.4084 32.5874 31.9929 32.378 31.448 32.1056L31.0008 33L30.5536 33.8944C31.0748 34.155 31.6421 34.4457 32.3508 34.6579C33.0707 34.8734 33.9027 35 35.0008 35V34ZM35.0008 34L34.3307 34.7422C35.1921 35.52 36.3567 36.8036 37.2015 38.3896C38.0446 39.9722 38.5383 41.7938 38.1785 43.7037L39.1612 43.8888L40.1439 44.074C40.6131 41.5839 39.9496 39.2944 38.9667 37.4493C37.9856 35.6075 36.6554 34.1466 35.671 33.2578L35.0008 34ZM20.4603 27.8884L19.555 27.4637C18.4486 29.8219 18.0058 31.6077 18.3851 33.2709C18.7563 34.8986 19.8805 36.2068 21.2723 37.6854L22.0005 37L22.7287 36.3146C21.2966 34.7932 20.5689 33.8514 20.3351 32.8262C20.1094 31.8366 20.3084 30.5666 21.3656 28.3132L20.4603 27.8884ZM29.6254 55.3889V56.3889H37.1258V55.3889V54.3889H29.6254V55.3889ZM37.1258 55.3889V56.3889H39.1612V55.3889V54.3889H37.1258V55.3889ZM48.1258 55.3889V56.3889C48.3418 56.3889 48.368 56.3972 48.6077 56.4002C48.765 56.4023 49.0152 56.4007 49.273 56.3253C49.5718 56.2379 49.8481 56.0628 50.0599 55.7792C50.2491 55.5259 50.3487 55.2361 50.4108 54.9714C50.5316 54.4562 50.5777 53.7187 50.6009 52.7165C50.6246 51.689 50.6245 50.2859 50.6245 48.3884H49.6245H48.6245C48.6245 50.2967 48.6245 51.6716 48.6014 52.6703C48.5777 53.6943 48.5301 54.2311 48.4636 54.5147C48.432 54.6493 48.4145 54.6399 48.4574 54.5825C48.5228 54.495 48.6235 54.4314 48.7115 54.4057C48.7585 54.392 48.7629 54.4021 48.6333 54.4004C48.5862 54.3998 48.2845 54.3889 48.1258 54.3889V55.3889ZM49.6245 48.3884H50.6245C50.6245 43.0799 51.92 40.452 52.5621 38.7396L51.6258 38.3884L50.6895 38.0373C50.053 39.7345 48.6245 42.6745 48.6245 48.3884H49.6245ZM32.0669 21.3888L31.0672 21.3635C31.0339 22.6808 31.0332 23.4852 31.0329 24.074C31.0325 24.664 31.0322 25.0057 31.0031 25.432L32.0008 25.5L32.9985 25.568C33.0329 25.0636 33.0325 24.6553 33.0329 24.0752C33.0332 23.4939 33.0338 22.708 33.0666 21.4141L32.0669 21.3888ZM32.0008 25.5C31.6312 26.4292 31.6312 26.4292 31.6312 26.4292C31.6312 26.4292 31.6312 26.4292 31.6312 26.4292C31.6312 26.4292 31.6312 26.4292 31.6313 26.4292C31.6314 26.4293 31.6316 26.4293 31.6319 26.4295C31.6325 26.4297 31.6336 26.4301 31.635 26.4307C31.6379 26.4318 31.6423 26.4336 31.6482 26.436C31.6602 26.4408 31.6781 26.448 31.7017 26.4575C31.7489 26.4766 31.8185 26.5048 31.9068 26.541C32.0834 26.6135 32.3342 26.7178 32.6292 26.8441C33.2217 27.0979 33.9823 27.4364 34.6764 27.7833L35.1235 26.8888L35.5706 25.9944C34.8267 25.6225 34.0259 25.2666 33.4166 25.0056C33.1107 24.8746 32.8504 24.7664 32.6662 24.6908C32.5741 24.653 32.5008 24.6233 32.4503 24.6029C32.425 24.5927 32.4054 24.5848 32.3919 24.5794C32.3852 24.5767 32.38 24.5746 32.3764 24.5732C32.3746 24.5725 32.3731 24.5719 32.3721 24.5715C32.3716 24.5713 32.3713 24.5711 32.371 24.571C32.3708 24.571 32.3707 24.5709 32.3706 24.5709C32.3705 24.5709 32.3705 24.5708 32.3705 24.5708C32.3704 24.5708 32.3704 24.5708 32.0008 25.5ZM32.0008 25.5L32.4246 24.5943L30.0493 23.4827L29.6254 24.3884L29.2016 25.2942L31.577 26.4057L32.0008 25.5ZM29.6254 24.3884L29.9437 23.4404C26.941 22.4323 24.6467 22.6339 22.9024 23.5931C21.1938 24.5327 20.1929 26.1035 19.5549 27.4639L20.4603 27.8884L21.3657 28.313C21.9294 27.111 22.6987 25.9876 23.8661 25.3456C24.9977 24.7233 26.6852 24.4561 29.3071 25.3364L29.6254 24.3884Z" fill="#2F2F2F"/>
<path id="Vector" d="M22.0311 11.4547C22.9392 10.5456 23.9771 9.37679 23.9771 7.94826C24.0677 7.15468 23.888 6.35369 23.4671 5.67512C23.0462 4.99654 22.4087 4.48013 21.658 4.20958C20.9072 3.93902 20.0872 3.93018 19.3308 4.18448C18.5744 4.43877 17.9259 4.94131 17.4905 5.61065C17.0274 4.99324 16.3788 4.54071 15.6399 4.3195C14.9009 4.09828 14.1106 4.12003 13.3849 4.38155C12.6592 4.64307 12.0364 5.13058 11.6079 5.77253C11.1794 6.41447 10.9677 7.17703 11.004 7.94826C11.004 9.50666 12.0418 10.5456 12.95 11.5845L17.4905 16L22.0311 11.4547Z" stroke="#2F2F2F" stroke-width="2" stroke-linecap="round" stroke-linejoin="round"/>
<path id="Vector_2" d="M14.334 26.2122C15.1024 25.4547 15.9806 24.4807 15.9806 23.2902C16.0573 22.6289 15.9053 21.9614 15.5491 21.3959C15.1929 20.8304 14.6535 20.4001 14.0183 20.1746C13.383 19.9492 12.6892 19.9418 12.0491 20.1537C11.4091 20.3656 10.8604 20.7844 10.492 21.3422C10.1001 20.8277 9.55128 20.4506 8.92603 20.2662C8.30077 20.0819 7.63204 20.1 7.01801 20.318C6.40397 20.5359 5.87697 20.9422 5.51437 21.4771C5.15178 22.0121 4.97268 22.6475 5.00338 23.2902C5.00338 24.5889 5.88156 25.4547 6.64996 26.3204L10.492 30L14.334 26.2122Z" stroke="#2F2F2F" stroke-width="2" stroke-linecap="round" stroke-linejoin="round"/>
<path id="Vector_3" d="M26.5 55.5H51.5" stroke="#2F2F2F" stroke-width="2" stroke-linecap="round" stroke-linejoin="round"/>
</g>
</svg>
