<svg width="60" height="60" viewBox="0 0 60 60" fill="none" xmlns="http://www.w3.org/2000/svg">
<g id="library-big 1">
<path id="Vector" d="M25 7.5H10C8.61929 7.5 7.5 8.61929 7.5 10V50C7.5 51.3807 8.61929 52.5 10 52.5H25C26.3807 52.5 27.5 51.3807 27.5 50V10C27.5 8.61929 26.3807 7.5 25 7.5Z" stroke="#2F2F2F" stroke-width="2" stroke-linecap="round" stroke-linejoin="round"/>
<path id="Vector_2" d="M17.5 7.5V52.5" stroke="#2F2F2F" stroke-width="2" stroke-linecap="round" stroke-linejoin="round"/>
<path id="Vector_3" d="M51.0004 47.25C51.5004 48.5 50.7504 50 49.5004 50.5L44.7504 52.25C43.5004 52.75 42.0004 52 41.5004 50.75L27.7504 12.75C27.2504 11.5 28.0004 10 29.2504 9.5L34.0004 7.75C35.2504 7.25 36.7504 8 37.2504 9.25L51.0004 47.25Z" stroke="#2F2F2F" stroke-width="2" stroke-linecap="round" stroke-linejoin="round"/>
</g>
</svg>
