<svg width="56" height="51" viewBox="0 0 56 51" fill="none" xmlns="http://www.w3.org/2000/svg">
<g id="Frame 427319019">
<path id="Vector" d="M37.7593 18.5305C39.7152 16.6367 41.9506 14.2017 41.9506 11.2255C42.1459 9.57224 41.7589 7.90353 40.8523 6.48983C39.9457 5.07612 38.5726 4.00027 36.9556 3.43662C35.3386 2.87296 33.5724 2.85454 31.9433 3.38432C30.3141 3.91411 28.9174 4.96107 27.9796 6.35553C26.9821 5.06926 25.5851 4.12649 23.9935 3.66562C22.402 3.20475 20.6997 3.25006 19.1367 3.79489C17.5737 4.33972 16.2323 5.35538 15.3093 6.69276C14.3863 8.03015 13.9305 9.61881 14.0086 11.2255C14.0086 14.4722 16.244 16.6367 18.1999 18.8011L27.9796 28L37.7593 18.5305Z" stroke="#2F2F2F" stroke-width="2" stroke-linecap="round" stroke-linejoin="round"/>
<g id="Group 27">
<path id="Vector_2" d="M25.9102 48.9111H11.5931" stroke="#2F2F2F" stroke-width="2" stroke-linecap="round" stroke-linejoin="round"/>
<path id="Vector_3" d="M14.0474 48.6053C14.0474 45.3333 11.8116 42.5436 10.9439 41.6759L5.15893 35.891C3.56807 34.3001 2.70033 32.2754 2.84496 30.106L2.5557 17.0899C2.52502 16.0044 2.55415 19.5185 2.55414 15.469C2.55413 11.4196 6.89283 12.2873 7.18224 16.0474C7.47164 19.8074 7.31932 17.4611 7.47287 18.5362C8.62975 26.6352 9.20824 26.6352 15.2824 34.4449" stroke="#2F2F2F" stroke-width="2" stroke-linecap="round" stroke-linejoin="round"/>
<path id="Vector_4" d="M15.2806 34.4487L12.6774 30.6885C11.5205 28.953 11.2312 28.6637 10.0742 26.9283C8.33873 23.4573 11.2312 22.8788 13.2559 24.9035C18.1731 29.8207 17.5946 27.5068 21.9334 31.8455C22.9103 32.8224 22.8011 34.4487 23.0904 36.4734L23.9581 48.9111" stroke="#2F2F2F" stroke-width="2" stroke-linecap="round" stroke-linejoin="round"/>
</g>
<g id="Group 28">
<path id="Vector_5" d="M30.0469 48.9111H44.3639" stroke="#2F2F2F" stroke-width="2" stroke-linecap="round" stroke-linejoin="round"/>
<path id="Vector_6" d="M41.9096 48.6053C41.9096 45.3333 44.1454 42.5436 45.0132 41.6759L50.7981 35.891C52.389 34.3001 53.2567 32.2754 53.1121 30.106L53.4013 17.0899C53.432 16.0044 53.4029 19.5185 53.4029 15.469C53.4029 11.4196 49.0642 12.2873 48.7748 16.0474C48.4854 19.8074 48.6377 17.4611 48.4842 18.5362C47.3273 26.6352 46.7488 26.6352 40.6746 34.4449" stroke="#2F2F2F" stroke-width="2" stroke-linecap="round" stroke-linejoin="round"/>
<path id="Vector_7" d="M40.6764 34.4487L43.2796 30.6885C44.4366 28.953 44.7258 28.6637 45.8828 26.9283C47.6183 23.4573 44.7258 22.8788 42.7011 24.9035C37.7839 29.8207 38.3624 27.5068 34.0237 31.8455C33.0467 32.8224 33.1559 34.4487 32.8667 36.4734L31.999 48.9111" stroke="#2F2F2F" stroke-width="2" stroke-linecap="round" stroke-linejoin="round"/>
</g>
</g>
</svg>
