<svg width="50" height="50" viewBox="0 0 50 50" fill="none" xmlns="http://www.w3.org/2000/svg">
<g id="dumbbell 1">
<path id="Vector" d="M30 30L20 20" stroke="#2F2F2F" stroke-width="2" stroke-linecap="round" stroke-linejoin="round"/>
<path id="Vector_2" d="M38.8691 44.7604C38.0878 45.5419 37.028 45.9811 35.9229 45.9813C34.8178 45.9815 33.7579 45.5427 32.9764 44.7614C32.1948 43.9801 31.7556 42.9204 31.7554 41.8153C31.7552 40.7102 32.194 39.6503 32.9753 38.8687L29.2941 42.552C28.5125 43.3336 27.4525 43.7727 26.3472 43.7727C25.2419 43.7727 24.1819 43.3336 23.4003 42.552C22.6188 41.7705 22.1797 40.7105 22.1797 39.6052C22.1797 38.4999 22.6188 37.4399 23.4003 36.6583L36.6587 23.4C37.4402 22.6184 38.5002 22.1793 39.6055 22.1793C40.7108 22.1793 41.7708 22.6184 42.5524 23.4C43.334 24.1815 43.773 25.2415 43.773 26.3468C43.773 27.4521 43.334 28.5121 42.5524 29.2937L38.8691 32.975C39.6506 32.1937 40.7105 31.7549 41.8156 31.7551C42.9207 31.7553 43.9805 32.1944 44.7618 32.976C45.5431 33.7576 45.9819 34.8175 45.9817 35.9226C45.9815 37.0277 45.5423 38.0874 44.7607 38.8687L38.8691 44.7604Z" stroke="#2F2F2F" stroke-width="2" stroke-linecap="round" stroke-linejoin="round"/>
<path id="Vector_3" d="M44.7917 44.7917L41.875 41.875" stroke="#2F2F2F" stroke-width="2" stroke-linecap="round" stroke-linejoin="round"/>
<path id="Vector_4" d="M8.12565 8.12504L5.20898 5.20837" stroke="#2F2F2F" stroke-width="2" stroke-linecap="round" stroke-linejoin="round"/>
<path id="Vector_5" d="M13.3426 26.6C12.561 27.3816 11.501 27.8207 10.3957 27.8207C9.29039 27.8207 8.23036 27.3816 7.44881 26.6C6.66725 25.8185 6.22817 24.7585 6.22817 23.6532C6.22817 22.5479 6.66725 21.4878 7.44881 20.7063L11.1321 17.025C10.7451 17.4119 10.2858 17.7187 9.78018 17.928C9.27461 18.1373 8.73276 18.245 8.18557 18.2449C7.08047 18.2447 6.02071 17.8056 5.23943 17.024C4.85258 16.637 4.54574 16.1776 4.33643 15.672C4.12712 15.1665 4.01943 14.6246 4.01953 14.0774C4.01973 12.9723 4.45891 11.9126 5.24047 11.1313L11.1321 5.23962C11.9134 4.45806 12.9732 4.01887 14.0783 4.01868C14.6255 4.01858 15.1673 4.12626 15.6729 4.33557C16.1785 4.54488 16.6379 4.85172 17.0248 5.23858C17.4118 5.62543 17.7188 6.08472 17.9283 6.59021C18.1378 7.09571 18.2457 7.63753 18.2458 8.18471C18.2459 8.7319 18.1382 9.27375 17.9289 9.77933C17.7196 10.2849 17.4127 10.7443 17.0259 11.1313L20.7071 7.44795C21.4887 6.66639 22.5487 6.22732 23.654 6.22732C24.7593 6.22732 25.8193 6.66639 26.6009 7.44795C27.3824 8.22951 27.8215 9.28953 27.8215 10.3948C27.8215 11.5001 27.3824 12.5601 26.6009 13.3417L13.3426 26.6Z" stroke="#2F2F2F" stroke-width="2" stroke-linecap="round" stroke-linejoin="round"/>
</g>
</svg>
