<svg width="66" height="63" viewBox="0 0 66 63" fill="none" xmlns="http://www.w3.org/2000/svg">
<path d="M31.5061 34.2308C30.6136 32.3846 27.4828 31 25.3864 31H13.5296C11.4331 31 9.42259 31.8429 7.94019 33.3431C6.4578 34.8434 5.625 36.8783 5.625 39V43" stroke="#2F2F2F" stroke-width="2" stroke-linecap="round" stroke-linejoin="round"/>
<path d="M19.5611 23C23.9591 23 27.5245 19.4183 27.5245 15C27.5245 10.5817 23.9591 7 19.5611 7C15.163 7 11.5977 10.5817 11.5977 15C11.5977 19.4183 15.163 23 19.5611 23Z" stroke="#2F2F2F" stroke-width="2" stroke-linecap="round" stroke-linejoin="round"/>
<path d="M59.3786 43V39.3333C59.3786 37.3884 58.6918 35.5232 57.4695 34.1479C56.2471 32.7726 54.5892 32 52.8605 32H43.0835C41.3549 32 39.697 32.7726 38.4746 34.1479" stroke="#2F2F2F" stroke-width="2" stroke-linecap="round" stroke-linejoin="round"/>
<path d="M47.9312 26C51.5046 26 54.4015 23.0899 54.4015 19.5C54.4015 15.9101 51.5046 13 47.9312 13C44.3578 13 41.4609 15.9101 41.4609 19.5C41.4609 23.0899 44.3578 26 47.9312 26Z" stroke="#2F2F2F" stroke-width="2" stroke-linecap="round" stroke-linejoin="round"/>
<g clip-path="url(#clip0_1195_5389)">
<path d="M27.0558 52.9097L23.3517 39.0859C23.188 38.4749 23.2737 37.8238 23.59 37.276C23.9063 36.7281 24.4273 36.3284 25.0383 36.1646L36.5582 33.0779C36.8026 33.0124 37.063 33.0467 37.2822 33.1732C37.5013 33.2997 37.6612 33.5081 37.7267 33.7526L42.1716 50.3411C42.2371 50.5855 42.2028 50.846 42.0763 51.0651C41.9497 51.2842 41.7413 51.4441 41.4969 51.5096L29.9771 54.5964C29.3661 54.7601 28.715 54.6744 28.1671 54.3581C27.6193 54.0418 27.2195 53.5208 27.0558 52.9097ZM27.0558 52.9097C26.8921 52.2987 26.9778 51.6476 27.2941 51.0998C27.6104 50.5519 28.1314 50.1522 28.7424 49.9884L41.1838 46.6548" stroke="#2F2F2F" stroke-width="2" stroke-linecap="round" stroke-linejoin="round"/>
<path d="M28.6445 44.0885L36.0172 42.113" stroke="#2F2F2F" stroke-width="2" stroke-linecap="round" stroke-linejoin="round"/>
<path d="M27.6562 40.4021L33.1858 38.9205" stroke="#2F2F2F" stroke-width="2" stroke-linecap="round" stroke-linejoin="round"/>
</g>
<defs>
<clipPath id="clip0_1195_5389">
<rect width="22.8983" height="22.8983" fill="white" transform="translate(18.5547 35.9265) rotate(-15)"/>
</clipPath>
</defs>
</svg>
