<svg width="50" height="50" viewBox="0 0 50 50" fill="none" xmlns="http://www.w3.org/2000/svg">
<g id="notebook-pen 1">
<path id="Vector" d="M27.9173 4.16663H12.5007C11.3956 4.16663 10.3358 4.60561 9.55437 5.38701C8.77297 6.16842 8.33398 7.22822 8.33398 8.33329V41.6666C8.33398 42.7717 8.77297 43.8315 9.55437 44.6129C10.3358 45.3943 11.3956 45.8333 12.5007 45.8333H37.5006C38.6057 45.8333 39.6655 45.3943 40.4469 44.6129C41.2283 43.8315 41.6673 42.7717 41.6673 41.6666V26.25" stroke="#2F2F2F" stroke-width="2" stroke-linecap="round" stroke-linejoin="round"/>
<path id="Vector_2" d="M4.16602 12.5H12.4993" stroke="#2F2F2F" stroke-width="2" stroke-linecap="round" stroke-linejoin="round"/>
<path id="Vector_3" d="M4.16602 20.8334H12.4993" stroke="#2F2F2F" stroke-width="2" stroke-linecap="round" stroke-linejoin="round"/>
<path id="Vector_4" d="M4.16602 29.1666H12.4993" stroke="#2F2F2F" stroke-width="2" stroke-linecap="round" stroke-linejoin="round"/>
<path id="Vector_5" d="M4.16602 37.5H12.4993" stroke="#2F2F2F" stroke-width="2" stroke-linecap="round" stroke-linejoin="round"/>
<path id="Vector_6" d="M44.5374 11.7209C45.3673 10.891 45.8335 9.76536 45.8335 8.59169C45.8335 7.41803 45.3673 6.29243 44.5374 5.46253C43.7075 4.63262 42.5819 4.16638 41.4082 4.16638C40.2345 4.16638 39.1089 4.63262 38.279 5.46253L27.8415 15.9042C27.3462 16.3992 26.9837 17.0111 26.7874 17.6834L25.0436 23.6625C24.9913 23.8418 24.9882 24.0318 25.0345 24.2127C25.0809 24.3936 25.175 24.5587 25.307 24.6908C25.4391 24.8228 25.6042 24.9169 25.7851 24.9633C25.966 25.0096 26.156 25.0065 26.3353 24.9542L32.3145 23.2104C32.9867 23.0141 33.5986 22.6516 34.0936 22.1563L44.5374 11.7209Z" stroke="#2F2F2F" stroke-width="2" stroke-linecap="round" stroke-linejoin="round"/>
</g>
</svg>
