<svg width="16" height="17" viewBox="0 0 16 17" fill="none" xmlns="http://www.w3.org/2000/svg">
<path d="M15.8716 4.30849C15.7616 3.25711 15.3584 2.32798 14.5763 1.58223C13.7576 0.799809 12.7434 0.445274 11.6436 0.384147C9.76185 0.286344 5.30174 0.212992 3.72543 0.469725C1.92917 0.763133 0.756103 1.80229 0.267324 3.57497C-0.111479 4.93198 -0.0381622 11.2158 0.181788 12.5606C0.487275 14.4066 1.57481 15.5803 3.39551 16.0571C4.65411 16.3871 10.8616 16.3382 12.2546 16.1182C14.0998 15.8248 15.285 14.7367 15.7616 12.9151C16.1282 11.5214 15.9938 5.5677 15.8716 4.30849ZM14.4052 12.3161C14.1853 13.7098 13.2688 14.5778 11.8636 14.7367C10.5683 14.8834 4.81297 14.9568 3.61546 14.6267C2.46683 14.3088 1.8192 13.5142 1.62369 12.365C1.44039 11.2647 1.39152 5.7633 1.62369 4.28404C1.83142 2.90257 2.7601 2.03457 4.15311 1.87564C5.57057 1.71671 10.6661 1.70449 12.0347 1.91232C13.4277 2.13237 14.2953 3.0615 14.4419 4.46742C14.5885 5.77553 14.6252 10.9102 14.4052 12.3283V12.3161ZM8.00225 4.19846C5.74164 4.19846 3.89651 6.03226 3.89651 8.30618C3.89651 10.5679 5.72943 12.4139 8.00225 12.4139C10.2751 12.4139 12.108 10.5801 12.108 8.30618C12.108 6.04449 10.2751 4.19846 8.00225 4.19846ZM7.97781 10.9469C6.51147 10.9346 5.3384 9.73654 5.35062 8.2695C5.36284 6.80246 6.56035 5.62882 8.02669 5.64105C9.49302 5.65328 10.6661 6.85136 10.6539 8.3184C10.6417 9.78544 9.44414 10.9591 7.97781 10.9469ZM13.2322 4.03953C13.2322 4.56522 12.8045 5.00533 12.2668 4.99311C11.7414 4.99311 11.3015 4.56522 11.3137 4.0273C11.3137 3.50161 11.7414 3.0615 12.2791 3.07372C12.8045 3.07372 13.2444 3.50161 13.2322 4.03953Z" fill="white"/>
</svg>
