<svg width="17" height="18" viewBox="0 0 17 18" fill="none" xmlns="http://www.w3.org/2000/svg">
<path d="M3.67927 6.21118H0.274597V17.0685H3.67927V6.21118Z" fill="white"/>
<path d="M12.8891 5.97582C12.7636 5.96013 12.6302 5.95228 12.4969 5.94444C10.5906 5.86599 9.51584 6.99565 9.13929 7.48203C9.03731 7.61539 8.99023 7.69384 8.99023 7.69384V6.24254H5.73462V17.0998H8.99023H9.13929C9.13929 15.9937 9.13929 14.8954 9.13929 13.7893C9.13929 13.1931 9.13929 12.5969 9.13929 12.0007C9.13929 11.2632 9.08437 10.4788 9.45308 9.80411C9.76688 9.23928 10.3317 8.95686 10.9671 8.95686C12.8499 8.95686 12.8891 10.6592 12.8891 10.8161C12.8891 10.8239 12.8891 10.8318 12.8891 10.8318V17.1469H16.2938V10.063C16.2938 7.63893 15.0621 6.21116 12.8891 5.97582Z" fill="white"/>
<path d="M1.9769 4.80696C3.06871 4.80696 3.95381 3.92187 3.95381 2.83005C3.95381 1.73824 3.06871 0.853149 1.9769 0.853149C0.885086 0.853149 0 1.73824 0 2.83005C0 3.92187 0.885086 4.80696 1.9769 4.80696Z" fill="white"/>
</svg>
