<svg width="17" height="17" viewBox="0 0 17 17" fill="none" xmlns="http://www.w3.org/2000/svg">
<g id="LinkedIn">
<path id="Vector" d="M3.68006 5.35803H0.275391V16.2153H3.68006V5.35803Z" fill="white"/>
<path id="Vector_2" d="M12.8889 5.12267C12.7634 5.10698 12.63 5.09913 12.4966 5.09129C10.5903 5.01284 9.5156 6.1425 9.13904 6.62888C9.03706 6.76224 8.98999 6.84069 8.98999 6.84069V5.38939H5.73438V16.2467H8.98999H9.13904C9.13904 15.1405 9.13904 14.0423 9.13904 12.9361C9.13904 12.3399 9.13904 11.7437 9.13904 11.1475C9.13904 10.4101 9.08413 9.62562 9.45284 8.95096C9.76663 8.38613 10.3315 8.10371 10.9669 8.10371C12.8497 8.10371 12.8889 9.80605 12.8889 9.96294C12.8889 9.97079 12.8889 9.97863 12.8889 9.97863V16.2937H16.2935V9.20984C16.2935 6.78578 15.0619 5.35801 12.8889 5.12267Z" fill="white"/>
<path id="Vector_3" d="M1.9769 3.95381C3.06871 3.95381 3.95381 3.06872 3.95381 1.9769C3.95381 0.88509 3.06871 0 1.9769 0C0.885086 0 0 0.88509 0 1.9769C0 3.06872 0.885086 3.95381 1.9769 3.95381Z" fill="white"/>
</g>
</svg>
