<svg width="188" height="60" viewBox="0 0 188 60" fill="none" xmlns="http://www.w3.org/2000/svg">
<path fill-rule="evenodd" clip-rule="evenodd" d="M59.0033 30.4979C59.0059 30.3322 59.0073 30.1662 59.0073 30C59.0073 13.4314 45.798 0 29.5036 0C17.8126 0 7.70985 6.91429 2.93457 16.9407C3.68598 17.2105 4.57731 17.467 5.65164 17.7765L5.65655 17.7777L5.66474 17.7801L5.669 17.7812L6.04869 17.8906C9.13966 18.7817 12.9836 20.0467 16.7671 23.8352C18.0553 25.1251 19.1227 26.6473 20.0036 28.3053C20.4995 27.8655 21.0833 27.4892 21.7643 27.2711C23.0072 26.8732 24.2551 27.1035 25.3335 27.8037C26.3275 28.4489 27.144 29.4627 27.844 30.6488C30.226 34.6856 33.1536 35.909 34.8679 35.909C35.3369 35.909 35.818 35.8693 36.412 35.82L36.7581 35.7915C37.4663 35.7343 38.3137 35.6759 39.1832 35.7328C41.0404 35.8546 43.0331 36.5127 44.6597 38.5803C44.7476 38.6919 44.8332 38.8069 44.9168 38.9247C46.0594 37.5317 47.3812 36.2994 48.8822 35.3454C52.2161 33.2266 55.2057 32.0327 57.3571 31.1738C57.646 31.0584 57.9198 30.949 58.1772 30.8443C58.489 30.7176 58.7628 30.6028 59.0033 30.4979ZM25.0173 16.7484C24.7666 19.75 22.569 22.0111 20.1091 21.7987C17.6491 21.5862 15.8581 18.9807 16.1088 15.979C16.3596 12.9773 18.5571 10.7162 21.017 10.9287C23.4769 11.1411 25.268 13.7467 25.0173 16.7484ZM43.7812 33.6194C46.0279 33.8768 48.0968 31.8491 48.4027 29.0904C48.7083 26.3316 47.1352 23.8866 44.8886 23.629C42.642 23.3715 40.573 25.3994 40.2671 28.158C39.9614 30.9169 41.5347 33.362 43.7812 33.6194ZM12.0906 14.2168C12.2092 9.08537 13.7899 6.78561 16.2105 7.35846C18.6311 7.9313 18.064 10.4078 18.064 10.4078C17.1671 9.74654 15.3308 10.3746 14.5107 14.7892C13.7682 18.7874 10.5285 17.3286 9.10408 16.1214C8.9896 16.0243 8.94048 15.9832 8.94048 15.9832C8.94048 15.9832 8.94409 15.9847 8.95031 15.9887L8.97312 16.0037C9.30217 16.2205 12.0032 18.0008 12.0906 14.2168ZM48.3614 20.3082C50.0262 19.3306 51.7047 20.6711 52.9277 24.4416C53.8296 27.2226 55.4352 25.2864 55.6303 25.0511C55.6426 25.0362 55.6498 25.0284 55.6498 25.0284C55.6498 25.0284 55.6421 25.0414 55.6241 25.0687C55.6093 25.0913 55.5879 25.124 55.5593 25.1682C54.7721 26.3874 52.6973 28.208 51.2632 25.4189C49.6797 22.3393 48.1816 22.2943 47.6643 22.9889C47.6643 22.9889 46.6966 21.2858 48.3614 20.3082ZM35.8019 24.4416C37.0249 20.6711 38.7034 19.3306 40.3683 20.3082C42.0329 21.2858 41.0654 22.9889 41.0654 22.9889C40.548 22.2943 39.0498 22.3393 37.4665 25.4189C36.0323 28.208 33.9575 26.3874 33.1703 25.1682C33.1351 25.1135 33.1106 25.0767 33.0961 25.0546C33.0847 25.037 33.0799 25.0284 33.0799 25.0284C33.0799 25.0284 33.087 25.0362 33.0994 25.0511C33.2945 25.2864 34.9001 27.2226 35.8019 24.4416Z" fill="white"/>
<path d="M58.4932 35.6047C56.4406 36.4298 53.9954 37.4562 51.2514 39.2C49.6012 40.2487 48.165 41.8579 47.0068 43.7216C47.0554 43.9008 47.1018 44.0802 47.1461 44.2597C47.6716 46.3813 47.9671 48.7092 48.0452 50.8609C48.0758 51.702 48.0739 52.5394 48.0353 53.3449C53.3684 48.9623 57.1691 42.7287 58.4932 35.6047Z" fill="white"/>
<path d="M40.2195 57.9599C36.8979 59.2771 33.2837 60 29.5036 60C26.7701 60 24.1233 59.622 21.6112 58.9146L21.6489 58.8593L21.6697 58.8282C21.9994 58.3316 22.2593 57.7598 22.4698 57.1845C23.2933 54.9339 23.7935 51.402 23.8608 47.5402C23.9291 43.6306 23.5576 39.1596 22.4986 34.9736C22.3385 34.3401 22.1612 33.7084 21.9657 33.0823C22.1904 32.674 22.4068 32.3445 22.6088 32.0909C22.7801 31.876 22.9114 31.753 22.9969 31.6843C23.1927 31.8363 23.5469 32.2013 24.0109 32.9874C26.9932 38.0417 31.218 40.4545 34.868 40.4545C35.5357 40.4545 36.2266 40.3967 36.8141 40.3472H36.816L36.8492 40.3446L37.1122 40.3227C37.8067 40.2666 38.3745 40.2347 38.8955 40.2688C39.8192 40.3294 40.5086 40.5804 41.1691 41.4198C41.5039 41.8453 41.8355 42.457 42.1416 43.2314C41.1974 45.1021 40.499 47.0401 40.0451 48.8548C39.4364 51.2887 39.2043 53.7382 39.5264 55.7418C39.639 56.4426 39.8531 57.2305 40.2195 57.9599Z" fill="white"/>
<path d="M14.7614 55.9921C5.93749 50.8063 0 41.1082 0 30C0 26.9307 0.453246 23.9689 1.29556 21.1804C2.24484 21.538 3.19891 21.8053 4.0946 22.056C4.34453 22.1259 4.58986 22.1946 4.82931 22.2636C7.69885 23.0909 10.6596 24.0991 13.6305 27.074C15.0798 28.5251 16.2433 30.5008 17.1361 32.8197C15.4052 37.0097 14.2511 43.0568 13.8648 48.0018C13.6242 51.0815 13.9504 53.3879 14.4696 55.1237C14.5622 55.4336 14.6607 55.723 14.7614 55.9921Z" fill="white"/>
<path d="M77.3325 16.9395C76.295 16.9395 75.2896 16.7898 74.3162 16.4902C73.3556 16.1906 72.5936 15.7935 72.03 15.2986L72.8946 13.3256C73.4453 13.7683 74.1177 14.133 74.9118 14.4195C75.7187 14.693 76.5256 14.8297 77.3325 14.8297C78.3315 14.8297 79.0743 14.6669 79.561 14.3414C80.0605 14.0158 80.3103 13.586 80.3103 13.0521C80.3103 12.6614 80.1693 12.3423 79.8876 12.0949C79.6187 11.8344 79.2728 11.6325 78.8502 11.4893C78.4275 11.346 77.8512 11.1832 77.1211 11.0009C76.0965 10.7535 75.2641 10.506 74.6236 10.2586C73.9961 10.0111 73.4517 9.62694 72.9906 9.10602C72.5423 8.57206 72.3182 7.85579 72.3182 6.95718C72.3182 6.20184 72.5168 5.51812 72.9138 4.90602C73.3237 4.2809 73.932 3.78601 74.7389 3.42137C75.5585 3.05672 76.5575 2.87439 77.7359 2.87439C78.5556 2.87439 79.3624 2.97858 80.1566 3.18695C80.9507 3.39532 81.6359 3.69485 82.2122 4.08555L81.4245 6.05858C80.8354 5.70695 80.2207 5.43998 79.5802 5.25765C78.9398 5.07532 78.3187 4.98416 77.7167 4.98416C76.7304 4.98416 75.9941 5.15346 75.5074 5.49206C75.0335 5.83067 74.7965 6.27998 74.7965 6.83997C74.7965 7.23067 74.931 7.54974 75.2 7.79718C75.4817 8.04462 75.834 8.23997 76.2566 8.38323C76.6793 8.52649 77.2556 8.68927 77.9857 8.8716C78.9847 9.10602 79.8043 9.35346 80.4448 9.61392C81.0852 9.86136 81.6294 10.2456 82.0777 10.7665C82.5388 11.2874 82.7694 11.9907 82.7694 12.8763C82.7694 13.6316 82.5645 14.3153 82.1546 14.9274C81.7576 15.5396 81.1491 16.0279 80.3295 16.3925C79.5098 16.7571 78.5108 16.9395 77.3325 16.9395ZM97.1956 3.06974V16.7442H94.698V10.8837H87.7434V16.7442H85.2459V3.06974H87.7434V8.71532H94.698V3.06974H97.1956ZM109.521 13.5795H102.797L101.472 16.7442H98.8972L104.949 3.06974H107.408L113.479 16.7442H110.866L109.521 13.5795ZM108.695 11.5869L106.159 5.60927L103.642 11.5869H108.695ZM120.722 3.06974C121.888 3.06974 122.899 3.26509 123.757 3.65578C124.628 4.04648 125.294 4.60648 125.756 5.33579C126.217 6.06509 126.447 6.93113 126.447 7.93392C126.447 8.92369 126.217 9.78974 125.756 10.5321C125.294 11.2614 124.628 11.8214 123.757 12.2121C122.899 12.6028 121.888 12.7981 120.722 12.7981H117.687V16.7442H115.189V3.06974H120.722ZM120.607 10.6493C121.695 10.6493 122.521 10.4149 123.085 9.94602C123.649 9.47718 123.93 8.80648 123.93 7.93392C123.93 7.06137 123.649 6.39067 123.085 5.92183C122.521 5.45299 121.695 5.21858 120.607 5.21858H117.687V10.6493H120.607ZM128.941 3.06974H131.439V16.7442H128.941V3.06974ZM147.026 3.06974V16.7442H144.97L137.554 7.48462V16.7442H135.076V3.06974H137.132L144.547 12.3293V3.06974H147.026ZM159.812 9.75067H162.175V15.2009C161.484 15.7609 160.677 16.1906 159.755 16.4902C158.833 16.7898 157.886 16.9395 156.911 16.9395C155.542 16.9395 154.305 16.6399 153.203 16.0409C152.103 15.4288 151.238 14.5888 150.61 13.5209C149.983 12.453 149.669 11.2483 149.669 9.90695C149.669 8.56556 149.983 7.3609 150.61 6.29299C151.238 5.22509 152.103 4.39159 153.203 3.79253C154.318 3.18043 155.567 2.87439 156.95 2.87439C158.078 2.87439 159.101 3.06322 160.024 3.4409C160.946 3.81858 161.721 4.37206 162.348 5.10137L160.773 6.66416C159.749 5.62229 158.513 5.10137 157.065 5.10137C156.118 5.10137 155.273 5.30323 154.529 5.70695C153.799 6.11066 153.223 6.67718 152.8 7.40648C152.391 8.13579 152.185 8.96927 152.185 9.90695C152.185 10.8186 152.391 11.639 152.8 12.3683C153.223 13.0977 153.799 13.6707 154.529 14.0874C155.273 14.5042 156.111 14.7125 157.046 14.7125C158.097 14.7125 159.019 14.4781 159.812 14.0093V9.75067ZM92.8171 22.6046L88.36 36.279H85.7088L82.3851 26.16L79.0039 36.279H76.3335L71.8763 22.6046H74.4699L77.8128 32.9972L81.2901 22.6046H83.5955L86.9959 33.0558L90.4348 22.6046H92.8171ZM104.938 34.1497V36.279H94.8517V22.6046H104.669V24.7339H97.3492V28.2893H103.843V30.3795H97.3492V34.1497H104.938ZM107.722 22.6046H110.22V34.1302H117.251V36.279H107.722V22.6046ZM119.223 22.6046H121.72V34.1302H128.752V36.279H119.223V22.6046ZM142.673 22.6046V36.279H140.617L133.202 27.0195V36.279H130.724V22.6046H132.779L140.194 31.8642V22.6046H142.673ZM156.362 34.1497V36.279H146.276V22.6046H156.093V24.7339H148.774V28.2893H155.267V30.3795H148.774V34.1497H156.362ZM163.316 36.4744C162.278 36.4744 161.274 36.3247 160.299 36.0251C159.339 35.7255 158.577 35.3284 158.013 34.8335L158.878 32.8604C159.429 33.3032 160.102 33.6679 160.895 33.9544C161.702 34.2279 162.509 34.3646 163.316 34.3646C164.315 34.3646 165.058 34.2018 165.544 33.8763C166.044 33.5507 166.294 33.121 166.294 32.587C166.294 32.1963 166.154 31.8771 165.871 31.6297C165.602 31.3692 165.256 31.1675 164.833 31.0242C164.411 30.8809 163.834 30.7182 163.104 30.5358C162.081 30.2884 161.248 30.0409 160.607 29.7935C159.98 29.5461 159.435 29.1618 158.974 28.6409C158.527 28.1069 158.301 27.3907 158.301 26.4921C158.301 25.7368 158.5 25.053 158.897 24.4409C159.307 23.8158 159.915 23.3209 160.722 22.9563C161.543 22.5916 162.542 22.4093 163.719 22.4093C164.54 22.4093 165.347 22.5135 166.14 22.7218C166.934 22.9302 167.619 23.2297 168.195 23.6204L167.408 25.5935C166.819 25.2418 166.204 24.9749 165.563 24.7925C164.924 24.6102 164.302 24.519 163.7 24.519C162.715 24.519 161.978 24.6883 161.491 25.027C161.017 25.3656 160.78 25.8149 160.78 26.3749C160.78 26.7656 160.914 27.0847 161.183 27.3321C161.466 27.5795 161.817 27.7748 162.24 27.9181C162.663 28.0614 163.239 28.2241 163.969 28.4065C164.968 28.6409 165.789 28.8883 166.428 29.1488C167.069 29.3962 167.614 29.7805 168.061 30.3014C168.522 30.8223 168.753 31.5255 168.753 32.4111C168.753 33.1664 168.548 33.8502 168.138 34.4623C167.741 35.0744 167.133 35.5628 166.313 35.9274C165.493 36.292 164.494 36.4744 163.316 36.4744ZM175.398 36.4744C174.361 36.4744 173.355 36.3247 172.382 36.0251C171.422 35.7255 170.66 35.3284 170.096 34.8335L170.961 32.8604C171.511 33.3032 172.183 33.6679 172.978 33.9544C173.785 34.2279 174.592 34.3646 175.398 34.3646C176.397 34.3646 177.14 34.2018 177.627 33.8763C178.127 33.5507 178.376 33.121 178.376 32.587C178.376 32.1963 178.235 31.8771 177.954 31.6297C177.685 31.3692 177.339 31.1675 176.916 31.0242C176.494 30.8809 175.917 30.7182 175.187 30.5358C174.162 30.2884 173.33 30.0409 172.69 29.7935C172.063 29.5461 171.518 29.1618 171.057 28.6409C170.608 28.1069 170.384 27.3907 170.384 26.4921C170.384 25.7368 170.583 25.053 170.98 24.4409C171.39 23.8158 171.998 23.3209 172.805 22.9563C173.624 22.5916 174.623 22.4093 175.802 22.4093C176.621 22.4093 177.428 22.5135 178.223 22.7218C179.017 22.9302 179.702 23.2297 180.278 23.6204L179.491 25.5935C178.902 25.2418 178.287 24.9749 177.646 24.7925C177.005 24.6102 176.385 24.519 175.783 24.519C174.796 24.519 174.061 24.6883 173.573 25.027C173.1 25.3656 172.863 25.8149 172.863 26.3749C172.863 26.7656 172.997 27.0847 173.266 27.3321C173.547 27.5795 173.9 27.7748 174.323 27.9181C174.745 28.0614 175.322 28.2241 176.052 28.4065C177.051 28.6409 177.87 28.8883 178.511 29.1488C179.152 29.3962 179.695 29.7805 180.144 30.3014C180.605 30.8223 180.835 31.5255 180.835 32.4111C180.835 33.1664 180.631 33.8502 180.221 34.4623C179.824 35.0744 179.215 35.5628 178.396 35.9274C177.576 36.292 176.577 36.4744 175.398 36.4744Z" fill="white"/>
<path d="M74.2065 44.8632V49.8697H80.3487V50.64H74.2065V55.8139H73.3666V44.093H81.0733V44.8632H74.2065ZM88.501 55.8976C87.3703 55.8976 86.3493 55.6409 85.4382 55.1274C84.527 54.6028 83.8079 53.8883 83.281 52.9842C82.765 52.08 82.507 51.0697 82.507 49.9535C82.507 48.8372 82.765 47.8269 83.281 46.9228C83.8079 46.0186 84.527 45.3097 85.4382 44.7963C86.3493 44.2716 87.3703 44.0093 88.501 44.0093C89.6318 44.0093 90.6528 44.266 91.5639 44.7795C92.4751 45.293 93.1887 46.0018 93.7047 46.906C94.2316 47.8102 94.4951 48.826 94.4951 49.9535C94.4951 51.0809 94.2316 52.0967 93.7047 53.0009C93.1887 53.9051 92.4751 54.6139 91.5639 55.1274C90.6528 55.6409 89.6318 55.8976 88.501 55.8976ZM88.501 55.1107C89.4671 55.1107 90.3399 54.8874 91.1193 54.4409C91.8988 53.9944 92.5135 53.3804 92.9636 52.599C93.4137 51.8065 93.6388 50.9246 93.6388 49.9535C93.6388 48.9823 93.4137 48.106 92.9636 47.3246C92.5135 46.5321 91.8988 45.9125 91.1193 45.466C90.3399 45.0195 89.4671 44.7963 88.501 44.7963C87.535 44.7963 86.6567 45.0195 85.8663 45.466C85.0869 45.9125 84.4721 46.5321 84.022 47.3246C83.5719 48.106 83.3468 48.9823 83.3468 49.9535C83.3468 50.9246 83.5719 51.8065 84.022 52.599C84.4721 53.3804 85.0869 53.9944 85.8663 54.4409C86.6567 54.8874 87.535 55.1107 88.501 55.1107ZM101.92 55.8976C100.46 55.8976 99.3237 55.4679 98.5113 54.6083C97.7099 53.7488 97.3092 52.493 97.3092 50.8409V44.093H98.149V50.8074C98.149 52.2474 98.4729 53.3246 99.1206 54.039C99.7683 54.7535 100.707 55.1107 101.936 55.1107C103.155 55.1107 104.088 54.7535 104.736 54.039C105.384 53.3246 105.707 52.2474 105.707 50.8074V44.093H106.547V50.8409C106.547 52.493 106.141 53.7488 105.329 54.6083C104.516 55.4679 103.38 55.8976 101.92 55.8976ZM119.852 44.093V55.8139H119.161L111.306 45.6335V55.8139H110.466V44.093H111.174L119.012 54.2735V44.093H119.852ZM123.878 44.093H128.439C129.636 44.093 130.695 44.3442 131.617 44.8465C132.55 45.3488 133.275 46.0465 133.791 46.9395C134.307 47.8214 134.565 48.826 134.565 49.9535C134.565 51.0809 134.307 52.0911 133.791 52.9842C133.275 53.866 132.55 54.5581 131.617 55.0604C130.695 55.5628 129.636 55.8139 128.439 55.8139H123.878V44.093ZM128.373 55.0437C129.438 55.0437 130.377 54.8316 131.189 54.4074C132.002 53.9721 132.627 53.3693 133.066 52.599C133.506 51.8288 133.725 50.9469 133.725 49.9535C133.725 48.96 133.506 48.0781 133.066 47.3079C132.627 46.5376 132.002 45.9404 131.189 45.5163C130.377 45.0809 129.438 44.8632 128.373 44.8632H124.718V55.0437H128.373ZM144.451 52.5153H137.766L136.301 55.8139H135.395L140.697 44.093H141.537L146.839 55.8139H145.933L144.451 52.5153ZM144.138 51.7953L141.108 45.0307L138.095 51.7953H144.138ZM150.561 44.8632H146.411V44.093H155.55V44.8632H151.4V55.8139H150.561V44.8632ZM157.632 44.093H158.472V55.8139H157.632V44.093ZM167.379 55.8976C166.248 55.8976 165.227 55.6409 164.316 55.1274C163.405 54.6028 162.686 53.8883 162.159 52.9842C161.643 52.08 161.385 51.0697 161.385 49.9535C161.385 48.8372 161.643 47.8269 162.159 46.9228C162.686 46.0186 163.405 45.3097 164.316 44.7963C165.227 44.2716 166.248 44.0093 167.379 44.0093C168.51 44.0093 169.531 44.266 170.442 44.7795C171.353 45.293 172.067 46.0018 172.583 46.906C173.11 47.8102 173.373 48.826 173.373 49.9535C173.373 51.0809 173.11 52.0967 172.583 53.0009C172.067 53.9051 171.353 54.6139 170.442 55.1274C169.531 55.6409 168.51 55.8976 167.379 55.8976ZM167.379 55.1107C168.345 55.1107 169.218 54.8874 169.997 54.4409C170.777 53.9944 171.391 53.3804 171.842 52.599C172.292 51.8065 172.517 50.9246 172.517 49.9535C172.517 48.9823 172.292 48.106 171.842 47.3246C171.391 46.5321 170.777 45.9125 169.997 45.466C169.218 45.0195 168.345 44.7963 167.379 44.7963C166.413 44.7963 165.535 45.0195 164.744 45.466C163.965 45.9125 163.35 46.5321 162.9 47.3246C162.45 48.106 162.225 48.9823 162.225 49.9535C162.225 50.9246 162.45 51.8065 162.9 52.599C163.35 53.3804 163.965 53.9944 164.744 54.4409C165.535 54.8874 166.413 55.1107 167.379 55.1107ZM185.673 44.093V55.8139H184.981L177.126 45.6335V55.8139H176.286V44.093H176.994L184.833 54.2735V44.093H185.673Z" fill="white"/>
</svg>
