<svg width="50" height="50" viewBox="0 0 50 50" fill="none" xmlns="http://www.w3.org/2000/svg">
<g id="earth-heart">
<path id="Vector" d="M14.5833 6.95831V10.4166C14.5833 12.0742 15.2417 13.664 16.4138 14.8361C17.5859 16.0082 19.1756 16.6666 20.8333 16.6666C22.8012 16.6666 23.4993 15.9999 23.9993 15.9999" stroke="#2F2F2F" stroke-width="2" stroke-linecap="round" stroke-linejoin="round"/>
<path id="Vector_2" d="M22.9166 45.7292V37.5C22.9166 36.395 22.4776 35.3351 21.6962 34.5537C20.9148 33.7723 19.855 33.3334 18.7499 33.3334C17.6448 33.3334 16.585 32.8944 15.8036 32.113C15.0222 31.3316 14.5833 30.2718 14.5833 29.1667V27.0834C14.5833 25.9783 14.1443 24.9185 13.3629 24.1371C12.5815 23.3557 11.5217 22.9167 10.4166 22.9167H4.27075" stroke="#2F2F2F" stroke-width="2" stroke-linecap="round" stroke-linejoin="round"/>
<path id="Vector_3" d="M44.875 31.25H35.4167C34.3116 31.25 33.2518 31.689 32.4704 32.4704C31.689 33.2518 31.25 34.3116 31.25 35.4167V44.875" stroke="#2F2F2F" stroke-width="2" stroke-linecap="round" stroke-linejoin="round"/>
<path id="Vector_4" d="M32.0002 6.00006C31.5002 5.50006 28.6832 4.16665 25.0003 4.16669C21.3174 4.16672 17.3748 5.23424 14.0942 7.25016C10.8137 9.26607 8.15595 12.1517 6.41616 15.5867C4.67637 19.0217 3.92257 22.8716 4.23844 26.7091C4.55432 30.5466 5.92751 34.2214 8.20556 37.3257C10.4836 40.43 13.5774 42.8422 17.1434 44.2945C20.7095 45.7469 24.6083 46.1825 28.4069 45.5531C32.2056 44.9238 35.7555 43.2539 38.6626 40.7291C41.5697 38.2042 43.7202 34.9231 44.8753 31.25C45.5002 29.0001 45.5002 27.5001 45.5002 25.0001" stroke="#2F2F2F" stroke-width="2" stroke-linecap="round" stroke-linejoin="round"/>
<path id="Vector_5" d="M43.321 20.3537C44.5822 19.0911 46.0237 17.4678 46.0237 15.4837C46.1496 14.3815 45.9001 13.269 45.3155 12.3266C44.7308 11.3841 43.8454 10.6668 42.8027 10.2911C41.76 9.91531 40.6211 9.90302 39.5706 10.2562C38.52 10.6094 37.6194 11.3074 37.0146 12.237C36.3714 11.3795 35.4705 10.751 34.4442 10.4437C33.4179 10.1365 32.3203 10.1667 31.3124 10.5299C30.3045 10.8931 29.4395 11.5703 28.8443 12.4618C28.2491 13.3534 27.9552 14.4125 28.0055 15.4837C28.0055 17.6481 29.447 19.0911 30.7083 20.5341L37.0146 26.6667L43.321 20.3537Z" stroke="#2F2F2F" stroke-width="2" stroke-linecap="round" stroke-linejoin="round"/>
</g>
</svg>
