<svg width="50" height="50" viewBox="0 0 50 50" fill="none" xmlns="http://www.w3.org/2000/svg">
<g id="Frame">
<path id="Vector" d="M39.5834 29.1667C42.6876 26.125 45.8334 22.4792 45.8334 17.7083C45.8334 14.6694 44.6262 11.7549 42.4774 9.60607C40.3285 7.45721 37.414 6.25 34.3751 6.25C30.7084 6.25 28.1251 7.29167 25.0001 10.4167C21.8751 7.29167 19.2917 6.25 15.6251 6.25C12.5861 6.25 9.67167 7.45721 7.52282 9.60607C5.37396 11.7549 4.16675 14.6694 4.16675 17.7083C4.16675 22.5 7.29175 26.1458 10.4167 29.1667L25.0001 43.75L39.5834 29.1667Z" stroke="#2F2F2F" stroke-width="2" stroke-linecap="round" stroke-linejoin="round"/>
<path id="Vector_2" d="M25 10.4167L18.8333 16.5834C18.4101 17.0036 18.0741 17.5034 17.8448 18.054C17.6156 18.6047 17.4976 19.1952 17.4976 19.7917C17.4976 20.3881 17.6156 20.9787 17.8448 21.5293C18.0741 22.08 18.4101 22.5798 18.8333 23C20.5417 24.7084 23.2708 24.7709 25.0833 23.1459L29.3958 19.1875C30.4768 18.2067 31.8841 17.6633 33.3438 17.6633C34.8034 17.6633 36.2107 18.2067 37.2917 19.1875L43.4583 24.7292" stroke="#2F2F2F" stroke-width="2" stroke-linecap="round" stroke-linejoin="round"/>
<path id="Vector_3" d="M37.4999 31.25L31.9993 25.4999" stroke="#2F2F2F" stroke-width="2" stroke-linecap="round" stroke-linejoin="round"/>
<path id="Vector_4" d="M31.2499 37.5L25.4993 31.4999" stroke="#2F2F2F" stroke-width="2" stroke-linecap="round" stroke-linejoin="round"/>
</g>
</svg>
