<svg width="46" height="46" viewBox="0 0 46 46" fill="none" xmlns="http://www.w3.org/2000/svg">
<g id="Frame 427319020">
<path id="Vector 8" d="M38.0114 43.875C28.9976 43.875 23.012 43.8763 19.012 42.3763C17.3072 41.737 14.5232 40.375 9.01196 40.375C1.40039 40.375 2.01145 40.375 2.01145 38.8762L2.01145 29.9116L2.01145 27.8763L2.01145 20.3759C2.01145 19.3768 2.01145 19.3768 5.51196 19.3768C16.0594 19.3768 14.8231 19.3772 20 14.5043C22.0755 12.5506 23.5 11.004 25.5 9.00396C27.5 7.00396 29.5 4.00388 31 2.50392C32.5 1.00384 34.5 3.00391 34.5 6.50389C34.5 8.50403 33.0231 10.5039 31.5116 14.0039C30.8637 15.5039 31.2438 14.4601 29.0876 18.1451M38.0114 43.875C43.012 43.875 43.012 36.8753 39.512 36.8753M38.0114 43.875C34.1781 44.2083 28.9884 44.0027 28.9884 40.5027C28.9884 35.975 34.512 36.8753 39.512 36.8753M39.512 36.8753C44.512 36.8753 44.012 29.9116 41.012 29.9116M39.512 36.8753C36.6787 36.542 28.0004 37.9037 28.0004 33.3753C28.0004 31.8753 28.5004 29.987 31 29.9117M41.012 29.9116C45.512 29.9116 45.112 22.8173 41.5121 22.8173M41.012 29.9116C38.301 29.9116 32.603 29.8003 31 29.9117M41.5121 22.8173C45.012 22.8173 45.512 15.8192 42.0121 15.8192C39.0871 15.8192 39.2892 15.8192 33.3888 15.8192C27.4884 15.8192 27 22.8173 33.9004 22.8097M41.5121 22.8173C40.7531 22.8173 36.593 22.8455 36.0116 22.8173C33.982 22.766 35.2191 22.7945 33.9004 22.8097M31 29.9117C27.4884 30.0027 27.2921 22.8174 31.4884 22.8174C32.4231 22.8174 33.5225 22.8141 33.9004 22.8097" stroke="#2F2F2F" stroke-width="2" stroke-linecap="round"/>
<path id="Vector 9" d="M25 25.0039C24.1667 26.3372 19.3 29.3039 16.5 28.5039" stroke="#2F2F2F" stroke-width="2" stroke-linecap="round"/>
<path id="Vector" d="M2 17L2 42.5" stroke="#2F2F2F" stroke-width="2" stroke-linecap="round" stroke-linejoin="round"/>
</g>
</svg>
